<?xml version="1.0" encoding="UTF-8" standalone="no"?>
<!DOCTYPE svg PUBLIC "-//W3C//DTD SVG 1.1//EN"
 "http://www.w3.org/Graphics/SVG/1.1/DTD/svg11.dtd">
<!-- Generated by graphviz version 2.43.0 (0)
 -->
<!-- Title: firmware/static&#45;weighstation/main/config.h Pages: 1 -->
<svg width="394pt" height="307pt"
 viewBox="0.00 0.00 394.00 307.00" xmlns="http://www.w3.org/2000/svg" xmlns:xlink="http://www.w3.org/1999/xlink">
<g id="graph0" class="graph" transform="scale(1 1) rotate(0) translate(4 303)">
<title>firmware/static&#45;weighstation/main/config.h</title>
<!-- Node1 -->
<g id="node1" class="node">
<title>Node1</title>
<g id="a_node1"><a xlink:title=" ">
<polygon fill="#bfbfbf" stroke="black" points="209,-268.5 209,-298.5 366,-298.5 366,-268.5 209,-268.5"/>
<text text-anchor="start" x="217" y="-286.5" font-family="Helvetica,sans-Serif" font-size="10.00">firmware/static&#45;weighstation</text>
<text text-anchor="middle" x="287.5" y="-275.5" font-family="Helvetica,sans-Serif" font-size="10.00">/main/config.h</text>
</a>
</g>
</g>
<!-- Node2 -->
<g id="node2" class="node">
<title>Node2</title>
<g id="a_node2"><a xlink:href="lora_8h.html" target="_top" xlink:title=" ">
<polygon fill="none" stroke="black" points="102,-201.5 102,-231.5 259,-231.5 259,-201.5 102,-201.5"/>
<text text-anchor="start" x="110" y="-219.5" font-family="Helvetica,sans-Serif" font-size="10.00">firmware/static&#45;weighstation</text>
<text text-anchor="middle" x="180.5" y="-208.5" font-family="Helvetica,sans-Serif" font-size="10.00">/main/lora.h</text>
</a>
</g>
</g>
<!-- Node1&#45;&gt;Node2 -->
<g id="edge1" class="edge">
<title>Node1&#45;&gt;Node2</title>
<path fill="none" stroke="midnightblue" d="M255.42,-263.02C238.77,-252.9 218.81,-240.77 203.67,-231.58"/>
<polygon fill="midnightblue" stroke="midnightblue" points="253.92,-266.2 264.28,-268.4 257.55,-260.21 253.92,-266.2"/>
</g>
<!-- Node4 -->
<g id="node4" class="node">
<title>Node4</title>
<g id="a_node4"><a xlink:href="sensors_8h.html" target="_top" xlink:title=" ">
<polygon fill="none" stroke="black" points="175,-134.5 175,-164.5 332,-164.5 332,-134.5 175,-134.5"/>
<text text-anchor="start" x="183" y="-152.5" font-family="Helvetica,sans-Serif" font-size="10.00">firmware/static&#45;weighstation</text>
<text text-anchor="middle" x="253.5" y="-141.5" font-family="Helvetica,sans-Serif" font-size="10.00">/main/sensors.h</text>
</a>
</g>
</g>
<!-- Node1&#45;&gt;Node4 -->
<g id="edge9" class="edge">
<title>Node1&#45;&gt;Node4</title>
<path fill="none" stroke="midnightblue" d="M281.82,-258.56C277.92,-242.29 272.54,-220.31 267.5,-201 264.28,-188.68 260.4,-174.73 257.54,-164.62"/>
<polygon fill="midnightblue" stroke="midnightblue" points="278.43,-259.42 284.16,-268.33 285.24,-257.79 278.43,-259.42"/>
</g>
<!-- Node5 -->
<g id="node5" class="node">
<title>Node5</title>
<g id="a_node5"><a xlink:href="memory_8h.html" target="_top" xlink:title=" ">
<polygon fill="none" stroke="black" points="229,-67.5 229,-97.5 386,-97.5 386,-67.5 229,-67.5"/>
<text text-anchor="start" x="237" y="-85.5" font-family="Helvetica,sans-Serif" font-size="10.00">firmware/static&#45;weighstation</text>
<text text-anchor="middle" x="307.5" y="-74.5" font-family="Helvetica,sans-Serif" font-size="10.00">/main/memory.h</text>
</a>
</g>
</g>
<!-- Node1&#45;&gt;Node5 -->
<g id="edge8" class="edge">
<title>Node1&#45;&gt;Node5</title>
<path fill="none" stroke="midnightblue" d="M301.58,-259.73C314.87,-236.79 333.87,-199.89 341.5,-165 344.44,-151.54 345.52,-147.18 341.5,-134 337.36,-120.45 328.24,-107.25 320.49,-97.75"/>
<polygon fill="midnightblue" stroke="midnightblue" points="298.54,-257.99 296.45,-268.38 304.56,-261.56 298.54,-257.99"/>
</g>
<!-- Node3 -->
<g id="node3" class="node">
<title>Node3</title>
<g id="a_node3"><a xlink:href="lora_8cpp.html" target="_top" xlink:title=" ">
<polygon fill="none" stroke="black" points="0,-134.5 0,-164.5 157,-164.5 157,-134.5 0,-134.5"/>
<text text-anchor="start" x="8" y="-152.5" font-family="Helvetica,sans-Serif" font-size="10.00">firmware/static&#45;weighstation</text>
<text text-anchor="middle" x="78.5" y="-141.5" font-family="Helvetica,sans-Serif" font-size="10.00">/main/lora.cpp</text>
</a>
</g>
</g>
<!-- Node2&#45;&gt;Node3 -->
<g id="edge2" class="edge">
<title>Node2&#45;&gt;Node3</title>
<path fill="none" stroke="midnightblue" d="M149.92,-196.02C134.05,-185.9 115.02,-173.77 100.59,-164.58"/>
<polygon fill="midnightblue" stroke="midnightblue" points="148.05,-198.97 158.37,-201.4 151.82,-193.07 148.05,-198.97"/>
</g>
<!-- Node2&#45;&gt;Node4 -->
<g id="edge3" class="edge">
<title>Node2&#45;&gt;Node4</title>
<path fill="none" stroke="midnightblue" d="M203.97,-194.6C215,-184.78 227.84,-173.34 237.69,-164.58"/>
<polygon fill="midnightblue" stroke="midnightblue" points="201.48,-192.13 196.34,-201.4 206.14,-197.36 201.48,-192.13"/>
</g>
<!-- Node4&#45;&gt;Node5 -->
<g id="edge4" class="edge">
<title>Node4&#45;&gt;Node5</title>
<path fill="none" stroke="midnightblue" d="M265.61,-126.16C272.91,-116.68 282.1,-105.92 290.13,-97.58"/>
<polygon fill="midnightblue" stroke="midnightblue" points="262.66,-124.27 259.54,-134.4 268.29,-128.42 262.66,-124.27"/>
</g>
<!-- Node7 -->
<g id="node7" class="node">
<title>Node7</title>
<g id="a_node7"><a xlink:href="sensors_8cpp.html" target="_top" xlink:title=" ">
<polygon fill="none" stroke="black" points="54,-67.5 54,-97.5 211,-97.5 211,-67.5 54,-67.5"/>
<text text-anchor="start" x="62" y="-85.5" font-family="Helvetica,sans-Serif" font-size="10.00">firmware/static&#45;weighstation</text>
<text text-anchor="middle" x="132.5" y="-74.5" font-family="Helvetica,sans-Serif" font-size="10.00">/main/sensors.cpp</text>
</a>
</g>
</g>
<!-- Node4&#45;&gt;Node7 -->
<g id="edge7" class="edge">
<title>Node4&#45;&gt;Node7</title>
<path fill="none" stroke="midnightblue" d="M218.27,-129.57C199.24,-119.35 176.13,-106.94 158.7,-97.58"/>
<polygon fill="midnightblue" stroke="midnightblue" points="216.78,-132.75 227.24,-134.4 220.09,-126.58 216.78,-132.75"/>
</g>
<!-- Node5&#45;&gt;Node4 -->
<g id="edge6" class="edge">
<title>Node5&#45;&gt;Node4</title>
<path fill="none" stroke="midnightblue" d="M295.41,-105.81C288.12,-115.29 278.93,-126.05 270.9,-134.4"/>
<polygon fill="midnightblue" stroke="midnightblue" points="298.36,-107.7 301.48,-97.58 292.73,-103.55 298.36,-107.7"/>
</g>
<!-- Node6 -->
<g id="node6" class="node">
<title>Node6</title>
<g id="a_node6"><a xlink:href="memory_8cpp.html" target="_top" xlink:title=" ">
<polygon fill="none" stroke="black" points="229,-0.5 229,-30.5 386,-30.5 386,-0.5 229,-0.5"/>
<text text-anchor="start" x="237" y="-18.5" font-family="Helvetica,sans-Serif" font-size="10.00">firmware/static&#45;weighstation</text>
<text text-anchor="middle" x="307.5" y="-7.5" font-family="Helvetica,sans-Serif" font-size="10.00">/main/memory.cpp</text>
</a>
</g>
</g>
<!-- Node5&#45;&gt;Node6 -->
<g id="edge5" class="edge">
<title>Node5&#45;&gt;Node6</title>
<path fill="none" stroke="midnightblue" d="M307.5,-57.11C307.5,-48.15 307.5,-38.32 307.5,-30.58"/>
<polygon fill="midnightblue" stroke="midnightblue" points="304,-57.4 307.5,-67.4 311,-57.4 304,-57.4"/>
</g>
</g>
</svg>
