<?xml version="1.0" encoding="UTF-8" standalone="no"?>
<!DOCTYPE svg PUBLIC "-//W3C//DTD SVG 1.1//EN"
 "http://www.w3.org/Graphics/SVG/1.1/DTD/svg11.dtd">
<!-- Generated by graphviz version 2.43.0 (0)
 -->
<!-- Title: firmware/static&#45;weighstation/main/config.h Pages: 1 -->
<svg width="165pt" height="93pt"
 viewBox="0.00 0.00 165.00 93.00" xmlns="http://www.w3.org/2000/svg" xmlns:xlink="http://www.w3.org/1999/xlink">
<g id="graph0" class="graph" transform="scale(1 1) rotate(0) translate(4 89)">
<title>firmware/static&#45;weighstation/main/config.h</title>
<!-- Node1 -->
<g id="node1" class="node">
<title>Node1</title>
<g id="a_node1"><a xlink:title=" ">
<polygon fill="#999999" stroke="#666666" points="157,-85 0,-85 0,-55 157,-55 157,-85"/>
<text text-anchor="start" x="8" y="-73" font-family="Helvetica,sans-Serif" font-size="10.00">firmware/static&#45;weighstation</text>
<text text-anchor="middle" x="78.5" y="-62" font-family="Helvetica,sans-Serif" font-size="10.00">/main/config.h</text>
</a>
</g>
</g>
<!-- Node2 -->
<g id="node2" class="node">
<title>Node2</title>
<g id="a_node2"><a xlink:title=" ">
<polygon fill="#e0e0e0" stroke="#999999" points="67,-19 20,-19 20,0 67,0 67,-19"/>
<text text-anchor="middle" x="43.5" y="-7" font-family="Helvetica,sans-Serif" font-size="10.00">lmic.h</text>
</a>
</g>
</g>
<!-- Node1&#45;&gt;Node2 -->
<g id="edge1" class="edge">
<title>Node1&#45;&gt;Node2</title>
<path fill="none" stroke="#63b8ff" d="M70.03,-54.84C65.21,-46.78 59.13,-36.62 54,-28.06"/>
<polygon fill="#63b8ff" stroke="#63b8ff" points="56.88,-26.05 48.74,-19.27 50.88,-29.64 56.88,-26.05"/>
</g>
<!-- Node3 -->
<g id="node3" class="node">
<title>Node3</title>
<g id="a_node3"><a xlink:title=" ">
<polygon fill="#e0e0e0" stroke="#999999" points="144,-19 85,-19 85,0 144,0 144,-19"/>
<text text-anchor="middle" x="114.5" y="-7" font-family="Helvetica,sans-Serif" font-size="10.00">hal/hal.h</text>
</a>
</g>
</g>
<!-- Node1&#45;&gt;Node3 -->
<g id="edge2" class="edge">
<title>Node1&#45;&gt;Node3</title>
<path fill="none" stroke="#63b8ff" d="M87.21,-54.84C92.17,-46.78 98.43,-36.62 103.7,-28.06"/>
<polygon fill="#63b8ff" stroke="#63b8ff" points="106.85,-29.62 109.11,-19.27 100.88,-25.95 106.85,-29.62"/>
</g>
</g>
</svg>
