<?xml version="1.0" encoding="UTF-8" standalone="no"?>
<!DOCTYPE svg PUBLIC "-//W3C//DTD SVG 1.1//EN"
 "http://www.w3.org/Graphics/SVG/1.1/DTD/svg11.dtd">
<!-- Generated by graphviz version 2.43.0 (0)
 -->
<!-- Title: firmware/static&#45;weighstation/main/config.h Pages: 1 -->
<svg width="394pt" height="302pt"
 viewBox="0.00 0.00 394.00 302.00" xmlns="http://www.w3.org/2000/svg" xmlns:xlink="http://www.w3.org/1999/xlink">
<g id="graph0" class="graph" transform="scale(1 1) rotate(0) translate(4 298)">
<title>firmware/static&#45;weighstation/main/config.h</title>
<!-- Node1 -->
<g id="node1" class="node">
<title>Node1</title>
<g id="a_node1"><a xlink:title=" ">
<polygon fill="#999999" stroke="#666666" points="366,-294 209,-294 209,-264 366,-264 366,-294"/>
<text text-anchor="start" x="217" y="-282" font-family="Helvetica,sans-Serif" font-size="10.00">firmware/static&#45;weighstation</text>
<text text-anchor="middle" x="287.5" y="-271" font-family="Helvetica,sans-Serif" font-size="10.00">/main/config.h</text>
</a>
</g>
</g>
<!-- Node2 -->
<g id="node2" class="node">
<title>Node2</title>
<g id="a_node2"><a xlink:href="lora_8h.html" target="_top" xlink:title=" ">
<polygon fill="white" stroke="#666666" points="259,-228 102,-228 102,-198 259,-198 259,-228"/>
<text text-anchor="start" x="110" y="-216" font-family="Helvetica,sans-Serif" font-size="10.00">firmware/static&#45;weighstation</text>
<text text-anchor="middle" x="180.5" y="-205" font-family="Helvetica,sans-Serif" font-size="10.00">/main/lora.h</text>
</a>
</g>
</g>
<!-- Node1&#45;&gt;Node2 -->
<g id="edge1" class="edge">
<title>Node1&#45;&gt;Node2</title>
<path fill="none" stroke="#63b8ff" d="M255.22,-258.69C238.71,-248.82 218.97,-237.01 203.93,-228.01"/>
<polygon fill="#63b8ff" stroke="#63b8ff" points="253.64,-261.83 264.02,-263.95 257.23,-255.82 253.64,-261.83"/>
</g>
<!-- Node4 -->
<g id="node4" class="node">
<title>Node4</title>
<g id="a_node4"><a xlink:href="sensors_8h.html" target="_top" xlink:title=" ">
<polygon fill="white" stroke="#666666" points="332,-162 175,-162 175,-132 332,-132 332,-162"/>
<text text-anchor="start" x="183" y="-150" font-family="Helvetica,sans-Serif" font-size="10.00">firmware/static&#45;weighstation</text>
<text text-anchor="middle" x="253.5" y="-139" font-family="Helvetica,sans-Serif" font-size="10.00">/main/sensors.h</text>
</a>
</g>
</g>
<!-- Node1&#45;&gt;Node4 -->
<g id="edge9" class="edge">
<title>Node1&#45;&gt;Node4</title>
<path fill="none" stroke="#63b8ff" d="M281.63,-253.76C277.73,-237.87 272.45,-216.67 267.5,-198 264.31,-185.98 260.49,-172.39 257.65,-162.41"/>
<polygon fill="#63b8ff" stroke="#63b8ff" points="278.31,-254.92 284.08,-263.81 285.11,-253.26 278.31,-254.92"/>
</g>
<!-- Node5 -->
<g id="node5" class="node">
<title>Node5</title>
<g id="a_node5"><a xlink:href="memory_8h.html" target="_top" xlink:title=" ">
<polygon fill="white" stroke="#666666" points="386,-96 229,-96 229,-66 386,-66 386,-96"/>
<text text-anchor="start" x="237" y="-84" font-family="Helvetica,sans-Serif" font-size="10.00">firmware/static&#45;weighstation</text>
<text text-anchor="middle" x="307.5" y="-73" font-family="Helvetica,sans-Serif" font-size="10.00">/main/memory.h</text>
</a>
</g>
</g>
<!-- Node1&#45;&gt;Node5 -->
<g id="edge8" class="edge">
<title>Node1&#45;&gt;Node5</title>
<path fill="none" stroke="#63b8ff" d="M301.97,-254.87C315.24,-232.19 333.94,-196.16 341.5,-162 344.38,-148.98 345.42,-144.74 341.5,-132 337.36,-118.56 328.24,-105.49 320.49,-96.08"/>
<polygon fill="#63b8ff" stroke="#63b8ff" points="298.81,-253.34 296.67,-263.72 304.81,-256.94 298.81,-253.34"/>
</g>
<!-- Node3 -->
<g id="node3" class="node">
<title>Node3</title>
<g id="a_node3"><a xlink:href="lora_8cpp.html" target="_top" xlink:title=" ">
<polygon fill="white" stroke="#666666" points="157,-162 0,-162 0,-132 157,-132 157,-162"/>
<text text-anchor="start" x="8" y="-150" font-family="Helvetica,sans-Serif" font-size="10.00">firmware/static&#45;weighstation</text>
<text text-anchor="middle" x="78.5" y="-139" font-family="Helvetica,sans-Serif" font-size="10.00">/main/lora.cpp</text>
</a>
</g>
</g>
<!-- Node2&#45;&gt;Node3 -->
<g id="edge2" class="edge">
<title>Node2&#45;&gt;Node3</title>
<path fill="none" stroke="#63b8ff" d="M149.29,-192.42C133.64,-182.6 115.04,-170.93 100.83,-162.01"/>
<polygon fill="#63b8ff" stroke="#63b8ff" points="147.78,-195.6 158.12,-197.95 151.51,-189.68 147.78,-195.6"/>
</g>
<!-- Node2&#45;&gt;Node4 -->
<g id="edge3" class="edge">
<title>Node2&#45;&gt;Node4</title>
<path fill="none" stroke="#63b8ff" d="M204.22,-191.2C215.06,-181.7 227.62,-170.69 237.34,-162.16"/>
<polygon fill="#63b8ff" stroke="#63b8ff" points="201.91,-188.57 196.7,-197.8 206.53,-193.84 201.91,-188.57"/>
</g>
<!-- Node4&#45;&gt;Node5 -->
<g id="edge4" class="edge">
<title>Node4&#45;&gt;Node5</title>
<path fill="none" stroke="#63b8ff" d="M265.99,-123.53C273.13,-114.43 282.01,-104.19 289.83,-96.16"/>
<polygon fill="#63b8ff" stroke="#63b8ff" points="262.98,-121.7 259.76,-131.8 268.57,-125.91 262.98,-121.7"/>
</g>
<!-- Node7 -->
<g id="node7" class="node">
<title>Node7</title>
<g id="a_node7"><a xlink:href="sensors_8cpp.html" target="_top" xlink:title=" ">
<polygon fill="white" stroke="#666666" points="211,-96 54,-96 54,-66 211,-66 211,-96"/>
<text text-anchor="start" x="62" y="-84" font-family="Helvetica,sans-Serif" font-size="10.00">firmware/static&#45;weighstation</text>
<text text-anchor="middle" x="132.5" y="-73" font-family="Helvetica,sans-Serif" font-size="10.00">/main/sensors.cpp</text>
</a>
</g>
</g>
<!-- Node4&#45;&gt;Node7 -->
<g id="edge7" class="edge">
<title>Node4&#45;&gt;Node7</title>
<path fill="none" stroke="#63b8ff" d="M218.03,-127.24C199.15,-117.25 176.32,-105.18 158.99,-96.01"/>
<polygon fill="#63b8ff" stroke="#63b8ff" points="216.47,-130.37 226.95,-131.95 219.74,-124.19 216.47,-130.37"/>
</g>
<!-- Node5&#45;&gt;Node4 -->
<g id="edge6" class="edge">
<title>Node5&#45;&gt;Node4</title>
<path fill="none" stroke="#63b8ff" d="M295.05,-104.43C287.91,-113.53 279.03,-123.76 271.2,-131.8"/>
<polygon fill="#63b8ff" stroke="#63b8ff" points="298.05,-106.26 301.26,-96.16 292.46,-102.05 298.05,-106.26"/>
</g>
<!-- Node6 -->
<g id="node6" class="node">
<title>Node6</title>
<g id="a_node6"><a xlink:href="memory_8cpp.html" target="_top" xlink:title=" ">
<polygon fill="white" stroke="#666666" points="386,-30 229,-30 229,0 386,0 386,-30"/>
<text text-anchor="start" x="237" y="-18" font-family="Helvetica,sans-Serif" font-size="10.00">firmware/static&#45;weighstation</text>
<text text-anchor="middle" x="307.5" y="-7" font-family="Helvetica,sans-Serif" font-size="10.00">/main/memory.cpp</text>
</a>
</g>
</g>
<!-- Node5&#45;&gt;Node6 -->
<g id="edge5" class="edge">
<title>Node5&#45;&gt;Node6</title>
<path fill="none" stroke="#63b8ff" d="M307.5,-55.54C307.5,-46.96 307.5,-37.61 307.5,-30.16"/>
<polygon fill="#63b8ff" stroke="#63b8ff" points="304,-55.8 307.5,-65.8 311,-55.8 304,-55.8"/>
</g>
</g>
</svg>
