<?xml version="1.0" encoding="UTF-8" standalone="no"?>
<!DOCTYPE svg PUBLIC "-//W3C//DTD SVG 1.1//EN"
 "http://www.w3.org/Graphics/SVG/1.1/DTD/svg11.dtd">
<!-- Generated by graphviz version 2.43.0 (0)
 -->
<!-- Title: firmware/static&#45;weighstation/main/lora.h Pages: 1 -->
<svg width="171pt" height="148pt"
 viewBox="0.00 0.00 171.00 148.00" xmlns="http://www.w3.org/2000/svg" xmlns:xlink="http://www.w3.org/1999/xlink">
<g id="graph0" class="graph" transform="scale(1 1) rotate(0) translate(4 144)">
<title>firmware/static&#45;weighstation/main/lora.h</title>
<!-- Node1 -->
<g id="node1" class="node">
<title>Node1</title>
<g id="a_node1"><a xlink:title=" ">
<polygon fill="#999999" stroke="#666666" points="163,-140 6,-140 6,-110 163,-110 163,-140"/>
<text text-anchor="start" x="14" y="-128" font-family="Helvetica,sans-Serif" font-size="10.00">firmware/static&#45;weighstation</text>
<text text-anchor="middle" x="84.5" y="-117" font-family="Helvetica,sans-Serif" font-size="10.00">/main/lora.h</text>
</a>
</g>
</g>
<!-- Node2 -->
<g id="node2" class="node">
<title>Node2</title>
<g id="a_node2"><a xlink:title=" ">
<polygon fill="#e0e0e0" stroke="#999999" points="47,-19 0,-19 0,0 47,0 47,-19"/>
<text text-anchor="middle" x="23.5" y="-7" font-family="Helvetica,sans-Serif" font-size="10.00">lmic.h</text>
</a>
</g>
</g>
<!-- Node1&#45;&gt;Node2 -->
<g id="edge1" class="edge">
<title>Node1&#45;&gt;Node2</title>
<path fill="none" stroke="#63b8ff" d="M52.8,-109.94C38.33,-101.72 22.63,-89.8 14.5,-74 7.26,-59.94 10.83,-41.93 15.43,-28.69"/>
<polygon fill="#63b8ff" stroke="#63b8ff" points="18.74,-29.84 19.17,-19.25 12.23,-27.27 18.74,-29.84"/>
</g>
<!-- Node3 -->
<g id="node3" class="node">
<title>Node3</title>
<g id="a_node3"><a xlink:title=" ">
<polygon fill="#e0e0e0" stroke="#999999" points="160,-19 101,-19 101,0 160,0 160,-19"/>
<text text-anchor="middle" x="130.5" y="-7" font-family="Helvetica,sans-Serif" font-size="10.00">hal/hal.h</text>
</a>
</g>
</g>
<!-- Node1&#45;&gt;Node3 -->
<g id="edge2" class="edge">
<title>Node1&#45;&gt;Node3</title>
<path fill="none" stroke="#63b8ff" d="M112.12,-109.85C125.44,-101.41 140.09,-89.34 147.5,-74 154.62,-59.26 148.42,-41.1 141.6,-27.98"/>
<polygon fill="#63b8ff" stroke="#63b8ff" points="144.49,-25.99 136.47,-19.08 138.43,-29.49 144.49,-25.99"/>
</g>
<!-- Node4 -->
<g id="node4" class="node">
<title>Node4</title>
<g id="a_node4"><a xlink:title=" ">
<polygon fill="#e0e0e0" stroke="#999999" points="138,-74 97,-74 97,-55 138,-55 138,-74"/>
<text text-anchor="middle" x="117.5" y="-62" font-family="Helvetica,sans-Serif" font-size="10.00">SPI.h</text>
</a>
</g>
</g>
<!-- Node1&#45;&gt;Node4 -->
<g id="edge3" class="edge">
<title>Node1&#45;&gt;Node4</title>
<path fill="none" stroke="#63b8ff" d="M92.49,-109.84C97.03,-101.78 102.77,-91.62 107.6,-83.06"/>
<polygon fill="#63b8ff" stroke="#63b8ff" points="110.69,-84.7 112.56,-74.27 104.59,-81.26 110.69,-84.7"/>
</g>
<!-- Node5 -->
<g id="node5" class="node">
<title>Node5</title>
<g id="a_node5"><a xlink:href="config_8h.html" target="_top" xlink:title=" ">
<polygon fill="white" stroke="#666666" points="79,-74 24,-74 24,-55 79,-55 79,-74"/>
<text text-anchor="middle" x="51.5" y="-62" font-family="Helvetica,sans-Serif" font-size="10.00">config.h</text>
</a>
</g>
</g>
<!-- Node1&#45;&gt;Node5 -->
<g id="edge4" class="edge">
<title>Node1&#45;&gt;Node5</title>
<path fill="none" stroke="#63b8ff" d="M76.51,-109.84C71.97,-101.78 66.23,-91.62 61.4,-83.06"/>
<polygon fill="#63b8ff" stroke="#63b8ff" points="64.41,-81.26 56.44,-74.27 58.31,-84.7 64.41,-81.26"/>
</g>
<!-- Node5&#45;&gt;Node2 -->
<g id="edge5" class="edge">
<title>Node5&#45;&gt;Node2</title>
<path fill="none" stroke="#63b8ff" d="M46.88,-54.75C43.04,-47.49 37.48,-36.95 32.74,-27.98"/>
<polygon fill="#63b8ff" stroke="#63b8ff" points="35.8,-26.3 28.04,-19.09 29.61,-29.57 35.8,-26.3"/>
</g>
<!-- Node5&#45;&gt;Node3 -->
<g id="edge6" class="edge">
<title>Node5&#45;&gt;Node3</title>
<path fill="none" stroke="#63b8ff" d="M64.19,-54.98C76.33,-46.84 94.86,-34.41 109.25,-24.76"/>
<polygon fill="#63b8ff" stroke="#63b8ff" points="111.22,-27.65 117.58,-19.17 107.32,-21.84 111.22,-27.65"/>
</g>
</g>
</svg>
