<?xml version="1.0" encoding="UTF-8" standalone="no"?>
<!DOCTYPE svg PUBLIC "-//W3C//DTD SVG 1.1//EN"
 "http://www.w3.org/Graphics/SVG/1.1/DTD/svg11.dtd">
<!-- Generated by graphviz version 2.43.0 (0)
 -->
<!-- Title: firmware/static&#45;weighstation/main/lora.cpp Pages: 1 -->
<svg width="171pt" height="203pt"
 viewBox="0.00 0.00 171.00 203.00" xmlns="http://www.w3.org/2000/svg" xmlns:xlink="http://www.w3.org/1999/xlink">
<g id="graph0" class="graph" transform="scale(1 1) rotate(0) translate(4 199)">
<title>firmware/static&#45;weighstation/main/lora.cpp</title>
<!-- Node1 -->
<g id="node1" class="node">
<title>Node1</title>
<g id="a_node1"><a xlink:title=" ">
<polygon fill="#999999" stroke="#666666" points="163,-195 6,-195 6,-165 163,-165 163,-195"/>
<text text-anchor="start" x="14" y="-183" font-family="Helvetica,sans-Serif" font-size="10.00">firmware/static&#45;weighstation</text>
<text text-anchor="middle" x="84.5" y="-172" font-family="Helvetica,sans-Serif" font-size="10.00">/main/lora.cpp</text>
</a>
</g>
</g>
<!-- Node2 -->
<g id="node2" class="node">
<title>Node2</title>
<g id="a_node2"><a xlink:href="lora_8h.html" target="_top" xlink:title=" ">
<polygon fill="white" stroke="#666666" points="106.5,-129 62.5,-129 62.5,-110 106.5,-110 106.5,-129"/>
<text text-anchor="middle" x="84.5" y="-117" font-family="Helvetica,sans-Serif" font-size="10.00">lora.h</text>
</a>
</g>
</g>
<!-- Node1&#45;&gt;Node2 -->
<g id="edge1" class="edge">
<title>Node1&#45;&gt;Node2</title>
<path fill="none" stroke="#63b8ff" d="M84.5,-164.84C84.5,-157.21 84.5,-147.7 84.5,-139.45"/>
<polygon fill="#63b8ff" stroke="#63b8ff" points="88,-139.27 84.5,-129.27 81,-139.27 88,-139.27"/>
</g>
<!-- Node3 -->
<g id="node3" class="node">
<title>Node3</title>
<g id="a_node3"><a xlink:title=" ">
<polygon fill="#e0e0e0" stroke="#999999" points="47,-19 0,-19 0,0 47,0 47,-19"/>
<text text-anchor="middle" x="23.5" y="-7" font-family="Helvetica,sans-Serif" font-size="10.00">lmic.h</text>
</a>
</g>
</g>
<!-- Node2&#45;&gt;Node3 -->
<g id="edge2" class="edge">
<title>Node2&#45;&gt;Node3</title>
<path fill="none" stroke="#63b8ff" d="M62.44,-111.12C45.97,-104.31 24.62,-92.43 14.5,-74 6.89,-60.14 10.49,-42.11 15.21,-28.81"/>
<polygon fill="#63b8ff" stroke="#63b8ff" points="18.54,-29.91 19.04,-19.32 12.05,-27.28 18.54,-29.91"/>
</g>
<!-- Node4 -->
<g id="node4" class="node">
<title>Node4</title>
<g id="a_node4"><a xlink:title=" ">
<polygon fill="#e0e0e0" stroke="#999999" points="160,-19 101,-19 101,0 160,0 160,-19"/>
<text text-anchor="middle" x="130.5" y="-7" font-family="Helvetica,sans-Serif" font-size="10.00">hal/hal.h</text>
</a>
</g>
</g>
<!-- Node2&#45;&gt;Node4 -->
<g id="edge3" class="edge">
<title>Node2&#45;&gt;Node4</title>
<path fill="none" stroke="#63b8ff" d="M105.65,-109.93C120.33,-102.73 138.75,-90.88 147.5,-74 155.03,-59.46 148.78,-41.28 141.84,-28.1"/>
<polygon fill="#63b8ff" stroke="#63b8ff" points="144.67,-26.01 136.6,-19.14 138.62,-29.54 144.67,-26.01"/>
</g>
<!-- Node5 -->
<g id="node5" class="node">
<title>Node5</title>
<g id="a_node5"><a xlink:title=" ">
<polygon fill="#e0e0e0" stroke="#999999" points="138,-74 97,-74 97,-55 138,-55 138,-74"/>
<text text-anchor="middle" x="117.5" y="-62" font-family="Helvetica,sans-Serif" font-size="10.00">SPI.h</text>
</a>
</g>
</g>
<!-- Node2&#45;&gt;Node5 -->
<g id="edge4" class="edge">
<title>Node2&#45;&gt;Node5</title>
<path fill="none" stroke="#63b8ff" d="M89.95,-109.75C94.51,-102.42 101.17,-91.73 106.79,-82.7"/>
<polygon fill="#63b8ff" stroke="#63b8ff" points="109.84,-84.43 112.15,-74.09 103.9,-80.73 109.84,-84.43"/>
</g>
<!-- Node6 -->
<g id="node6" class="node">
<title>Node6</title>
<g id="a_node6"><a xlink:href="config_8h.html" target="_top" xlink:title=" ">
<polygon fill="white" stroke="#666666" points="79,-74 24,-74 24,-55 79,-55 79,-74"/>
<text text-anchor="middle" x="51.5" y="-62" font-family="Helvetica,sans-Serif" font-size="10.00">config.h</text>
</a>
</g>
</g>
<!-- Node2&#45;&gt;Node6 -->
<g id="edge5" class="edge">
<title>Node2&#45;&gt;Node6</title>
<path fill="none" stroke="#63b8ff" d="M79.05,-109.75C74.49,-102.42 67.83,-91.73 62.21,-82.7"/>
<polygon fill="#63b8ff" stroke="#63b8ff" points="65.1,-80.73 56.85,-74.09 59.16,-84.43 65.1,-80.73"/>
</g>
<!-- Node6&#45;&gt;Node3 -->
<g id="edge6" class="edge">
<title>Node6&#45;&gt;Node3</title>
<path fill="none" stroke="#63b8ff" d="M46.88,-54.75C43.04,-47.49 37.48,-36.95 32.74,-27.98"/>
<polygon fill="#63b8ff" stroke="#63b8ff" points="35.8,-26.3 28.04,-19.09 29.61,-29.57 35.8,-26.3"/>
</g>
<!-- Node6&#45;&gt;Node4 -->
<g id="edge7" class="edge">
<title>Node6&#45;&gt;Node4</title>
<path fill="none" stroke="#63b8ff" d="M64.19,-54.98C76.33,-46.84 94.86,-34.41 109.25,-24.76"/>
<polygon fill="#63b8ff" stroke="#63b8ff" points="111.22,-27.65 117.58,-19.17 107.32,-21.84 111.22,-27.65"/>
</g>
</g>
</svg>
