<?xml version="1.0" encoding="UTF-8" standalone="no"?>
<!DOCTYPE svg PUBLIC "-//W3C//DTD SVG 1.1//EN"
 "http://www.w3.org/Graphics/SVG/1.1/DTD/svg11.dtd">
<!-- Generated by graphviz version 2.50.0 (20211204.2007)
 -->
<!-- Title: firmware/static&#45;weighstation/main/lora.h Pages: 1 -->
<svg width="159pt" height="151pt"
 viewBox="0.00 0.00 159.00 151.00" xmlns="http://www.w3.org/2000/svg" xmlns:xlink="http://www.w3.org/1999/xlink">
<g id="graph0" class="graph" transform="scale(1 1) rotate(0) translate(4 147)">
<title>firmware/static&#45;weighstation/main/lora.h</title>
<!-- Node1 -->
<g id="node1" class="node">
<title>Node1</title>
<g id="a_node1"><a xlink:title=" ">
<polygon fill="#bfbfbf" stroke="black" points="11,-112.5 11,-142.5 150,-142.5 150,-112.5 11,-112.5"/>
<text text-anchor="start" x="19" y="-130.5" font-family="Helvetica,sans-Serif" font-size="10.00">firmware/static&#45;weighstation</text>
<text text-anchor="middle" x="80.5" y="-119.5" font-family="Helvetica,sans-Serif" font-size="10.00">/main/lora.h</text>
</a>
</g>
</g>
<!-- Node2 -->
<g id="node2" class="node">
<title>Node2</title>
<g id="a_node2"><a xlink:title=" ">
<polygon fill="none" stroke="#bfbfbf" points="0,-0.5 0,-19.5 43,-19.5 43,-0.5 0,-0.5"/>
<text text-anchor="middle" x="21.5" y="-7.5" font-family="Helvetica,sans-Serif" font-size="10.00">lmic.h</text>
</a>
</g>
</g>
<!-- Node1&#45;&gt;Node2 -->
<g id="edge1" class="edge">
<title>Node1&#45;&gt;Node2</title>
<path fill="none" stroke="midnightblue" d="M50.81,-112.34C36.76,-103.92 21.36,-91.77 13.5,-76 6.22,-61.39 9.62,-42.71 14.02,-29.13"/>
<polygon fill="midnightblue" stroke="midnightblue" points="17.39,-30.1 17.57,-19.51 10.82,-27.68 17.39,-30.1"/>
</g>
<!-- Node3 -->
<g id="node3" class="node">
<title>Node3</title>
<g id="a_node3"><a xlink:title=" ">
<polygon fill="none" stroke="#bfbfbf" points="98,-0.5 98,-19.5 151,-19.5 151,-0.5 98,-0.5"/>
<text text-anchor="middle" x="124.5" y="-7.5" font-family="Helvetica,sans-Serif" font-size="10.00">hal/hal.h</text>
</a>
</g>
</g>
<!-- Node1&#45;&gt;Node3 -->
<g id="edge2" class="edge">
<title>Node1&#45;&gt;Node3</title>
<path fill="none" stroke="midnightblue" d="M107.06,-112.47C120.33,-103.88 135.11,-91.55 142.5,-76 149.78,-60.68 143.06,-41.89 135.85,-28.46"/>
<polygon fill="midnightblue" stroke="midnightblue" points="138.81,-26.58 130.71,-19.75 132.78,-30.14 138.81,-26.58"/>
</g>
<!-- Node4 -->
<g id="node4" class="node">
<title>Node4</title>
<g id="a_node4"><a xlink:title=" ">
<polygon fill="none" stroke="#bfbfbf" points="92,-56.5 92,-75.5 133,-75.5 133,-56.5 92,-56.5"/>
<text text-anchor="middle" x="112.5" y="-63.5" font-family="Helvetica,sans-Serif" font-size="10.00">SPI.h</text>
</a>
</g>
</g>
<!-- Node1&#45;&gt;Node4 -->
<g id="edge3" class="edge">
<title>Node1&#45;&gt;Node4</title>
<path fill="none" stroke="midnightblue" d="M88.08,-112.4C92.54,-104.11 98.22,-93.55 102.98,-84.71"/>
<polygon fill="midnightblue" stroke="midnightblue" points="106.19,-86.12 107.84,-75.66 100.02,-82.81 106.19,-86.12"/>
</g>
<!-- Node5 -->
<g id="node5" class="node">
<title>Node5</title>
<g id="a_node5"><a xlink:href="config_8h.html" target="_top" xlink:title=" ">
<polygon fill="none" stroke="black" points="23,-56.5 23,-75.5 74,-75.5 74,-56.5 23,-56.5"/>
<text text-anchor="middle" x="48.5" y="-63.5" font-family="Helvetica,sans-Serif" font-size="10.00">config.h</text>
</a>
</g>
</g>
<!-- Node1&#45;&gt;Node5 -->
<g id="edge4" class="edge">
<title>Node1&#45;&gt;Node5</title>
<path fill="none" stroke="midnightblue" d="M72.92,-112.4C68.46,-104.11 62.78,-93.55 58.02,-84.71"/>
<polygon fill="midnightblue" stroke="midnightblue" points="60.98,-82.81 53.16,-75.66 54.81,-86.12 60.98,-82.81"/>
</g>
<!-- Node5&#45;&gt;Node2 -->
<g id="edge5" class="edge">
<title>Node5&#45;&gt;Node2</title>
<path fill="none" stroke="midnightblue" d="M44.04,-56.08C40.35,-48.69 34.98,-37.95 30.41,-28.81"/>
<polygon fill="midnightblue" stroke="midnightblue" points="33.48,-27.13 25.88,-19.75 27.22,-30.26 33.48,-27.13"/>
</g>
<!-- Node5&#45;&gt;Node3 -->
<g id="edge6" class="edge">
<title>Node5&#45;&gt;Node3</title>
<path fill="none" stroke="midnightblue" d="M60.71,-56.32C72.28,-48.11 89.88,-35.6 103.66,-25.81"/>
<polygon fill="midnightblue" stroke="midnightblue" points="105.94,-28.48 112.07,-19.83 101.89,-22.77 105.94,-28.48"/>
</g>
</g>
</svg>
