<?xml version="1.0" encoding="UTF-8" standalone="no"?>
<!DOCTYPE svg PUBLIC "-//W3C//DTD SVG 1.1//EN"
 "http://www.w3.org/Graphics/SVG/1.1/DTD/svg11.dtd">
<!-- Generated by graphviz version 2.50.0 (20211204.2007)
 -->
<!-- Title: firmware/static&#45;weighstation/main/lora.cpp Pages: 1 -->
<svg width="159pt" height="207pt"
 viewBox="0.00 0.00 159.00 207.00" xmlns="http://www.w3.org/2000/svg" xmlns:xlink="http://www.w3.org/1999/xlink">
<g id="graph0" class="graph" transform="scale(1 1) rotate(0) translate(4 203)">
<title>firmware/static&#45;weighstation/main/lora.cpp</title>
<!-- Node1 -->
<g id="node1" class="node">
<title>Node1</title>
<g id="a_node1"><a xlink:title=" ">
<polygon fill="#bfbfbf" stroke="black" points="11,-168.5 11,-198.5 150,-198.5 150,-168.5 11,-168.5"/>
<text text-anchor="start" x="19" y="-186.5" font-family="Helvetica,sans-Serif" font-size="10.00">firmware/static&#45;weighstation</text>
<text text-anchor="middle" x="80.5" y="-175.5" font-family="Helvetica,sans-Serif" font-size="10.00">/main/lora.cpp</text>
</a>
</g>
</g>
<!-- Node2 -->
<g id="node2" class="node">
<title>Node2</title>
<g id="a_node2"><a xlink:href="lora_8h.html" target="_top" xlink:title=" ">
<polygon fill="none" stroke="black" points="60,-112.5 60,-131.5 101,-131.5 101,-112.5 60,-112.5"/>
<text text-anchor="middle" x="80.5" y="-119.5" font-family="Helvetica,sans-Serif" font-size="10.00">lora.h</text>
</a>
</g>
</g>
<!-- Node1&#45;&gt;Node2 -->
<g id="edge1" class="edge">
<title>Node1&#45;&gt;Node2</title>
<path fill="none" stroke="midnightblue" d="M80.5,-168.4C80.5,-160.47 80.5,-150.46 80.5,-141.86"/>
<polygon fill="midnightblue" stroke="midnightblue" points="84,-141.66 80.5,-131.66 77,-141.66 84,-141.66"/>
</g>
<!-- Node3 -->
<g id="node3" class="node">
<title>Node3</title>
<g id="a_node3"><a xlink:title=" ">
<polygon fill="none" stroke="#bfbfbf" points="0,-0.5 0,-19.5 43,-19.5 43,-0.5 0,-0.5"/>
<text text-anchor="middle" x="21.5" y="-7.5" font-family="Helvetica,sans-Serif" font-size="10.00">lmic.h</text>
</a>
</g>
</g>
<!-- Node2&#45;&gt;Node3 -->
<g id="edge2" class="edge">
<title>Node2&#45;&gt;Node3</title>
<path fill="none" stroke="midnightblue" d="M60,-113.5C44.12,-106.48 23.25,-94.3 13.5,-76 5.82,-61.59 9.27,-42.89 13.79,-29.25"/>
<polygon fill="midnightblue" stroke="midnightblue" points="17.18,-30.17 17.44,-19.58 10.63,-27.69 17.18,-30.17"/>
</g>
<!-- Node4 -->
<g id="node4" class="node">
<title>Node4</title>
<g id="a_node4"><a xlink:title=" ">
<polygon fill="none" stroke="#bfbfbf" points="98,-0.5 98,-19.5 151,-19.5 151,-0.5 98,-0.5"/>
<text text-anchor="middle" x="124.5" y="-7.5" font-family="Helvetica,sans-Serif" font-size="10.00">hal/hal.h</text>
</a>
</g>
</g>
<!-- Node2&#45;&gt;Node4 -->
<g id="edge3" class="edge">
<title>Node2&#45;&gt;Node4</title>
<path fill="none" stroke="midnightblue" d="M100.72,-112.49C115.27,-105.17 133.8,-93.06 142.5,-76 150.2,-60.89 143.43,-42.07 136.09,-28.58"/>
<polygon fill="midnightblue" stroke="midnightblue" points="138.99,-26.6 130.85,-19.82 132.98,-30.2 138.99,-26.6"/>
</g>
<!-- Node5 -->
<g id="node5" class="node">
<title>Node5</title>
<g id="a_node5"><a xlink:title=" ">
<polygon fill="none" stroke="#bfbfbf" points="92,-56.5 92,-75.5 133,-75.5 133,-56.5 92,-56.5"/>
<text text-anchor="middle" x="112.5" y="-63.5" font-family="Helvetica,sans-Serif" font-size="10.00">SPI.h</text>
</a>
</g>
</g>
<!-- Node2&#45;&gt;Node5 -->
<g id="edge4" class="edge">
<title>Node2&#45;&gt;Node5</title>
<path fill="none" stroke="midnightblue" d="M85.78,-112.08C90.21,-104.61 96.66,-93.72 102.12,-84.52"/>
<polygon fill="midnightblue" stroke="midnightblue" points="105.23,-86.14 107.31,-75.75 99.21,-82.57 105.23,-86.14"/>
</g>
<!-- Node6 -->
<g id="node6" class="node">
<title>Node6</title>
<g id="a_node6"><a xlink:href="config_8h.html" target="_top" xlink:title=" ">
<polygon fill="none" stroke="black" points="23,-56.5 23,-75.5 74,-75.5 74,-56.5 23,-56.5"/>
<text text-anchor="middle" x="48.5" y="-63.5" font-family="Helvetica,sans-Serif" font-size="10.00">config.h</text>
</a>
</g>
</g>
<!-- Node2&#45;&gt;Node6 -->
<g id="edge5" class="edge">
<title>Node2&#45;&gt;Node6</title>
<path fill="none" stroke="midnightblue" d="M75.22,-112.08C70.79,-104.61 64.34,-93.72 58.88,-84.52"/>
<polygon fill="midnightblue" stroke="midnightblue" points="61.79,-82.57 53.69,-75.75 55.77,-86.14 61.79,-82.57"/>
</g>
<!-- Node6&#45;&gt;Node3 -->
<g id="edge6" class="edge">
<title>Node6&#45;&gt;Node3</title>
<path fill="none" stroke="midnightblue" d="M44.04,-56.08C40.35,-48.69 34.98,-37.95 30.41,-28.81"/>
<polygon fill="midnightblue" stroke="midnightblue" points="33.48,-27.13 25.88,-19.75 27.22,-30.26 33.48,-27.13"/>
</g>
<!-- Node6&#45;&gt;Node4 -->
<g id="edge7" class="edge">
<title>Node6&#45;&gt;Node4</title>
<path fill="none" stroke="midnightblue" d="M60.71,-56.32C72.28,-48.11 89.88,-35.6 103.66,-25.81"/>
<polygon fill="midnightblue" stroke="midnightblue" points="105.94,-28.48 112.07,-19.83 101.89,-22.77 105.94,-28.48"/>
</g>
</g>
</svg>
