<?xml version="1.0" encoding="UTF-8" standalone="no"?>
<!DOCTYPE svg PUBLIC "-//W3C//DTD SVG 1.1//EN"
 "http://www.w3.org/Graphics/SVG/1.1/DTD/svg11.dtd">
<!-- Generated by graphviz version 2.43.0 (0)
 -->
<!-- Title: firmware/static&#45;weighstation/main/memory.h Pages: 1 -->
<svg width="865pt" height="263pt"
 viewBox="0.00 0.00 865.23 263.00" xmlns="http://www.w3.org/2000/svg" xmlns:xlink="http://www.w3.org/1999/xlink">
<g id="graph0" class="graph" transform="scale(1 1) rotate(0) translate(4 259)">
<title>firmware/static&#45;weighstation/main/memory.h</title>
<!-- Node1 -->
<g id="node1" class="node">
<title>Node1</title>
<g id="a_node1"><a xlink:title=" ">
<polygon fill="#bfbfbf" stroke="black" points="262.23,-224.5 262.23,-254.5 419.23,-254.5 419.23,-224.5 262.23,-224.5"/>
<text text-anchor="start" x="270.23" y="-242.5" font-family="Helvetica,sans-Serif" font-size="10.00">firmware/static&#45;weighstation</text>
<text text-anchor="middle" x="340.73" y="-231.5" font-family="Helvetica,sans-Serif" font-size="10.00">/main/memory.h</text>
</a>
</g>
</g>
<!-- Node2 -->
<g id="node2" class="node">
<title>Node2</title>
<g id="a_node2"><a xlink:title=" ">
<polygon fill="none" stroke="#bfbfbf" points="14.23,-112.5 14.23,-131.5 77.23,-131.5 77.23,-112.5 14.23,-112.5"/>
<text text-anchor="middle" x="45.73" y="-119.5" font-family="Helvetica,sans-Serif" font-size="10.00">Arduino.h</text>
</a>
</g>
</g>
<!-- Node1&#45;&gt;Node2 -->
<g id="edge1" class="edge">
<title>Node1&#45;&gt;Node2</title>
<path fill="none" stroke="midnightblue" d="M304.85,-224.45C246.6,-201.64 132.4,-156.93 77.15,-135.3"/>
<polygon fill="midnightblue" stroke="midnightblue" points="78.14,-131.93 67.55,-131.54 75.59,-138.45 78.14,-131.93"/>
</g>
<!-- Node3 -->
<g id="node3" class="node">
<title>Node3</title>
<g id="a_node3"><a xlink:title=" ">
<polygon fill="none" stroke="#bfbfbf" points="818.23,-168.5 818.23,-187.5 857.23,-187.5 857.23,-168.5 818.23,-168.5"/>
<text text-anchor="middle" x="837.73" y="-175.5" font-family="Helvetica,sans-Serif" font-size="10.00">SD.h</text>
</a>
</g>
</g>
<!-- Node1&#45;&gt;Node3 -->
<g id="edge2" class="edge">
<title>Node1&#45;&gt;Node3</title>
<path fill="none" stroke="midnightblue" d="M419.49,-233.53C512.05,-226.85 669.98,-212.85 803.73,-188 805.2,-187.73 806.69,-187.43 808.19,-187.1"/>
<polygon fill="midnightblue" stroke="midnightblue" points="809.16,-190.47 818.07,-184.74 807.53,-183.66 809.16,-190.47"/>
</g>
<!-- Node4 -->
<g id="node4" class="node">
<title>Node4</title>
<g id="a_node4"><a xlink:title=" ">
<polygon fill="none" stroke="#bfbfbf" points="7.23,-56.5 7.23,-75.5 48.23,-75.5 48.23,-56.5 7.23,-56.5"/>
<text text-anchor="middle" x="27.73" y="-63.5" font-family="Helvetica,sans-Serif" font-size="10.00">SPI.h</text>
</a>
</g>
</g>
<!-- Node1&#45;&gt;Node4 -->
<g id="edge3" class="edge">
<title>Node1&#45;&gt;Node4</title>
<path fill="none" stroke="midnightblue" d="M261.84,-224.74C172.28,-207.29 34.7,-174.33 4.73,-132 -5.59,-117.41 3.95,-97.73 13.69,-83.86"/>
<polygon fill="midnightblue" stroke="midnightblue" points="16.64,-85.77 19.92,-75.7 11.07,-81.52 16.64,-85.77"/>
</g>
<!-- Node5 -->
<g id="node5" class="node">
<title>Node5</title>
<g id="a_node5"><a xlink:href="config_8h.html" target="_top" xlink:title=" ">
<polygon fill="none" stroke="black" points="184.23,-56.5 184.23,-75.5 239.23,-75.5 239.23,-56.5 184.23,-56.5"/>
<text text-anchor="middle" x="211.73" y="-63.5" font-family="Helvetica,sans-Serif" font-size="10.00">config.h</text>
</a>
</g>
</g>
<!-- Node1&#45;&gt;Node5 -->
<g id="edge4" class="edge">
<title>Node1&#45;&gt;Node5</title>
<path fill="none" stroke="midnightblue" d="M419.37,-238.49C563.6,-235.96 847.1,-217.85 749.73,-112 715.97,-75.29 366.41,-68.52 249.55,-67.28"/>
<polygon fill="midnightblue" stroke="midnightblue" points="249.33,-63.77 239.3,-67.17 249.27,-70.77 249.33,-63.77"/>
</g>
<!-- Node8 -->
<g id="node8" class="node">
<title>Node8</title>
<g id="a_node8"><a xlink:href="sensors_8h.html" target="_top" xlink:title=" ">
<polygon fill="none" stroke="black" points="309.23,-168.5 309.23,-187.5 372.23,-187.5 372.23,-168.5 309.23,-168.5"/>
<text text-anchor="middle" x="340.73" y="-175.5" font-family="Helvetica,sans-Serif" font-size="10.00">sensors.h</text>
</a>
</g>
</g>
<!-- Node1&#45;&gt;Node8 -->
<g id="edge7" class="edge">
<title>Node1&#45;&gt;Node8</title>
<path fill="none" stroke="midnightblue" d="M334.89,-224.4C333.86,-216.38 333.71,-206.23 334.43,-197.57"/>
<polygon fill="midnightblue" stroke="midnightblue" points="337.89,-198.04 335.8,-187.66 330.96,-197.08 337.89,-198.04"/>
</g>
<!-- Node6 -->
<g id="node6" class="node">
<title>Node6</title>
<g id="a_node6"><a xlink:title=" ">
<polygon fill="none" stroke="#bfbfbf" points="182.23,-0.5 182.23,-19.5 229.23,-19.5 229.23,-0.5 182.23,-0.5"/>
<text text-anchor="middle" x="205.73" y="-7.5" font-family="Helvetica,sans-Serif" font-size="10.00">lmic.h</text>
</a>
</g>
</g>
<!-- Node5&#45;&gt;Node6 -->
<g id="edge5" class="edge">
<title>Node5&#45;&gt;Node6</title>
<path fill="none" stroke="midnightblue" d="M210.74,-56.08C209.95,-48.93 208.8,-38.64 207.81,-29.69"/>
<polygon fill="midnightblue" stroke="midnightblue" points="211.29,-29.3 206.7,-19.75 204.33,-30.08 211.29,-29.3"/>
</g>
<!-- Node7 -->
<g id="node7" class="node">
<title>Node7</title>
<g id="a_node7"><a xlink:title=" ">
<polygon fill="none" stroke="#bfbfbf" points="99.23,-0.5 99.23,-19.5 158.23,-19.5 158.23,-0.5 99.23,-0.5"/>
<text text-anchor="middle" x="128.73" y="-7.5" font-family="Helvetica,sans-Serif" font-size="10.00">hal/hal.h</text>
</a>
</g>
</g>
<!-- Node5&#45;&gt;Node7 -->
<g id="edge6" class="edge">
<title>Node5&#45;&gt;Node7</title>
<path fill="none" stroke="midnightblue" d="M198.4,-56.32C185.57,-47.98 165.95,-35.21 150.79,-25.35"/>
<polygon fill="midnightblue" stroke="midnightblue" points="152.33,-22.17 142.03,-19.65 148.51,-28.04 152.33,-22.17"/>
</g>
<!-- Node8&#45;&gt;Node1 -->
<g id="edge16" class="edge">
<title>Node8&#45;&gt;Node1</title>
<path fill="none" stroke="midnightblue" d="M345.66,-187.66C347.17,-194.65 347.74,-204.86 347.38,-214.29"/>
<polygon fill="midnightblue" stroke="midnightblue" points="343.88,-214.15 346.57,-224.4 350.86,-214.71 343.88,-214.15"/>
</g>
<!-- Node8&#45;&gt;Node2 -->
<g id="edge13" class="edge">
<title>Node8&#45;&gt;Node2</title>
<path fill="none" stroke="midnightblue" d="M308.98,-171.8C262.6,-164.12 173.4,-148.98 87.41,-132.07"/>
<polygon fill="midnightblue" stroke="midnightblue" points="87.98,-128.61 77.49,-130.1 86.62,-135.48 87.98,-128.61"/>
</g>
<!-- Node8&#45;&gt;Node5 -->
<g id="edge15" class="edge">
<title>Node8&#45;&gt;Node5</title>
<path fill="none" stroke="midnightblue" d="M372.24,-176.73C473.74,-175.31 782.75,-166.52 732.73,-112 700.19,-76.52 363.85,-68.94 249.53,-67.39"/>
<polygon fill="midnightblue" stroke="midnightblue" points="249.53,-63.89 239.48,-67.26 249.44,-70.89 249.53,-63.89"/>
</g>
<!-- Node9 -->
<g id="node9" class="node">
<title>Node9</title>
<g id="a_node9"><a xlink:title=" ">
<polygon fill="none" stroke="#bfbfbf" points="157.73,-112.5 157.73,-131.5 205.73,-131.5 205.73,-112.5 157.73,-112.5"/>
<text text-anchor="middle" x="181.73" y="-119.5" font-family="Helvetica,sans-Serif" font-size="10.00">Wire.h</text>
</a>
</g>
</g>
<!-- Node8&#45;&gt;Node9 -->
<g id="edge8" class="edge">
<title>Node8&#45;&gt;Node9</title>
<path fill="none" stroke="midnightblue" d="M315.54,-168.44C288.48,-159.25 245.33,-144.6 215.38,-134.43"/>
<polygon fill="midnightblue" stroke="midnightblue" points="216.36,-131.06 205.77,-131.16 214.11,-137.69 216.36,-131.06"/>
</g>
<!-- Node10 -->
<g id="node10" class="node">
<title>Node10</title>
<g id="a_node10"><a xlink:title=" ">
<polygon fill="none" stroke="#bfbfbf" points="223.73,-112.5 223.73,-131.5 281.73,-131.5 281.73,-112.5 223.73,-112.5"/>
<text text-anchor="middle" x="252.73" y="-119.5" font-family="Helvetica,sans-Serif" font-size="10.00">HX711.h</text>
</a>
</g>
</g>
<!-- Node8&#45;&gt;Node10 -->
<g id="edge9" class="edge">
<title>Node8&#45;&gt;Node10</title>
<path fill="none" stroke="midnightblue" d="M326.59,-168.32C312.87,-159.9 291.8,-146.97 275.67,-137.07"/>
<polygon fill="midnightblue" stroke="midnightblue" points="277.19,-133.9 266.84,-131.65 273.53,-139.87 277.19,-133.9"/>
</g>
<!-- Node11 -->
<g id="node11" class="node">
<title>Node11</title>
<g id="a_node11"><a xlink:title=" ">
<polygon fill="none" stroke="#bfbfbf" points="300.23,-112.5 300.23,-131.5 381.23,-131.5 381.23,-112.5 300.23,-112.5"/>
<text text-anchor="middle" x="340.73" y="-119.5" font-family="Helvetica,sans-Serif" font-size="10.00">DS1307RTC.h</text>
</a>
</g>
</g>
<!-- Node8&#45;&gt;Node11 -->
<g id="edge10" class="edge">
<title>Node8&#45;&gt;Node11</title>
<path fill="none" stroke="midnightblue" d="M340.73,-168.08C340.73,-161.01 340.73,-150.86 340.73,-141.99"/>
<polygon fill="midnightblue" stroke="midnightblue" points="344.23,-141.75 340.73,-131.75 337.23,-141.75 344.23,-141.75"/>
</g>
<!-- Node12 -->
<g id="node12" class="node">
<title>Node12</title>
<g id="a_node12"><a xlink:title=" ">
<polygon fill="none" stroke="#bfbfbf" points="399.23,-112.5 399.23,-131.5 464.23,-131.5 464.23,-112.5 399.23,-112.5"/>
<text text-anchor="middle" x="431.73" y="-119.5" font-family="Helvetica,sans-Serif" font-size="10.00">TimeLib.h</text>
</a>
</g>
</g>
<!-- Node8&#45;&gt;Node12 -->
<g id="edge11" class="edge">
<title>Node8&#45;&gt;Node12</title>
<path fill="none" stroke="midnightblue" d="M355.35,-168.32C369.68,-159.82 391.75,-146.73 408.48,-136.8"/>
<polygon fill="midnightblue" stroke="midnightblue" points="410.33,-139.77 417.15,-131.65 406.76,-133.75 410.33,-139.77"/>
</g>
<!-- Node13 -->
<g id="node13" class="node">
<title>Node13</title>
<g id="a_node13"><a xlink:title=" ">
<polygon fill="none" stroke="#bfbfbf" points="482.23,-112.5 482.23,-131.5 587.23,-131.5 587.23,-112.5 482.23,-112.5"/>
<text text-anchor="middle" x="534.73" y="-119.5" font-family="Helvetica,sans-Serif" font-size="10.00">Adafruit_INA219.h</text>
</a>
</g>
</g>
<!-- Node8&#45;&gt;Node13 -->
<g id="edge12" class="edge">
<title>Node8&#45;&gt;Node13</title>
<path fill="none" stroke="midnightblue" d="M371.47,-168.44C404.68,-159.2 457.72,-144.44 494.29,-134.26"/>
<polygon fill="midnightblue" stroke="midnightblue" points="495.44,-137.57 504.14,-131.52 493.56,-130.83 495.44,-137.57"/>
</g>
<!-- Node14 -->
<g id="node14" class="node">
<title>Node14</title>
<g id="a_node14"><a xlink:title=" ">
<polygon fill="none" stroke="#bfbfbf" points="605.73,-112.5 605.73,-131.5 723.73,-131.5 723.73,-112.5 605.73,-112.5"/>
<text text-anchor="middle" x="664.73" y="-119.5" font-family="Helvetica,sans-Serif" font-size="10.00">DallasTemperature.h</text>
</a>
</g>
</g>
<!-- Node8&#45;&gt;Node14 -->
<g id="edge14" class="edge">
<title>Node8&#45;&gt;Node14</title>
<path fill="none" stroke="midnightblue" d="M372.39,-171.72C425.78,-162.83 534.61,-144.69 603.38,-133.23"/>
<polygon fill="midnightblue" stroke="midnightblue" points="604.35,-136.61 613.64,-131.52 603.2,-129.71 604.35,-136.61"/>
</g>
<!-- Node15 -->
<g id="node15" class="node">
<title>Node15</title>
<g id="a_node15"><a xlink:href="lora_8h.html" target="_top" xlink:title=" ">
<polygon fill="none" stroke="black" points="95.73,-112.5 95.73,-131.5 139.73,-131.5 139.73,-112.5 95.73,-112.5"/>
<text text-anchor="middle" x="117.73" y="-119.5" font-family="Helvetica,sans-Serif" font-size="10.00">lora.h</text>
</a>
</g>
</g>
<!-- Node8&#45;&gt;Node15 -->
<g id="edge17" class="edge">
<title>Node8&#45;&gt;Node15</title>
<path fill="none" stroke="midnightblue" d="M309.01,-170.1C272.78,-162.1 211.5,-148.22 149.93,-132.22"/>
<polygon fill="midnightblue" stroke="midnightblue" points="150.61,-128.78 140.04,-129.63 148.83,-135.55 150.61,-128.78"/>
</g>
<!-- Node15&#45;&gt;Node4 -->
<g id="edge20" class="edge">
<title>Node15&#45;&gt;Node4</title>
<path fill="none" stroke="midnightblue" d="M103.27,-112.32C89.23,-103.9 67.68,-90.97 51.19,-81.07"/>
<polygon fill="midnightblue" stroke="midnightblue" points="52.53,-77.8 42.16,-75.65 48.93,-83.8 52.53,-77.8"/>
</g>
<!-- Node15&#45;&gt;Node5 -->
<g id="edge21" class="edge">
<title>Node15&#45;&gt;Node5</title>
<path fill="none" stroke="midnightblue" d="M132.84,-112.32C147.64,-103.82 170.43,-90.73 187.71,-80.8"/>
<polygon fill="midnightblue" stroke="midnightblue" points="189.74,-83.67 196.67,-75.65 186.25,-77.6 189.74,-83.67"/>
</g>
<!-- Node15&#45;&gt;Node6 -->
<g id="edge18" class="edge">
<title>Node15&#45;&gt;Node6</title>
<path fill="none" stroke="midnightblue" d="M124.64,-112.37C139.22,-94.14 173.39,-51.43 192.39,-27.68"/>
<polygon fill="midnightblue" stroke="midnightblue" points="195.35,-29.59 198.86,-19.59 189.88,-25.21 195.35,-29.59"/>
</g>
<!-- Node15&#45;&gt;Node7 -->
<g id="edge19" class="edge">
<title>Node15&#45;&gt;Node7</title>
<path fill="none" stroke="midnightblue" d="M118.6,-112.37C120.37,-94.62 124.47,-53.67 126.87,-29.6"/>
<polygon fill="midnightblue" stroke="midnightblue" points="130.36,-29.89 127.87,-19.59 123.4,-29.19 130.36,-29.89"/>
</g>
</g>
</svg>
