<?xml version="1.0" encoding="UTF-8" standalone="no"?>
<!DOCTYPE svg PUBLIC "-//W3C//DTD SVG 1.1//EN"
 "http://www.w3.org/Graphics/SVG/1.1/DTD/svg11.dtd">
<!-- Generated by graphviz version 2.43.0 (0)
 -->
<!-- Title: firmware/static&#45;weighstation/main/memory.cpp Pages: 1 -->
<svg width="865pt" height="313pt"
 viewBox="0.00 0.00 865.19 313.00" xmlns="http://www.w3.org/2000/svg" xmlns:xlink="http://www.w3.org/1999/xlink">
<g id="graph0" class="graph" transform="scale(1 1) rotate(0) translate(4 309)">
<title>firmware/static&#45;weighstation/main/memory.cpp</title>
<!-- Node1 -->
<g id="node1" class="node">
<title>Node1</title>
<g id="a_node1"><a xlink:title=" ">
<polygon fill="#999999" stroke="#666666" points="419.19,-305 262.19,-305 262.19,-275 419.19,-275 419.19,-305"/>
<text text-anchor="start" x="270.19" y="-293" font-family="Helvetica,sans-Serif" font-size="10.00">firmware/static&#45;weighstation</text>
<text text-anchor="middle" x="340.69" y="-282" font-family="Helvetica,sans-Serif" font-size="10.00">/main/memory.cpp</text>
</a>
</g>
</g>
<!-- Node2 -->
<g id="node2" class="node">
<title>Node2</title>
<g id="a_node2"><a xlink:href="memory_8h.html" target="_top" xlink:title=" ">
<polygon fill="white" stroke="#666666" points="373.19,-239 308.19,-239 308.19,-220 373.19,-220 373.19,-239"/>
<text text-anchor="middle" x="340.69" y="-227" font-family="Helvetica,sans-Serif" font-size="10.00">memory.h</text>
</a>
</g>
</g>
<!-- Node1&#45;&gt;Node2 -->
<g id="edge1" class="edge">
<title>Node1&#45;&gt;Node2</title>
<path fill="none" stroke="#63b8ff" d="M340.69,-274.84C340.69,-267.21 340.69,-257.7 340.69,-249.45"/>
<polygon fill="#63b8ff" stroke="#63b8ff" points="344.19,-249.27 340.69,-239.27 337.19,-249.27 344.19,-249.27"/>
</g>
<!-- Node3 -->
<g id="node3" class="node">
<title>Node3</title>
<g id="a_node3"><a xlink:title=" ">
<polygon fill="#e0e0e0" stroke="#999999" points="77.19,-129 14.19,-129 14.19,-110 77.19,-110 77.19,-129"/>
<text text-anchor="middle" x="45.69" y="-117" font-family="Helvetica,sans-Serif" font-size="10.00">Arduino.h</text>
</a>
</g>
</g>
<!-- Node2&#45;&gt;Node3 -->
<g id="edge2" class="edge">
<title>Node2&#45;&gt;Node3</title>
<path fill="none" stroke="#63b8ff" d="M317.05,-219.84C264.7,-200.68 138.91,-154.63 78.78,-132.62"/>
<polygon fill="#63b8ff" stroke="#63b8ff" points="79.63,-129.2 69.03,-129.05 77.22,-135.77 79.63,-129.2"/>
</g>
<!-- Node4 -->
<g id="node4" class="node">
<title>Node4</title>
<g id="a_node4"><a xlink:title=" ">
<polygon fill="#e0e0e0" stroke="#999999" points="857.19,-184 818.19,-184 818.19,-165 857.19,-165 857.19,-184"/>
<text text-anchor="middle" x="837.69" y="-172" font-family="Helvetica,sans-Serif" font-size="10.00">SD.h</text>
</a>
</g>
</g>
<!-- Node2&#45;&gt;Node4 -->
<g id="edge3" class="edge">
<title>Node2&#45;&gt;Node4</title>
<path fill="none" stroke="#63b8ff" d="M373.47,-227.03C449.53,-223.26 643.73,-211.52 803.69,-184 805.15,-183.75 806.64,-183.47 808.14,-183.17"/>
<polygon fill="#63b8ff" stroke="#63b8ff" points="809.03,-186.55 818.02,-180.95 807.49,-179.72 809.03,-186.55"/>
</g>
<!-- Node5 -->
<g id="node5" class="node">
<title>Node5</title>
<g id="a_node5"><a xlink:title=" ">
<polygon fill="#e0e0e0" stroke="#999999" points="48.19,-74 7.19,-74 7.19,-55 48.19,-55 48.19,-74"/>
<text text-anchor="middle" x="27.69" y="-62" font-family="Helvetica,sans-Serif" font-size="10.00">SPI.h</text>
</a>
</g>
</g>
<!-- Node2&#45;&gt;Node5 -->
<g id="edge4" class="edge">
<title>Node2&#45;&gt;Node5</title>
<path fill="none" stroke="#63b8ff" d="M308.1,-223.9C230.95,-212.28 40.88,-179.03 4.69,-129 -5.57,-114.82 3.96,-95.58 13.68,-82.01"/>
<polygon fill="#63b8ff" stroke="#63b8ff" points="16.52,-84.06 19.9,-74.02 11,-79.76 16.52,-84.06"/>
</g>
<!-- Node6 -->
<g id="node6" class="node">
<title>Node6</title>
<g id="a_node6"><a xlink:href="config_8h.html" target="_top" xlink:title=" ">
<polygon fill="white" stroke="#666666" points="239.19,-74 184.19,-74 184.19,-55 239.19,-55 239.19,-74"/>
<text text-anchor="middle" x="211.69" y="-62" font-family="Helvetica,sans-Serif" font-size="10.00">config.h</text>
</a>
</g>
</g>
<!-- Node2&#45;&gt;Node6 -->
<g id="edge5" class="edge">
<title>Node2&#45;&gt;Node6</title>
<path fill="none" stroke="#63b8ff" d="M373.31,-224.81C479.2,-212.21 803.46,-168.4 749.69,-110 715.91,-73.31 366.36,-66.87 249.5,-65.74"/>
<polygon fill="#63b8ff" stroke="#63b8ff" points="249.29,-62.24 239.26,-65.65 249.22,-69.24 249.29,-62.24"/>
</g>
<!-- Node9 -->
<g id="node9" class="node">
<title>Node9</title>
<g id="a_node9"><a xlink:href="sensors_8h.html" target="_top" xlink:title=" ">
<polygon fill="white" stroke="#666666" points="372.19,-184 309.19,-184 309.19,-165 372.19,-165 372.19,-184"/>
<text text-anchor="middle" x="340.69" y="-172" font-family="Helvetica,sans-Serif" font-size="10.00">sensors.h</text>
</a>
</g>
</g>
<!-- Node2&#45;&gt;Node9 -->
<g id="edge8" class="edge">
<title>Node2&#45;&gt;Node9</title>
<path fill="none" stroke="#63b8ff" d="M335.52,-219.75C334.03,-212.8 333.59,-202.85 334.21,-194.13"/>
<polygon fill="#63b8ff" stroke="#63b8ff" points="337.7,-194.47 335.56,-184.09 330.76,-193.53 337.7,-194.47"/>
</g>
<!-- Node7 -->
<g id="node7" class="node">
<title>Node7</title>
<g id="a_node7"><a xlink:title=" ">
<polygon fill="#e0e0e0" stroke="#999999" points="229.19,-19 182.19,-19 182.19,0 229.19,0 229.19,-19"/>
<text text-anchor="middle" x="205.69" y="-7" font-family="Helvetica,sans-Serif" font-size="10.00">lmic.h</text>
</a>
</g>
</g>
<!-- Node6&#45;&gt;Node7 -->
<g id="edge6" class="edge">
<title>Node6&#45;&gt;Node7</title>
<path fill="none" stroke="#63b8ff" d="M210.7,-54.75C209.91,-47.8 208.78,-37.85 207.8,-29.13"/>
<polygon fill="#63b8ff" stroke="#63b8ff" points="211.26,-28.63 206.66,-19.09 204.31,-29.42 211.26,-28.63"/>
</g>
<!-- Node8 -->
<g id="node8" class="node">
<title>Node8</title>
<g id="a_node8"><a xlink:title=" ">
<polygon fill="#e0e0e0" stroke="#999999" points="158.19,-19 99.19,-19 99.19,0 158.19,0 158.19,-19"/>
<text text-anchor="middle" x="128.69" y="-7" font-family="Helvetica,sans-Serif" font-size="10.00">hal/hal.h</text>
</a>
</g>
</g>
<!-- Node6&#45;&gt;Node8 -->
<g id="edge7" class="edge">
<title>Node6&#45;&gt;Node8</title>
<path fill="none" stroke="#63b8ff" d="M198.35,-54.98C185.6,-46.84 166.14,-34.41 151.02,-24.76"/>
<polygon fill="#63b8ff" stroke="#63b8ff" points="152.58,-21.6 142.27,-19.17 148.81,-27.5 152.58,-21.6"/>
</g>
<!-- Node9&#45;&gt;Node2 -->
<g id="edge17" class="edge">
<title>Node9&#45;&gt;Node2</title>
<path fill="none" stroke="#63b8ff" d="M345.82,-184.09C347.33,-190.99 347.78,-200.93 347.18,-209.66"/>
<polygon fill="#63b8ff" stroke="#63b8ff" points="343.69,-209.38 345.86,-219.75 350.63,-210.29 343.69,-209.38"/>
</g>
<!-- Node9&#45;&gt;Node3 -->
<g id="edge14" class="edge">
<title>Node9&#45;&gt;Node3</title>
<path fill="none" stroke="#63b8ff" d="M308.95,-168.26C262.6,-160.55 173.43,-145.44 87.39,-129.08"/>
<polygon fill="#63b8ff" stroke="#63b8ff" points="87.93,-125.62 77.45,-127.19 86.62,-132.5 87.93,-125.62"/>
</g>
<!-- Node9&#45;&gt;Node6 -->
<g id="edge16" class="edge">
<title>Node9&#45;&gt;Node6</title>
<path fill="none" stroke="#63b8ff" d="M372.2,-173.33C473.7,-172.24 782.7,-164.46 732.69,-110 700.13,-74.54 363.8,-67.29 249.48,-65.85"/>
<polygon fill="#63b8ff" stroke="#63b8ff" points="249.48,-62.35 239.44,-65.73 249.4,-69.35 249.48,-62.35"/>
</g>
<!-- Node10 -->
<g id="node10" class="node">
<title>Node10</title>
<g id="a_node10"><a xlink:title=" ">
<polygon fill="#e0e0e0" stroke="#999999" points="205.69,-129 157.69,-129 157.69,-110 205.69,-110 205.69,-129"/>
<text text-anchor="middle" x="181.69" y="-117" font-family="Helvetica,sans-Serif" font-size="10.00">Wire.h</text>
</a>
</g>
</g>
<!-- Node9&#45;&gt;Node10 -->
<g id="edge9" class="edge">
<title>Node9&#45;&gt;Node10</title>
<path fill="none" stroke="#63b8ff" d="M315.14,-164.98C288.09,-155.97 245.26,-141.69 215.44,-131.75"/>
<polygon fill="#63b8ff" stroke="#63b8ff" points="216.46,-128.4 205.87,-128.56 214.25,-135.04 216.46,-128.4"/>
</g>
<!-- Node11 -->
<g id="node11" class="node">
<title>Node11</title>
<g id="a_node11"><a xlink:title=" ">
<polygon fill="#e0e0e0" stroke="#999999" points="281.69,-129 223.69,-129 223.69,-110 281.69,-110 281.69,-129"/>
<text text-anchor="middle" x="252.69" y="-117" font-family="Helvetica,sans-Serif" font-size="10.00">HX711.h</text>
</a>
</g>
</g>
<!-- Node9&#45;&gt;Node11 -->
<g id="edge10" class="edge">
<title>Node9&#45;&gt;Node11</title>
<path fill="none" stroke="#63b8ff" d="M326.55,-164.98C312.9,-156.77 292,-144.18 275.91,-134.49"/>
<polygon fill="#63b8ff" stroke="#63b8ff" points="277.46,-131.33 267.08,-129.17 273.85,-137.33 277.46,-131.33"/>
</g>
<!-- Node12 -->
<g id="node12" class="node">
<title>Node12</title>
<g id="a_node12"><a xlink:title=" ">
<polygon fill="#e0e0e0" stroke="#999999" points="381.19,-129 300.19,-129 300.19,-110 381.19,-110 381.19,-129"/>
<text text-anchor="middle" x="340.69" y="-117" font-family="Helvetica,sans-Serif" font-size="10.00">DS1307RTC.h</text>
</a>
</g>
</g>
<!-- Node9&#45;&gt;Node12 -->
<g id="edge11" class="edge">
<title>Node9&#45;&gt;Node12</title>
<path fill="none" stroke="#63b8ff" d="M340.69,-164.75C340.69,-157.8 340.69,-147.85 340.69,-139.13"/>
<polygon fill="#63b8ff" stroke="#63b8ff" points="344.19,-139.09 340.69,-129.09 337.19,-139.09 344.19,-139.09"/>
</g>
<!-- Node13 -->
<g id="node13" class="node">
<title>Node13</title>
<g id="a_node13"><a xlink:title=" ">
<polygon fill="#e0e0e0" stroke="#999999" points="464.19,-129 399.19,-129 399.19,-110 464.19,-110 464.19,-129"/>
<text text-anchor="middle" x="431.69" y="-117" font-family="Helvetica,sans-Serif" font-size="10.00">TimeLib.h</text>
</a>
</g>
</g>
<!-- Node9&#45;&gt;Node13 -->
<g id="edge12" class="edge">
<title>Node9&#45;&gt;Node13</title>
<path fill="none" stroke="#63b8ff" d="M355.31,-164.98C369.55,-156.69 391.44,-143.94 408.14,-134.22"/>
<polygon fill="#63b8ff" stroke="#63b8ff" points="409.92,-137.23 416.8,-129.17 406.4,-131.18 409.92,-137.23"/>
</g>
<!-- Node14 -->
<g id="node14" class="node">
<title>Node14</title>
<g id="a_node14"><a xlink:title=" ">
<polygon fill="#e0e0e0" stroke="#999999" points="587.19,-129 482.19,-129 482.19,-110 587.19,-110 587.19,-129"/>
<text text-anchor="middle" x="534.69" y="-117" font-family="Helvetica,sans-Serif" font-size="10.00">Adafruit_INA219.h</text>
</a>
</g>
</g>
<!-- Node9&#45;&gt;Node14 -->
<g id="edge13" class="edge">
<title>Node9&#45;&gt;Node14</title>
<path fill="none" stroke="#63b8ff" d="M371.86,-164.98C404.85,-155.97 457.08,-141.7 493.46,-131.76"/>
<polygon fill="#63b8ff" stroke="#63b8ff" points="494.55,-135.09 503.27,-129.08 492.71,-128.34 494.55,-135.09"/>
</g>
<!-- Node15 -->
<g id="node15" class="node">
<title>Node15</title>
<g id="a_node15"><a xlink:title=" ">
<polygon fill="#e0e0e0" stroke="#999999" points="723.69,-129 605.69,-129 605.69,-110 723.69,-110 723.69,-129"/>
<text text-anchor="middle" x="664.69" y="-117" font-family="Helvetica,sans-Serif" font-size="10.00">DallasTemperature.h</text>
</a>
</g>
</g>
<!-- Node9&#45;&gt;Node15 -->
<g id="edge15" class="edge">
<title>Node9&#45;&gt;Node15</title>
<path fill="none" stroke="#63b8ff" d="M372.35,-168.32C425.43,-159.64 533.33,-141.99 602.16,-130.73"/>
<polygon fill="#63b8ff" stroke="#63b8ff" points="603.13,-134.12 612.44,-129.05 602,-127.21 603.13,-134.12"/>
</g>
<!-- Node16 -->
<g id="node16" class="node">
<title>Node16</title>
<g id="a_node16"><a xlink:href="lora_8h.html" target="_top" xlink:title=" ">
<polygon fill="white" stroke="#666666" points="139.69,-129 95.69,-129 95.69,-110 139.69,-110 139.69,-129"/>
<text text-anchor="middle" x="117.69" y="-117" font-family="Helvetica,sans-Serif" font-size="10.00">lora.h</text>
</a>
</g>
</g>
<!-- Node9&#45;&gt;Node16 -->
<g id="edge18" class="edge">
<title>Node9&#45;&gt;Node16</title>
<path fill="none" stroke="#63b8ff" d="M309,-166.56C272.79,-158.55 211.54,-144.72 149.9,-129.23"/>
<polygon fill="#63b8ff" stroke="#63b8ff" points="150.56,-125.79 140.01,-126.74 148.85,-132.58 150.56,-125.79"/>
</g>
<!-- Node16&#45;&gt;Node5 -->
<g id="edge21" class="edge">
<title>Node16&#45;&gt;Node5</title>
<path fill="none" stroke="#63b8ff" d="M103.23,-109.98C89.27,-101.77 67.89,-89.18 51.44,-79.49"/>
<polygon fill="#63b8ff" stroke="#63b8ff" points="52.8,-76.23 42.41,-74.17 49.25,-82.26 52.8,-76.23"/>
</g>
<!-- Node16&#45;&gt;Node6 -->
<g id="edge22" class="edge">
<title>Node16&#45;&gt;Node6</title>
<path fill="none" stroke="#63b8ff" d="M132.79,-109.98C147.5,-101.69 170.11,-88.94 187.36,-79.22"/>
<polygon fill="#63b8ff" stroke="#63b8ff" points="189.32,-82.13 196.31,-74.17 185.88,-76.03 189.32,-82.13"/>
</g>
<!-- Node16&#45;&gt;Node7 -->
<g id="edge19" class="edge">
<title>Node16&#45;&gt;Node7</title>
<path fill="none" stroke="#63b8ff" d="M124.89,-109.66C139.6,-91.61 173.28,-50.28 192.18,-27.08"/>
<polygon fill="#63b8ff" stroke="#63b8ff" points="195.03,-29.12 198.63,-19.16 189.6,-24.7 195.03,-29.12"/>
</g>
<!-- Node16&#45;&gt;Node8 -->
<g id="edge20" class="edge">
<title>Node16&#45;&gt;Node8</title>
<path fill="none" stroke="#63b8ff" d="M118.59,-109.66C120.37,-92.17 124.38,-52.8 126.78,-29.27"/>
<polygon fill="#63b8ff" stroke="#63b8ff" points="130.28,-29.46 127.81,-19.16 123.31,-28.75 130.28,-29.46"/>
</g>
</g>
</svg>
