<?xml version="1.0" encoding="UTF-8" standalone="no"?>
<!DOCTYPE svg PUBLIC "-//W3C//DTD SVG 1.1//EN"
 "http://www.w3.org/Graphics/SVG/1.1/DTD/svg11.dtd">
<!-- Generated by graphviz version 2.43.0 (0)
 -->
<!-- Title: firmware/static&#45;weighstation/main/memory.h Pages: 1 -->
<svg width="865pt" height="258pt"
 viewBox="0.00 0.00 865.12 258.00" xmlns="http://www.w3.org/2000/svg" xmlns:xlink="http://www.w3.org/1999/xlink">
<g id="graph0" class="graph" transform="scale(1 1) rotate(0) translate(4 254)">
<title>firmware/static&#45;weighstation/main/memory.h</title>
<!-- Node1 -->
<g id="node1" class="node">
<title>Node1</title>
<g id="a_node1"><a xlink:title=" ">
<polygon fill="#999999" stroke="#666666" points="419.12,-250 262.12,-250 262.12,-220 419.12,-220 419.12,-250"/>
<text text-anchor="start" x="270.12" y="-238" font-family="Helvetica,sans-Serif" font-size="10.00">firmware/static&#45;weighstation</text>
<text text-anchor="middle" x="340.62" y="-227" font-family="Helvetica,sans-Serif" font-size="10.00">/main/memory.h</text>
</a>
</g>
</g>
<!-- Node2 -->
<g id="node2" class="node">
<title>Node2</title>
<g id="a_node2"><a xlink:title=" ">
<polygon fill="#e0e0e0" stroke="#999999" points="77.12,-129 14.12,-129 14.12,-110 77.12,-110 77.12,-129"/>
<text text-anchor="middle" x="45.62" y="-117" font-family="Helvetica,sans-Serif" font-size="10.00">Arduino.h</text>
</a>
</g>
</g>
<!-- Node1&#45;&gt;Node2 -->
<g id="edge1" class="edge">
<title>Node1&#45;&gt;Node2</title>
<path fill="none" stroke="#63b8ff" d="M304.15,-219.97C245.96,-197.58 133.03,-154.13 77.72,-132.85"/>
<polygon fill="#63b8ff" stroke="#63b8ff" points="78.68,-129.47 68.09,-129.14 76.17,-136 78.68,-129.47"/>
</g>
<!-- Node3 -->
<g id="node3" class="node">
<title>Node3</title>
<g id="a_node3"><a xlink:title=" ">
<polygon fill="#e0e0e0" stroke="#999999" points="857.12,-184 818.12,-184 818.12,-165 857.12,-165 857.12,-184"/>
<text text-anchor="middle" x="837.62" y="-172" font-family="Helvetica,sans-Serif" font-size="10.00">SD.h</text>
</a>
</g>
</g>
<!-- Node1&#45;&gt;Node3 -->
<g id="edge2" class="edge">
<title>Node1&#45;&gt;Node3</title>
<path fill="none" stroke="#63b8ff" d="M419.32,-228.81C511.82,-221.95 669.7,-207.85 803.62,-184 805.08,-183.74 806.57,-183.45 808.07,-183.14"/>
<polygon fill="#63b8ff" stroke="#63b8ff" points="808.97,-186.53 817.94,-180.91 807.42,-179.7 808.97,-186.53"/>
</g>
<!-- Node4 -->
<g id="node4" class="node">
<title>Node4</title>
<g id="a_node4"><a xlink:title=" ">
<polygon fill="#e0e0e0" stroke="#999999" points="48.12,-74 7.12,-74 7.12,-55 48.12,-55 48.12,-74"/>
<text text-anchor="middle" x="27.62" y="-62" font-family="Helvetica,sans-Serif" font-size="10.00">SPI.h</text>
</a>
</g>
</g>
<!-- Node1&#45;&gt;Node4 -->
<g id="edge3" class="edge">
<title>Node1&#45;&gt;Node4</title>
<path fill="none" stroke="#63b8ff" d="M261.75,-220.59C172.23,-203.54 34.67,-171.19 4.62,-129 -5.42,-114.9 3.77,-95.94 13.35,-82.42"/>
<polygon fill="#63b8ff" stroke="#63b8ff" points="16.18,-84.48 19.51,-74.42 10.63,-80.21 16.18,-84.48"/>
</g>
<!-- Node5 -->
<g id="node5" class="node">
<title>Node5</title>
<g id="a_node5"><a xlink:href="config_8h.html" target="_top" xlink:title=" ">
<polygon fill="white" stroke="#666666" points="239.12,-74 184.12,-74 184.12,-55 239.12,-55 239.12,-74"/>
<text text-anchor="middle" x="211.62" y="-62" font-family="Helvetica,sans-Serif" font-size="10.00">config.h</text>
</a>
</g>
</g>
<!-- Node1&#45;&gt;Node5 -->
<g id="edge4" class="edge">
<title>Node1&#45;&gt;Node5</title>
<path fill="none" stroke="#63b8ff" d="M419.24,-234.32C563.43,-232.42 846.87,-215.62 749.62,-110 715.84,-73.31 366.3,-66.87 249.44,-65.74"/>
<polygon fill="#63b8ff" stroke="#63b8ff" points="249.22,-62.24 239.19,-65.65 249.16,-69.24 249.22,-62.24"/>
</g>
<!-- Node8 -->
<g id="node8" class="node">
<title>Node8</title>
<g id="a_node8"><a xlink:href="sensors_8h.html" target="_top" xlink:title=" ">
<polygon fill="white" stroke="#666666" points="372.12,-184 309.12,-184 309.12,-165 372.12,-165 372.12,-184"/>
<text text-anchor="middle" x="340.62" y="-172" font-family="Helvetica,sans-Serif" font-size="10.00">sensors.h</text>
</a>
</g>
</g>
<!-- Node1&#45;&gt;Node8 -->
<g id="edge7" class="edge">
<title>Node1&#45;&gt;Node8</title>
<path fill="none" stroke="#63b8ff" d="M334.74,-219.84C333.77,-212.21 333.61,-202.7 334.26,-194.45"/>
<polygon fill="#63b8ff" stroke="#63b8ff" points="337.76,-194.65 335.64,-184.27 330.83,-193.71 337.76,-194.65"/>
</g>
<!-- Node6 -->
<g id="node6" class="node">
<title>Node6</title>
<g id="a_node6"><a xlink:title=" ">
<polygon fill="#e0e0e0" stroke="#999999" points="229.12,-19 182.12,-19 182.12,0 229.12,0 229.12,-19"/>
<text text-anchor="middle" x="205.62" y="-7" font-family="Helvetica,sans-Serif" font-size="10.00">lmic.h</text>
</a>
</g>
</g>
<!-- Node5&#45;&gt;Node6 -->
<g id="edge5" class="edge">
<title>Node5&#45;&gt;Node6</title>
<path fill="none" stroke="#63b8ff" d="M210.63,-54.75C209.84,-47.8 208.72,-37.85 207.73,-29.13"/>
<polygon fill="#63b8ff" stroke="#63b8ff" points="211.2,-28.63 206.59,-19.09 204.24,-29.42 211.2,-28.63"/>
</g>
<!-- Node7 -->
<g id="node7" class="node">
<title>Node7</title>
<g id="a_node7"><a xlink:title=" ">
<polygon fill="#e0e0e0" stroke="#999999" points="158.12,-19 99.12,-19 99.12,0 158.12,0 158.12,-19"/>
<text text-anchor="middle" x="128.62" y="-7" font-family="Helvetica,sans-Serif" font-size="10.00">hal/hal.h</text>
</a>
</g>
</g>
<!-- Node5&#45;&gt;Node7 -->
<g id="edge6" class="edge">
<title>Node5&#45;&gt;Node7</title>
<path fill="none" stroke="#63b8ff" d="M198.29,-54.98C185.53,-46.84 166.07,-34.41 150.95,-24.76"/>
<polygon fill="#63b8ff" stroke="#63b8ff" points="152.51,-21.6 142.2,-19.17 148.74,-27.5 152.51,-21.6"/>
</g>
<!-- Node8&#45;&gt;Node1 -->
<g id="edge16" class="edge">
<title>Node8&#45;&gt;Node1</title>
<path fill="none" stroke="#63b8ff" d="M345.61,-184.27C347.05,-191.03 347.6,-200.72 347.28,-209.75"/>
<polygon fill="#63b8ff" stroke="#63b8ff" points="343.78,-209.6 346.5,-219.84 350.76,-210.14 343.78,-209.6"/>
</g>
<!-- Node8&#45;&gt;Node2 -->
<g id="edge13" class="edge">
<title>Node8&#45;&gt;Node2</title>
<path fill="none" stroke="#63b8ff" d="M308.88,-168.26C262.53,-160.55 173.37,-145.44 87.32,-129.08"/>
<polygon fill="#63b8ff" stroke="#63b8ff" points="87.86,-125.62 77.39,-127.19 86.55,-132.5 87.86,-125.62"/>
</g>
<!-- Node8&#45;&gt;Node5 -->
<g id="edge15" class="edge">
<title>Node8&#45;&gt;Node5</title>
<path fill="none" stroke="#63b8ff" d="M372.13,-173.33C473.63,-172.24 782.63,-164.46 732.62,-110 700.06,-74.54 363.73,-67.29 249.41,-65.85"/>
<polygon fill="#63b8ff" stroke="#63b8ff" points="249.41,-62.35 239.37,-65.73 249.33,-69.35 249.41,-62.35"/>
</g>
<!-- Node9 -->
<g id="node9" class="node">
<title>Node9</title>
<g id="a_node9"><a xlink:title=" ">
<polygon fill="#e0e0e0" stroke="#999999" points="205.62,-129 157.62,-129 157.62,-110 205.62,-110 205.62,-129"/>
<text text-anchor="middle" x="181.62" y="-117" font-family="Helvetica,sans-Serif" font-size="10.00">Wire.h</text>
</a>
</g>
</g>
<!-- Node8&#45;&gt;Node9 -->
<g id="edge8" class="edge">
<title>Node8&#45;&gt;Node9</title>
<path fill="none" stroke="#63b8ff" d="M315.07,-164.98C288.02,-155.97 245.19,-141.69 215.37,-131.75"/>
<polygon fill="#63b8ff" stroke="#63b8ff" points="216.39,-128.4 205.8,-128.56 214.18,-135.04 216.39,-128.4"/>
</g>
<!-- Node10 -->
<g id="node10" class="node">
<title>Node10</title>
<g id="a_node10"><a xlink:title=" ">
<polygon fill="#e0e0e0" stroke="#999999" points="281.62,-129 223.62,-129 223.62,-110 281.62,-110 281.62,-129"/>
<text text-anchor="middle" x="252.62" y="-117" font-family="Helvetica,sans-Serif" font-size="10.00">HX711.h</text>
</a>
</g>
</g>
<!-- Node8&#45;&gt;Node10 -->
<g id="edge9" class="edge">
<title>Node8&#45;&gt;Node10</title>
<path fill="none" stroke="#63b8ff" d="M326.48,-164.98C312.84,-156.77 291.93,-144.18 275.84,-134.49"/>
<polygon fill="#63b8ff" stroke="#63b8ff" points="277.39,-131.33 267.02,-129.17 273.78,-137.33 277.39,-131.33"/>
</g>
<!-- Node11 -->
<g id="node11" class="node">
<title>Node11</title>
<g id="a_node11"><a xlink:title=" ">
<polygon fill="#e0e0e0" stroke="#999999" points="381.12,-129 300.12,-129 300.12,-110 381.12,-110 381.12,-129"/>
<text text-anchor="middle" x="340.62" y="-117" font-family="Helvetica,sans-Serif" font-size="10.00">DS1307RTC.h</text>
</a>
</g>
</g>
<!-- Node8&#45;&gt;Node11 -->
<g id="edge10" class="edge">
<title>Node8&#45;&gt;Node11</title>
<path fill="none" stroke="#63b8ff" d="M340.62,-164.75C340.62,-157.8 340.62,-147.85 340.62,-139.13"/>
<polygon fill="#63b8ff" stroke="#63b8ff" points="344.12,-139.09 340.62,-129.09 337.12,-139.09 344.12,-139.09"/>
</g>
<!-- Node12 -->
<g id="node12" class="node">
<title>Node12</title>
<g id="a_node12"><a xlink:title=" ">
<polygon fill="#e0e0e0" stroke="#999999" points="464.12,-129 399.12,-129 399.12,-110 464.12,-110 464.12,-129"/>
<text text-anchor="middle" x="431.62" y="-117" font-family="Helvetica,sans-Serif" font-size="10.00">TimeLib.h</text>
</a>
</g>
</g>
<!-- Node8&#45;&gt;Node12 -->
<g id="edge11" class="edge">
<title>Node8&#45;&gt;Node12</title>
<path fill="none" stroke="#63b8ff" d="M355.24,-164.98C369.49,-156.69 391.37,-143.94 408.07,-134.22"/>
<polygon fill="#63b8ff" stroke="#63b8ff" points="409.85,-137.23 416.73,-129.17 406.33,-131.18 409.85,-137.23"/>
</g>
<!-- Node13 -->
<g id="node13" class="node">
<title>Node13</title>
<g id="a_node13"><a xlink:title=" ">
<polygon fill="#e0e0e0" stroke="#999999" points="587.12,-129 482.12,-129 482.12,-110 587.12,-110 587.12,-129"/>
<text text-anchor="middle" x="534.62" y="-117" font-family="Helvetica,sans-Serif" font-size="10.00">Adafruit_INA219.h</text>
</a>
</g>
</g>
<!-- Node8&#45;&gt;Node13 -->
<g id="edge12" class="edge">
<title>Node8&#45;&gt;Node13</title>
<path fill="none" stroke="#63b8ff" d="M371.79,-164.98C404.78,-155.97 457.02,-141.7 493.4,-131.76"/>
<polygon fill="#63b8ff" stroke="#63b8ff" points="494.48,-135.09 503.21,-129.08 492.64,-128.34 494.48,-135.09"/>
</g>
<!-- Node14 -->
<g id="node14" class="node">
<title>Node14</title>
<g id="a_node14"><a xlink:title=" ">
<polygon fill="#e0e0e0" stroke="#999999" points="723.62,-129 605.62,-129 605.62,-110 723.62,-110 723.62,-129"/>
<text text-anchor="middle" x="664.62" y="-117" font-family="Helvetica,sans-Serif" font-size="10.00">DallasTemperature.h</text>
</a>
</g>
</g>
<!-- Node8&#45;&gt;Node14 -->
<g id="edge14" class="edge">
<title>Node8&#45;&gt;Node14</title>
<path fill="none" stroke="#63b8ff" d="M372.28,-168.32C425.36,-159.64 533.27,-141.99 602.09,-130.73"/>
<polygon fill="#63b8ff" stroke="#63b8ff" points="603.06,-134.12 612.37,-129.05 601.93,-127.21 603.06,-134.12"/>
</g>
<!-- Node15 -->
<g id="node15" class="node">
<title>Node15</title>
<g id="a_node15"><a xlink:href="lora_8h.html" target="_top" xlink:title=" ">
<polygon fill="white" stroke="#666666" points="139.62,-129 95.62,-129 95.62,-110 139.62,-110 139.62,-129"/>
<text text-anchor="middle" x="117.62" y="-117" font-family="Helvetica,sans-Serif" font-size="10.00">lora.h</text>
</a>
</g>
</g>
<!-- Node8&#45;&gt;Node15 -->
<g id="edge17" class="edge">
<title>Node8&#45;&gt;Node15</title>
<path fill="none" stroke="#63b8ff" d="M308.93,-166.56C272.73,-158.55 211.47,-144.72 149.84,-129.23"/>
<polygon fill="#63b8ff" stroke="#63b8ff" points="150.5,-125.79 139.94,-126.74 148.78,-132.58 150.5,-125.79"/>
</g>
<!-- Node15&#45;&gt;Node4 -->
<g id="edge20" class="edge">
<title>Node15&#45;&gt;Node4</title>
<path fill="none" stroke="#63b8ff" d="M103.16,-109.98C89.2,-101.77 67.83,-89.18 51.37,-79.49"/>
<polygon fill="#63b8ff" stroke="#63b8ff" points="52.74,-76.23 42.34,-74.17 49.19,-82.26 52.74,-76.23"/>
</g>
<!-- Node15&#45;&gt;Node5 -->
<g id="edge21" class="edge">
<title>Node15&#45;&gt;Node5</title>
<path fill="none" stroke="#63b8ff" d="M132.72,-109.98C147.44,-101.69 170.05,-88.94 187.3,-79.22"/>
<polygon fill="#63b8ff" stroke="#63b8ff" points="189.25,-82.13 196.24,-74.17 185.81,-76.03 189.25,-82.13"/>
</g>
<!-- Node15&#45;&gt;Node6 -->
<g id="edge18" class="edge">
<title>Node15&#45;&gt;Node6</title>
<path fill="none" stroke="#63b8ff" d="M124.82,-109.66C139.53,-91.61 173.21,-50.28 192.11,-27.08"/>
<polygon fill="#63b8ff" stroke="#63b8ff" points="194.96,-29.12 198.57,-19.16 189.54,-24.7 194.96,-29.12"/>
</g>
<!-- Node15&#45;&gt;Node7 -->
<g id="edge19" class="edge">
<title>Node15&#45;&gt;Node7</title>
<path fill="none" stroke="#63b8ff" d="M118.52,-109.66C120.3,-92.17 124.31,-52.8 126.71,-29.27"/>
<polygon fill="#63b8ff" stroke="#63b8ff" points="130.21,-29.46 127.74,-19.16 123.24,-28.75 130.21,-29.46"/>
</g>
</g>
</svg>
