<?xml version="1.0" encoding="UTF-8" standalone="no"?>
<!DOCTYPE svg PUBLIC "-//W3C//DTD SVG 1.1//EN"
 "http://www.w3.org/Graphics/SVG/1.1/DTD/svg11.dtd">
<!-- Generated by graphviz version 2.50.0 (20211204.2007)
 -->
<!-- Title: firmware/static&#45;weighstation/main/memory.cpp Pages: 1 -->
<svg width="688pt" height="263pt"
 viewBox="0.00 0.00 687.50 263.00" xmlns="http://www.w3.org/2000/svg" xmlns:xlink="http://www.w3.org/1999/xlink">
<g id="graph0" class="graph" transform="scale(1 1) rotate(0) translate(4 259)">
<title>firmware/static&#45;weighstation/main/memory.cpp</title>
<!-- Node1 -->
<g id="node1" class="node">
<title>Node1</title>
<g id="a_node1"><a xlink:title=" ">
<polygon fill="#bfbfbf" stroke="black" points="132.5,-224.5 132.5,-254.5 271.5,-254.5 271.5,-224.5 132.5,-224.5"/>
<text text-anchor="start" x="140.5" y="-242.5" font-family="Helvetica,sans-Serif" font-size="10.00">firmware/static&#45;weighstation</text>
<text text-anchor="middle" x="202" y="-231.5" font-family="Helvetica,sans-Serif" font-size="10.00">/main/memory.cpp</text>
</a>
</g>
</g>
<!-- Node2 -->
<g id="node2" class="node">
<title>Node2</title>
<g id="a_node2"><a xlink:href="memory_8h.html" target="_top" xlink:title=" ">
<polygon fill="none" stroke="black" points="172.5,-168.5 172.5,-187.5 231.5,-187.5 231.5,-168.5 172.5,-168.5"/>
<text text-anchor="middle" x="202" y="-175.5" font-family="Helvetica,sans-Serif" font-size="10.00">memory.h</text>
</a>
</g>
</g>
<!-- Node1&#45;&gt;Node2 -->
<g id="edge1" class="edge">
<title>Node1&#45;&gt;Node2</title>
<path fill="none" stroke="midnightblue" d="M202,-224.4C202,-216.47 202,-206.46 202,-197.86"/>
<polygon fill="midnightblue" stroke="midnightblue" points="205.5,-197.66 202,-187.66 198.5,-197.66 205.5,-197.66"/>
</g>
<!-- Node3 -->
<g id="node3" class="node">
<title>Node3</title>
<g id="a_node3"><a xlink:title=" ">
<polygon fill="none" stroke="#bfbfbf" points="0,-56.5 0,-75.5 58,-75.5 58,-56.5 0,-56.5"/>
<text text-anchor="middle" x="29" y="-63.5" font-family="Helvetica,sans-Serif" font-size="10.00">Arduino.h</text>
</a>
</g>
</g>
<!-- Node2&#45;&gt;Node3 -->
<g id="edge2" class="edge">
<title>Node2&#45;&gt;Node3</title>
<path fill="none" stroke="midnightblue" d="M188.42,-168.37C158.74,-149.49 87.8,-104.38 51.39,-81.24"/>
<polygon fill="midnightblue" stroke="midnightblue" points="52.83,-78 42.51,-75.59 49.07,-83.91 52.83,-78"/>
</g>
<!-- Node4 -->
<g id="node4" class="node">
<title>Node4</title>
<g id="a_node4"><a xlink:title=" ">
<polygon fill="none" stroke="#bfbfbf" points="249.5,-112.5 249.5,-131.5 288.5,-131.5 288.5,-112.5 249.5,-112.5"/>
<text text-anchor="middle" x="269" y="-119.5" font-family="Helvetica,sans-Serif" font-size="10.00">SD.h</text>
</a>
</g>
</g>
<!-- Node2&#45;&gt;Node4 -->
<g id="edge3" class="edge">
<title>Node2&#45;&gt;Node4</title>
<path fill="none" stroke="midnightblue" d="M212.76,-168.32C222.77,-160.26 237.89,-148.08 249.93,-138.37"/>
<polygon fill="midnightblue" stroke="midnightblue" points="252.45,-140.83 258.04,-131.83 248.06,-135.38 252.45,-140.83"/>
</g>
<!-- Node5 -->
<g id="node5" class="node">
<title>Node5</title>
<g id="a_node5"><a xlink:title=" ">
<polygon fill="none" stroke="#bfbfbf" points="306.5,-112.5 306.5,-131.5 347.5,-131.5 347.5,-112.5 306.5,-112.5"/>
<text text-anchor="middle" x="327" y="-119.5" font-family="Helvetica,sans-Serif" font-size="10.00">SPI.h</text>
</a>
</g>
</g>
<!-- Node2&#45;&gt;Node5 -->
<g id="edge4" class="edge">
<title>Node2&#45;&gt;Node5</title>
<path fill="none" stroke="midnightblue" d="M221.81,-168.44C242.29,-159.6 274.48,-145.69 297.86,-135.59"/>
<polygon fill="midnightblue" stroke="midnightblue" points="299.49,-138.7 307.29,-131.52 296.72,-132.27 299.49,-138.7"/>
</g>
<!-- Node6 -->
<g id="node6" class="node">
<title>Node6</title>
<g id="a_node6"><a xlink:href="config_8h.html" target="_top" xlink:title=" ">
<polygon fill="none" stroke="black" points="76.5,-56.5 76.5,-75.5 127.5,-75.5 127.5,-56.5 76.5,-56.5"/>
<text text-anchor="middle" x="102" y="-63.5" font-family="Helvetica,sans-Serif" font-size="10.00">config.h</text>
</a>
</g>
</g>
<!-- Node2&#45;&gt;Node6 -->
<g id="edge5" class="edge">
<title>Node2&#45;&gt;Node6</title>
<path fill="none" stroke="midnightblue" d="M194.15,-168.37C177.43,-149.97 138.06,-106.67 116.59,-83.05"/>
<polygon fill="midnightblue" stroke="midnightblue" points="119.13,-80.64 109.81,-75.59 113.95,-85.35 119.13,-80.64"/>
</g>
<!-- Node9 -->
<g id="node9" class="node">
<title>Node9</title>
<g id="a_node9"><a xlink:href="sensors_8h.html" target="_top" xlink:title=" ">
<polygon fill="none" stroke="black" points="172.5,-112.5 172.5,-131.5 231.5,-131.5 231.5,-112.5 172.5,-112.5"/>
<text text-anchor="middle" x="202" y="-119.5" font-family="Helvetica,sans-Serif" font-size="10.00">sensors.h</text>
</a>
</g>
</g>
<!-- Node2&#45;&gt;Node9 -->
<g id="edge8" class="edge">
<title>Node2&#45;&gt;Node9</title>
<path fill="none" stroke="midnightblue" d="M196.83,-168.08C195.32,-160.93 194.89,-150.64 195.54,-141.69"/>
<polygon fill="midnightblue" stroke="midnightblue" points="199.02,-142.13 196.87,-131.75 192.08,-141.2 199.02,-142.13"/>
</g>
<!-- Node7 -->
<g id="node7" class="node">
<title>Node7</title>
<g id="a_node7"><a xlink:title=" ">
<polygon fill="none" stroke="#bfbfbf" points="47.5,-0.5 47.5,-19.5 90.5,-19.5 90.5,-0.5 47.5,-0.5"/>
<text text-anchor="middle" x="69" y="-7.5" font-family="Helvetica,sans-Serif" font-size="10.00">lmic.h</text>
</a>
</g>
</g>
<!-- Node6&#45;&gt;Node7 -->
<g id="edge6" class="edge">
<title>Node6&#45;&gt;Node7</title>
<path fill="none" stroke="midnightblue" d="M96.55,-56.08C91.99,-48.61 85.33,-37.72 79.71,-28.52"/>
<polygon fill="midnightblue" stroke="midnightblue" points="82.55,-26.46 74.35,-19.75 76.58,-30.11 82.55,-26.46"/>
</g>
<!-- Node8 -->
<g id="node8" class="node">
<title>Node8</title>
<g id="a_node8"><a xlink:title=" ">
<polygon fill="none" stroke="#bfbfbf" points="108.5,-0.5 108.5,-19.5 161.5,-19.5 161.5,-0.5 108.5,-0.5"/>
<text text-anchor="middle" x="135" y="-7.5" font-family="Helvetica,sans-Serif" font-size="10.00">hal/hal.h</text>
</a>
</g>
</g>
<!-- Node6&#45;&gt;Node8 -->
<g id="edge7" class="edge">
<title>Node6&#45;&gt;Node8</title>
<path fill="none" stroke="midnightblue" d="M107.45,-56.08C112.01,-48.61 118.67,-37.72 124.29,-28.52"/>
<polygon fill="midnightblue" stroke="midnightblue" points="127.42,-30.11 129.65,-19.75 121.45,-26.46 127.42,-30.11"/>
</g>
<!-- Node9&#45;&gt;Node2 -->
<g id="edge17" class="edge">
<title>Node9&#45;&gt;Node2</title>
<path fill="none" stroke="midnightblue" d="M207.13,-131.75C208.66,-138.86 209.1,-149.14 208.47,-158.1"/>
<polygon fill="midnightblue" stroke="midnightblue" points="204.99,-157.71 207.17,-168.08 211.93,-158.62 204.99,-157.71"/>
</g>
<!-- Node9&#45;&gt;Node3 -->
<g id="edge14" class="edge">
<title>Node9&#45;&gt;Node3</title>
<path fill="none" stroke="midnightblue" d="M174.59,-112.44C145.23,-103.28 98.48,-88.69 65.9,-78.52"/>
<polygon fill="midnightblue" stroke="midnightblue" points="66.87,-75.16 56.28,-75.52 64.79,-81.84 66.87,-75.16"/>
</g>
<!-- Node9&#45;&gt;Node6 -->
<g id="edge16" class="edge">
<title>Node9&#45;&gt;Node6</title>
<path fill="none" stroke="midnightblue" d="M185.93,-112.32C170.04,-103.74 145.49,-90.49 127.04,-80.52"/>
<polygon fill="midnightblue" stroke="midnightblue" points="128.49,-77.33 118.03,-75.65 125.16,-83.49 128.49,-77.33"/>
</g>
<!-- Node10 -->
<g id="node10" class="node">
<title>Node10</title>
<g id="a_node10"><a xlink:title=" ">
<polygon fill="none" stroke="#bfbfbf" points="145.5,-56.5 145.5,-75.5 190.5,-75.5 190.5,-56.5 145.5,-56.5"/>
<text text-anchor="middle" x="168" y="-63.5" font-family="Helvetica,sans-Serif" font-size="10.00">Wire.h</text>
</a>
</g>
</g>
<!-- Node9&#45;&gt;Node10 -->
<g id="edge9" class="edge">
<title>Node9&#45;&gt;Node10</title>
<path fill="none" stroke="midnightblue" d="M196.39,-112.08C191.63,-104.53 184.68,-93.49 178.85,-84.23"/>
<polygon fill="midnightblue" stroke="midnightblue" points="181.8,-82.35 173.51,-75.75 175.88,-86.08 181.8,-82.35"/>
</g>
<!-- Node11 -->
<g id="node11" class="node">
<title>Node11</title>
<g id="a_node11"><a xlink:title=" ">
<polygon fill="none" stroke="#bfbfbf" points="208.5,-56.5 208.5,-75.5 263.5,-75.5 263.5,-56.5 208.5,-56.5"/>
<text text-anchor="middle" x="236" y="-63.5" font-family="Helvetica,sans-Serif" font-size="10.00">HX711.h</text>
</a>
</g>
</g>
<!-- Node9&#45;&gt;Node11 -->
<g id="edge10" class="edge">
<title>Node9&#45;&gt;Node11</title>
<path fill="none" stroke="midnightblue" d="M207.61,-112.08C212.37,-104.53 219.32,-93.49 225.15,-84.23"/>
<polygon fill="midnightblue" stroke="midnightblue" points="228.12,-86.08 230.49,-75.75 222.2,-82.35 228.12,-86.08"/>
</g>
<!-- Node12 -->
<g id="node12" class="node">
<title>Node12</title>
<g id="a_node12"><a xlink:title=" ">
<polygon fill="none" stroke="#bfbfbf" points="281.5,-56.5 281.5,-75.5 362.5,-75.5 362.5,-56.5 281.5,-56.5"/>
<text text-anchor="middle" x="322" y="-63.5" font-family="Helvetica,sans-Serif" font-size="10.00">DS1307RTC.h</text>
</a>
</g>
</g>
<!-- Node9&#45;&gt;Node12 -->
<g id="edge11" class="edge">
<title>Node9&#45;&gt;Node12</title>
<path fill="none" stroke="midnightblue" d="M221.01,-112.44C240.59,-103.64 271.31,-89.81 293.73,-79.72"/>
<polygon fill="midnightblue" stroke="midnightblue" points="295.39,-82.81 303.07,-75.52 292.52,-76.43 295.39,-82.81"/>
</g>
<!-- Node13 -->
<g id="node13" class="node">
<title>Node13</title>
<g id="a_node13"><a xlink:title=" ">
<polygon fill="none" stroke="#bfbfbf" points="380.5,-56.5 380.5,-75.5 439.5,-75.5 439.5,-56.5 380.5,-56.5"/>
<text text-anchor="middle" x="410" y="-63.5" font-family="Helvetica,sans-Serif" font-size="10.00">TimeLib.h</text>
</a>
</g>
</g>
<!-- Node9&#45;&gt;Node13 -->
<g id="edge12" class="edge">
<title>Node9&#45;&gt;Node13</title>
<path fill="none" stroke="midnightblue" d="M231.8,-113.26C268.25,-103.8 330.08,-87.75 370.47,-77.26"/>
<polygon fill="midnightblue" stroke="midnightblue" points="371.45,-80.62 380.25,-74.72 369.7,-73.85 371.45,-80.62"/>
</g>
<!-- Node14 -->
<g id="node14" class="node">
<title>Node14</title>
<g id="a_node14"><a xlink:title=" ">
<polygon fill="none" stroke="#bfbfbf" points="457.5,-56.5 457.5,-75.5 554.5,-75.5 554.5,-56.5 457.5,-56.5"/>
<text text-anchor="middle" x="506" y="-63.5" font-family="Helvetica,sans-Serif" font-size="10.00">Adafruit_INA219.h</text>
</a>
</g>
</g>
<!-- Node9&#45;&gt;Node14 -->
<g id="edge13" class="edge">
<title>Node9&#45;&gt;Node14</title>
<path fill="none" stroke="midnightblue" d="M231.77,-113.94C234.88,-113.26 238,-112.6 241,-112 279.44,-104.31 381.57,-87.33 447.23,-76.57"/>
<polygon fill="midnightblue" stroke="midnightblue" points="448.13,-79.97 457.44,-74.9 447,-73.06 448.13,-79.97"/>
</g>
<!-- Node15 -->
<g id="node15" class="node">
<title>Node15</title>
<g id="a_node15"><a xlink:title=" ">
<polygon fill="none" stroke="#bfbfbf" points="572.5,-56.5 572.5,-75.5 679.5,-75.5 679.5,-56.5 572.5,-56.5"/>
<text text-anchor="middle" x="626" y="-63.5" font-family="Helvetica,sans-Serif" font-size="10.00">DallasTemperature.h</text>
</a>
</g>
</g>
<!-- Node9&#45;&gt;Node15 -->
<g id="edge15" class="edge">
<title>Node9&#45;&gt;Node15</title>
<path fill="none" stroke="midnightblue" d="M231.74,-113.76C234.86,-113.12 237.99,-112.51 241,-112 380.19,-88.26 419,-94.09 562.21,-76.19"/>
<polygon fill="midnightblue" stroke="midnightblue" points="562.77,-79.64 572.25,-74.91 561.89,-72.7 562.77,-79.64"/>
</g>
</g>
</svg>
