<?xml version="1.0" encoding="UTF-8" standalone="no"?>
<!DOCTYPE svg PUBLIC "-//W3C//DTD SVG 1.1//EN"
 "http://www.w3.org/Graphics/SVG/1.1/DTD/svg11.dtd">
<!-- Generated by graphviz version 2.43.0 (0)
 -->
<!-- Title: firmware/static&#45;weighstation/main/memory.h Pages: 1 -->
<svg width="340pt" height="170pt"
 viewBox="0.00 0.00 340.00 170.00" xmlns="http://www.w3.org/2000/svg" xmlns:xlink="http://www.w3.org/1999/xlink">
<g id="graph0" class="graph" transform="scale(1 1) rotate(0) translate(4 166)">
<title>firmware/static&#45;weighstation/main/memory.h</title>
<!-- Node1 -->
<g id="node1" class="node">
<title>Node1</title>
<g id="a_node1"><a xlink:title=" ">
<polygon fill="#999999" stroke="#666666" points="332,-162 175,-162 175,-132 332,-132 332,-162"/>
<text text-anchor="start" x="183" y="-150" font-family="Helvetica,sans-Serif" font-size="10.00">firmware/static&#45;weighstation</text>
<text text-anchor="middle" x="253.5" y="-139" font-family="Helvetica,sans-Serif" font-size="10.00">/main/memory.h</text>
</a>
</g>
</g>
<!-- Node2 -->
<g id="node2" class="node">
<title>Node2</title>
<g id="a_node2"><a xlink:href="memory_8cpp.html" target="_top" xlink:title=" ">
<polygon fill="white" stroke="#666666" points="157,-96 0,-96 0,-66 157,-66 157,-96"/>
<text text-anchor="start" x="8" y="-84" font-family="Helvetica,sans-Serif" font-size="10.00">firmware/static&#45;weighstation</text>
<text text-anchor="middle" x="78.5" y="-73" font-family="Helvetica,sans-Serif" font-size="10.00">/main/memory.cpp</text>
</a>
</g>
</g>
<!-- Node1&#45;&gt;Node2 -->
<g id="edge1" class="edge">
<title>Node1&#45;&gt;Node2</title>
<path fill="none" stroke="#63b8ff" d="M205.53,-128.46C177.61,-118.25 142.9,-105.55 116.81,-96.01"/>
<polygon fill="#63b8ff" stroke="#63b8ff" points="204.5,-131.81 215.1,-131.95 206.91,-125.23 204.5,-131.81"/>
</g>
<!-- Node3 -->
<g id="node3" class="node">
<title>Node3</title>
<g id="a_node3"><a xlink:href="sensors_8h.html" target="_top" xlink:title=" ">
<polygon fill="white" stroke="#666666" points="332,-96 175,-96 175,-66 332,-66 332,-96"/>
<text text-anchor="start" x="183" y="-84" font-family="Helvetica,sans-Serif" font-size="10.00">firmware/static&#45;weighstation</text>
<text text-anchor="middle" x="253.5" y="-73" font-family="Helvetica,sans-Serif" font-size="10.00">/main/sensors.h</text>
</a>
</g>
</g>
<!-- Node1&#45;&gt;Node3 -->
<g id="edge2" class="edge">
<title>Node1&#45;&gt;Node3</title>
<path fill="none" stroke="#63b8ff" d="M246.93,-121.83C246.52,-113.17 246.81,-103.7 247.79,-96.16"/>
<polygon fill="#63b8ff" stroke="#63b8ff" points="243.45,-122.13 247.78,-131.8 250.42,-121.54 243.45,-122.13"/>
</g>
<!-- Node3&#45;&gt;Node1 -->
<g id="edge3" class="edge">
<title>Node3&#45;&gt;Node1</title>
<path fill="none" stroke="#63b8ff" d="M260.07,-106.13C260.48,-114.78 260.2,-124.26 259.22,-131.8"/>
<polygon fill="#63b8ff" stroke="#63b8ff" points="263.55,-105.83 259.21,-96.16 256.58,-106.43 263.55,-105.83"/>
</g>
<!-- Node4 -->
<g id="node4" class="node">
<title>Node4</title>
<g id="a_node4"><a xlink:href="sensors_8cpp.html" target="_top" xlink:title=" ">
<polygon fill="white" stroke="#666666" points="332,-30 175,-30 175,0 332,0 332,-30"/>
<text text-anchor="start" x="183" y="-18" font-family="Helvetica,sans-Serif" font-size="10.00">firmware/static&#45;weighstation</text>
<text text-anchor="middle" x="253.5" y="-7" font-family="Helvetica,sans-Serif" font-size="10.00">/main/sensors.cpp</text>
</a>
</g>
</g>
<!-- Node3&#45;&gt;Node4 -->
<g id="edge4" class="edge">
<title>Node3&#45;&gt;Node4</title>
<path fill="none" stroke="#63b8ff" d="M253.5,-55.54C253.5,-46.96 253.5,-37.61 253.5,-30.16"/>
<polygon fill="#63b8ff" stroke="#63b8ff" points="250,-55.8 253.5,-65.8 257,-55.8 250,-55.8"/>
</g>
</g>
</svg>
