<?xml version="1.0" encoding="UTF-8" standalone="no"?>
<!DOCTYPE svg PUBLIC "-//W3C//DTD SVG 1.1//EN"
 "http://www.w3.org/Graphics/SVG/1.1/DTD/svg11.dtd">
<!-- Generated by graphviz version 2.43.0 (0)
 -->
<!-- Title: firmware/static&#45;weighstation/main/sensors.h Pages: 1 -->
<svg width="796pt" height="207pt"
 viewBox="0.00 0.00 796.00 207.00" xmlns="http://www.w3.org/2000/svg" xmlns:xlink="http://www.w3.org/1999/xlink">
<g id="graph0" class="graph" transform="scale(1 1) rotate(0) translate(4 203)">
<title>firmware/static&#45;weighstation/main/sensors.h</title>
<!-- Node1 -->
<g id="node1" class="node">
<title>Node1</title>
<g id="a_node1"><a xlink:title=" ">
<polygon fill="#bfbfbf" stroke="black" points="379.5,-168.5 379.5,-198.5 536.5,-198.5 536.5,-168.5 379.5,-168.5"/>
<text text-anchor="start" x="387.5" y="-186.5" font-family="Helvetica,sans-Serif" font-size="10.00">firmware/static&#45;weighstation</text>
<text text-anchor="middle" x="458" y="-175.5" font-family="Helvetica,sans-Serif" font-size="10.00">/main/sensors.h</text>
</a>
</g>
</g>
<!-- Node2 -->
<g id="node2" class="node">
<title>Node2</title>
<g id="a_node2"><a xlink:title=" ">
<polygon fill="none" stroke="#bfbfbf" points="0,-112.5 0,-131.5 48,-131.5 48,-112.5 0,-112.5"/>
<text text-anchor="middle" x="24" y="-119.5" font-family="Helvetica,sans-Serif" font-size="10.00">Wire.h</text>
</a>
</g>
</g>
<!-- Node1&#45;&gt;Node2 -->
<g id="edge1" class="edge">
<title>Node1&#45;&gt;Node2</title>
<path fill="none" stroke="midnightblue" d="M379.48,-175.91C300.47,-168.53 175.07,-154.79 57.92,-131.93"/>
<polygon fill="midnightblue" stroke="midnightblue" points="58.55,-128.49 48.06,-129.98 57.19,-135.36 58.55,-128.49"/>
</g>
<!-- Node3 -->
<g id="node3" class="node">
<title>Node3</title>
<g id="a_node3"><a xlink:title=" ">
<polygon fill="none" stroke="#bfbfbf" points="66,-112.5 66,-131.5 124,-131.5 124,-112.5 66,-112.5"/>
<text text-anchor="middle" x="95" y="-119.5" font-family="Helvetica,sans-Serif" font-size="10.00">HX711.h</text>
</a>
</g>
</g>
<!-- Node1&#45;&gt;Node3 -->
<g id="edge2" class="edge">
<title>Node1&#45;&gt;Node3</title>
<path fill="none" stroke="midnightblue" d="M379.22,-172.02C315.6,-163.15 223.57,-149.41 134.42,-132.16"/>
<polygon fill="midnightblue" stroke="midnightblue" points="134.89,-128.69 124.41,-130.21 133.55,-135.56 134.89,-128.69"/>
</g>
<!-- Node4 -->
<g id="node4" class="node">
<title>Node4</title>
<g id="a_node4"><a xlink:title=" ">
<polygon fill="none" stroke="#bfbfbf" points="142.5,-112.5 142.5,-131.5 223.5,-131.5 223.5,-112.5 142.5,-112.5"/>
<text text-anchor="middle" x="183" y="-119.5" font-family="Helvetica,sans-Serif" font-size="10.00">DS1307RTC.h</text>
</a>
</g>
</g>
<!-- Node1&#45;&gt;Node4 -->
<g id="edge3" class="edge">
<title>Node1&#45;&gt;Node4</title>
<path fill="none" stroke="midnightblue" d="M393.18,-168.47C343.87,-157.81 277.06,-143.35 232.12,-133.63"/>
<polygon fill="midnightblue" stroke="midnightblue" points="232.83,-130.2 222.32,-131.51 231.35,-137.04 232.83,-130.2"/>
</g>
<!-- Node5 -->
<g id="node5" class="node">
<title>Node5</title>
<g id="a_node5"><a xlink:title=" ">
<polygon fill="none" stroke="#bfbfbf" points="241.5,-112.5 241.5,-131.5 306.5,-131.5 306.5,-112.5 241.5,-112.5"/>
<text text-anchor="middle" x="274" y="-119.5" font-family="Helvetica,sans-Serif" font-size="10.00">TimeLib.h</text>
</a>
</g>
</g>
<!-- Node1&#45;&gt;Node5 -->
<g id="edge4" class="edge">
<title>Node1&#45;&gt;Node5</title>
<path fill="none" stroke="midnightblue" d="M414.39,-168.4C382.6,-158.12 340.03,-144.35 310.13,-134.68"/>
<polygon fill="midnightblue" stroke="midnightblue" points="311.1,-131.32 300.51,-131.57 308.94,-137.98 311.1,-131.32"/>
</g>
<!-- Node6 -->
<g id="node6" class="node">
<title>Node6</title>
<g id="a_node6"><a xlink:title=" ">
<polygon fill="none" stroke="#bfbfbf" points="324.5,-112.5 324.5,-131.5 429.5,-131.5 429.5,-112.5 324.5,-112.5"/>
<text text-anchor="middle" x="377" y="-119.5" font-family="Helvetica,sans-Serif" font-size="10.00">Adafruit_INA219.h</text>
</a>
</g>
</g>
<!-- Node1&#45;&gt;Node6 -->
<g id="edge5" class="edge">
<title>Node1&#45;&gt;Node6</title>
<path fill="none" stroke="midnightblue" d="M438.8,-168.4C426.18,-159.13 409.71,-147.03 396.94,-137.65"/>
<polygon fill="midnightblue" stroke="midnightblue" points="398.92,-134.76 388.79,-131.66 394.77,-140.4 398.92,-134.76"/>
</g>
<!-- Node7 -->
<g id="node7" class="node">
<title>Node7</title>
<g id="a_node7"><a xlink:title=" ">
<polygon fill="none" stroke="#bfbfbf" points="381.5,-56.5 381.5,-75.5 444.5,-75.5 444.5,-56.5 381.5,-56.5"/>
<text text-anchor="middle" x="413" y="-63.5" font-family="Helvetica,sans-Serif" font-size="10.00">Arduino.h</text>
</a>
</g>
</g>
<!-- Node1&#45;&gt;Node7 -->
<g id="edge6" class="edge">
<title>Node1&#45;&gt;Node7</title>
<path fill="none" stroke="midnightblue" d="M455.01,-168.4C451.72,-153.94 445.82,-130.93 438,-112 434.08,-102.5 428.63,-92.46 423.83,-84.27"/>
<polygon fill="midnightblue" stroke="midnightblue" points="426.78,-82.4 418.61,-75.66 420.8,-86.03 426.78,-82.4"/>
</g>
<!-- Node8 -->
<g id="node8" class="node">
<title>Node8</title>
<g id="a_node8"><a xlink:title=" ">
<polygon fill="none" stroke="#bfbfbf" points="670,-112.5 670,-131.5 788,-131.5 788,-112.5 670,-112.5"/>
<text text-anchor="middle" x="729" y="-119.5" font-family="Helvetica,sans-Serif" font-size="10.00">DallasTemperature.h</text>
</a>
</g>
</g>
<!-- Node1&#45;&gt;Node8 -->
<g id="edge7" class="edge">
<title>Node1&#45;&gt;Node8</title>
<path fill="none" stroke="midnightblue" d="M521.88,-168.47C570.37,-157.83 636.03,-143.41 680.31,-133.69"/>
<polygon fill="midnightblue" stroke="midnightblue" points="681.24,-137.07 690.26,-131.51 679.74,-130.23 681.24,-137.07"/>
</g>
<!-- Node9 -->
<g id="node9" class="node">
<title>Node9</title>
<g id="a_node9"><a xlink:href="config_8h.html" target="_top" xlink:title=" ">
<polygon fill="none" stroke="black" points="617.5,-56.5 617.5,-75.5 672.5,-75.5 672.5,-56.5 617.5,-56.5"/>
<text text-anchor="middle" x="645" y="-63.5" font-family="Helvetica,sans-Serif" font-size="10.00">config.h</text>
</a>
</g>
</g>
<!-- Node1&#45;&gt;Node9 -->
<g id="edge8" class="edge">
<title>Node1&#45;&gt;Node9</title>
<path fill="none" stroke="midnightblue" d="M536.83,-173.88C567.1,-166.93 599.9,-154.44 623,-132 635.41,-119.95 640.82,-100.66 643.18,-86.22"/>
<polygon fill="midnightblue" stroke="midnightblue" points="646.7,-86.27 644.49,-75.91 639.76,-85.39 646.7,-86.27"/>
</g>
<!-- Node12 -->
<g id="node12" class="node">
<title>Node12</title>
<g id="a_node12"><a xlink:href="memory_8h.html" target="_top" xlink:title=" ">
<polygon fill="none" stroke="black" points="486.5,-112.5 486.5,-131.5 551.5,-131.5 551.5,-112.5 486.5,-112.5"/>
<text text-anchor="middle" x="519" y="-119.5" font-family="Helvetica,sans-Serif" font-size="10.00">memory.h</text>
</a>
</g>
</g>
<!-- Node1&#45;&gt;Node12 -->
<g id="edge11" class="edge">
<title>Node1&#45;&gt;Node12</title>
<path fill="none" stroke="midnightblue" d="M466.62,-168.4C474.77,-159.31 486.84,-147.49 497.45,-138.19"/>
<polygon fill="midnightblue" stroke="midnightblue" points="499.81,-140.78 505.19,-131.66 495.29,-135.43 499.81,-140.78"/>
</g>
<!-- Node15 -->
<g id="node15" class="node">
<title>Node15</title>
<g id="a_node15"><a xlink:href="lora_8h.html" target="_top" xlink:title=" ">
<polygon fill="none" stroke="black" points="570,-112.5 570,-131.5 614,-131.5 614,-112.5 570,-112.5"/>
<text text-anchor="middle" x="592" y="-119.5" font-family="Helvetica,sans-Serif" font-size="10.00">lora.h</text>
</a>
</g>
</g>
<!-- Node1&#45;&gt;Node15 -->
<g id="edge17" class="edge">
<title>Node1&#45;&gt;Node15</title>
<path fill="none" stroke="midnightblue" d="M489.76,-168.4C512.04,-158.51 541.59,-145.38 563.19,-135.79"/>
<polygon fill="midnightblue" stroke="midnightblue" points="564.78,-138.91 572.5,-131.66 561.94,-132.52 564.78,-138.91"/>
</g>
<!-- Node10 -->
<g id="node10" class="node">
<title>Node10</title>
<g id="a_node10"><a xlink:title=" ">
<polygon fill="none" stroke="#bfbfbf" points="585.5,-0.5 585.5,-19.5 632.5,-19.5 632.5,-0.5 585.5,-0.5"/>
<text text-anchor="middle" x="609" y="-7.5" font-family="Helvetica,sans-Serif" font-size="10.00">lmic.h</text>
</a>
</g>
</g>
<!-- Node9&#45;&gt;Node10 -->
<g id="edge9" class="edge">
<title>Node9&#45;&gt;Node10</title>
<path fill="none" stroke="midnightblue" d="M639.06,-56.08C634.02,-48.53 626.66,-37.49 620.49,-28.23"/>
<polygon fill="midnightblue" stroke="midnightblue" points="623.29,-26.13 614.83,-19.75 617.47,-30.01 623.29,-26.13"/>
</g>
<!-- Node11 -->
<g id="node11" class="node">
<title>Node11</title>
<g id="a_node11"><a xlink:title=" ">
<polygon fill="none" stroke="#bfbfbf" points="660.5,-0.5 660.5,-19.5 719.5,-19.5 719.5,-0.5 660.5,-0.5"/>
<text text-anchor="middle" x="690" y="-7.5" font-family="Helvetica,sans-Serif" font-size="10.00">hal/hal.h</text>
</a>
</g>
</g>
<!-- Node9&#45;&gt;Node11 -->
<g id="edge10" class="edge">
<title>Node9&#45;&gt;Node11</title>
<path fill="none" stroke="midnightblue" d="M652.43,-56.08C658.85,-48.38 668.31,-37.03 676.12,-27.65"/>
<polygon fill="midnightblue" stroke="midnightblue" points="678.99,-29.67 682.71,-19.75 673.62,-25.19 678.99,-29.67"/>
</g>
<!-- Node12&#45;&gt;Node1 -->
<g id="edge16" class="edge">
<title>Node12&#45;&gt;Node1</title>
<path fill="none" stroke="midnightblue" d="M515.05,-131.66C508.71,-139.48 497.1,-151.32 485.91,-161.6"/>
<polygon fill="midnightblue" stroke="midnightblue" points="483.42,-159.13 478.3,-168.4 488.08,-164.35 483.42,-159.13"/>
</g>
<!-- Node12&#45;&gt;Node7 -->
<g id="edge12" class="edge">
<title>Node12&#45;&gt;Node7</title>
<path fill="none" stroke="midnightblue" d="M501.97,-112.32C484.97,-103.66 458.62,-90.24 439.01,-80.25"/>
<polygon fill="midnightblue" stroke="midnightblue" points="440.49,-77.08 429.99,-75.65 437.31,-83.31 440.49,-77.08"/>
</g>
<!-- Node12&#45;&gt;Node9 -->
<g id="edge15" class="edge">
<title>Node12&#45;&gt;Node9</title>
<path fill="none" stroke="midnightblue" d="M538.97,-112.44C559.61,-103.6 592.06,-89.69 615.63,-79.59"/>
<polygon fill="midnightblue" stroke="midnightblue" points="617.32,-82.67 625.13,-75.52 614.56,-76.24 617.32,-82.67"/>
</g>
<!-- Node13 -->
<g id="node13" class="node">
<title>Node13</title>
<g id="a_node13"><a xlink:title=" ">
<polygon fill="none" stroke="#bfbfbf" points="462.5,-56.5 462.5,-75.5 501.5,-75.5 501.5,-56.5 462.5,-56.5"/>
<text text-anchor="middle" x="482" y="-63.5" font-family="Helvetica,sans-Serif" font-size="10.00">SD.h</text>
</a>
</g>
</g>
<!-- Node12&#45;&gt;Node13 -->
<g id="edge13" class="edge">
<title>Node12&#45;&gt;Node13</title>
<path fill="none" stroke="midnightblue" d="M512.89,-112.08C507.72,-104.53 500.15,-93.49 493.81,-84.23"/>
<polygon fill="midnightblue" stroke="midnightblue" points="496.54,-82.02 488,-75.75 490.76,-85.98 496.54,-82.02"/>
</g>
<!-- Node14 -->
<g id="node14" class="node">
<title>Node14</title>
<g id="a_node14"><a xlink:title=" ">
<polygon fill="none" stroke="#bfbfbf" points="519.5,-56.5 519.5,-75.5 560.5,-75.5 560.5,-56.5 519.5,-56.5"/>
<text text-anchor="middle" x="540" y="-63.5" font-family="Helvetica,sans-Serif" font-size="10.00">SPI.h</text>
</a>
</g>
</g>
<!-- Node12&#45;&gt;Node14 -->
<g id="edge14" class="edge">
<title>Node12&#45;&gt;Node14</title>
<path fill="none" stroke="midnightblue" d="M522.47,-112.08C525.31,-104.77 529.43,-94.18 532.96,-85.1"/>
<polygon fill="midnightblue" stroke="midnightblue" points="536.23,-86.34 536.6,-75.75 529.71,-83.8 536.23,-86.34"/>
</g>
<!-- Node15&#45;&gt;Node9 -->
<g id="edge21" class="edge">
<title>Node15&#45;&gt;Node9</title>
<path fill="none" stroke="midnightblue" d="M600.75,-112.08C608.47,-104.22 619.9,-92.57 629.22,-83.08"/>
<polygon fill="midnightblue" stroke="midnightblue" points="631.9,-85.34 636.41,-75.75 626.91,-80.44 631.9,-85.34"/>
</g>
<!-- Node15&#45;&gt;Node10 -->
<g id="edge18" class="edge">
<title>Node15&#45;&gt;Node10</title>
<path fill="none" stroke="midnightblue" d="M593.33,-112.37C596.08,-94.62 602.41,-53.67 606.13,-29.6"/>
<polygon fill="midnightblue" stroke="midnightblue" points="609.6,-30.01 607.67,-19.59 602.69,-28.94 609.6,-30.01"/>
</g>
<!-- Node15&#45;&gt;Node11 -->
<g id="edge19" class="edge">
<title>Node15&#45;&gt;Node11</title>
<path fill="none" stroke="midnightblue" d="M614.07,-116.29C635.14,-110.55 665.98,-98.69 682,-76 691.32,-62.79 692.76,-44.21 692.19,-30.29"/>
<polygon fill="midnightblue" stroke="midnightblue" points="695.65,-29.61 691.37,-19.92 688.67,-30.16 695.65,-29.61"/>
</g>
<!-- Node15&#45;&gt;Node14 -->
<g id="edge20" class="edge">
<title>Node15&#45;&gt;Node14</title>
<path fill="none" stroke="midnightblue" d="M583.41,-112.08C575.84,-104.22 564.62,-92.57 555.49,-83.08"/>
<polygon fill="midnightblue" stroke="midnightblue" points="557.88,-80.53 548.43,-75.75 552.84,-85.38 557.88,-80.53"/>
</g>
</g>
</svg>
