<?xml version="1.0" encoding="UTF-8" standalone="no"?>
<!DOCTYPE svg PUBLIC "-//W3C//DTD SVG 1.1//EN"
 "http://www.w3.org/Graphics/SVG/1.1/DTD/svg11.dtd">
<!-- Generated by graphviz version 2.50.0 (20211204.2007)
 -->
<!-- Title: firmware/static&#45;weighstation/main/sensors.h Pages: 1 -->
<svg width="696pt" height="207pt"
 viewBox="0.00 0.00 696.00 207.00" xmlns="http://www.w3.org/2000/svg" xmlns:xlink="http://www.w3.org/1999/xlink">
<g id="graph0" class="graph" transform="scale(1 1) rotate(0) translate(4 203)">
<title>firmware/static&#45;weighstation/main/sensors.h</title>
<!-- Node1 -->
<g id="node1" class="node">
<title>Node1</title>
<g id="a_node1"><a xlink:title=" ">
<polygon fill="#bfbfbf" stroke="black" points="329,-168.5 329,-198.5 468,-198.5 468,-168.5 329,-168.5"/>
<text text-anchor="start" x="337" y="-186.5" font-family="Helvetica,sans-Serif" font-size="10.00">firmware/static&#45;weighstation</text>
<text text-anchor="middle" x="398.5" y="-175.5" font-family="Helvetica,sans-Serif" font-size="10.00">/main/sensors.h</text>
</a>
</g>
</g>
<!-- Node2 -->
<g id="node2" class="node">
<title>Node2</title>
<g id="a_node2"><a xlink:title=" ">
<polygon fill="none" stroke="#bfbfbf" points="0,-112.5 0,-131.5 45,-131.5 45,-112.5 0,-112.5"/>
<text text-anchor="middle" x="22.5" y="-119.5" font-family="Helvetica,sans-Serif" font-size="10.00">Wire.h</text>
</a>
</g>
</g>
<!-- Node1&#45;&gt;Node2 -->
<g id="edge1" class="edge">
<title>Node1&#45;&gt;Node2</title>
<path fill="none" stroke="midnightblue" d="M328.94,-175.16C261.16,-167.36 155.1,-153.46 55.07,-132.11"/>
<polygon fill="midnightblue" stroke="midnightblue" points="55.61,-128.64 45.1,-129.95 54.13,-135.48 55.61,-128.64"/>
</g>
<!-- Node3 -->
<g id="node3" class="node">
<title>Node3</title>
<g id="a_node3"><a xlink:title=" ">
<polygon fill="none" stroke="#bfbfbf" points="63,-112.5 63,-131.5 118,-131.5 118,-112.5 63,-112.5"/>
<text text-anchor="middle" x="90.5" y="-119.5" font-family="Helvetica,sans-Serif" font-size="10.00">HX711.h</text>
</a>
</g>
</g>
<!-- Node1&#45;&gt;Node3 -->
<g id="edge2" class="edge">
<title>Node1&#45;&gt;Node3</title>
<path fill="none" stroke="midnightblue" d="M328.95,-170.8C276.22,-161.65 201.75,-148.13 128.26,-132.29"/>
<polygon fill="midnightblue" stroke="midnightblue" points="128.88,-128.85 118.37,-130.15 127.4,-135.69 128.88,-128.85"/>
</g>
<!-- Node4 -->
<g id="node4" class="node">
<title>Node4</title>
<g id="a_node4"><a xlink:title=" ">
<polygon fill="none" stroke="#bfbfbf" points="136,-112.5 136,-131.5 217,-131.5 217,-112.5 136,-112.5"/>
<text text-anchor="middle" x="176.5" y="-119.5" font-family="Helvetica,sans-Serif" font-size="10.00">DS1307RTC.h</text>
</a>
</g>
</g>
<!-- Node1&#45;&gt;Node4 -->
<g id="edge3" class="edge">
<title>Node1&#45;&gt;Node4</title>
<path fill="none" stroke="midnightblue" d="M346.17,-168.47C307.03,-157.99 254.24,-143.84 218,-134.12"/>
<polygon fill="midnightblue" stroke="midnightblue" points="218.8,-130.71 208.24,-131.51 216.99,-137.48 218.8,-130.71"/>
</g>
<!-- Node5 -->
<g id="node5" class="node">
<title>Node5</title>
<g id="a_node5"><a xlink:title=" ">
<polygon fill="none" stroke="#bfbfbf" points="235,-112.5 235,-131.5 294,-131.5 294,-112.5 235,-112.5"/>
<text text-anchor="middle" x="264.5" y="-119.5" font-family="Helvetica,sans-Serif" font-size="10.00">TimeLib.h</text>
</a>
</g>
</g>
<!-- Node1&#45;&gt;Node5 -->
<g id="edge4" class="edge">
<title>Node1&#45;&gt;Node5</title>
<path fill="none" stroke="midnightblue" d="M366.74,-168.4C344.46,-158.51 314.91,-145.38 293.31,-135.79"/>
<polygon fill="midnightblue" stroke="midnightblue" points="294.56,-132.52 284,-131.66 291.72,-138.91 294.56,-132.52"/>
</g>
<!-- Node6 -->
<g id="node6" class="node">
<title>Node6</title>
<g id="a_node6"><a xlink:title=" ">
<polygon fill="none" stroke="#bfbfbf" points="312,-112.5 312,-131.5 409,-131.5 409,-112.5 312,-112.5"/>
<text text-anchor="middle" x="360.5" y="-119.5" font-family="Helvetica,sans-Serif" font-size="10.00">Adafruit_INA219.h</text>
</a>
</g>
</g>
<!-- Node1&#45;&gt;Node6 -->
<g id="edge5" class="edge">
<title>Node1&#45;&gt;Node6</title>
<path fill="none" stroke="midnightblue" d="M389.49,-168.4C384.09,-159.93 377.17,-149.1 371.45,-140.14"/>
<polygon fill="midnightblue" stroke="midnightblue" points="374.36,-138.2 366.03,-131.66 368.46,-141.97 374.36,-138.2"/>
</g>
<!-- Node7 -->
<g id="node7" class="node">
<title>Node7</title>
<g id="a_node7"><a xlink:title=" ">
<polygon fill="none" stroke="#bfbfbf" points="390.5,-56.5 390.5,-75.5 448.5,-75.5 448.5,-56.5 390.5,-56.5"/>
<text text-anchor="middle" x="419.5" y="-63.5" font-family="Helvetica,sans-Serif" font-size="10.00">Arduino.h</text>
</a>
</g>
</g>
<!-- Node1&#45;&gt;Node7 -->
<g id="edge6" class="edge">
<title>Node1&#45;&gt;Node7</title>
<path fill="none" stroke="midnightblue" d="M405.29,-168.29C409.67,-158.37 414.99,-144.68 417.5,-132 420.55,-116.58 420.87,-98.71 420.54,-85.61"/>
<polygon fill="midnightblue" stroke="midnightblue" points="424.03,-85.36 420.12,-75.51 417.03,-85.65 424.03,-85.36"/>
</g>
<!-- Node8 -->
<g id="node8" class="node">
<title>Node8</title>
<g id="a_node8"><a xlink:title=" ">
<polygon fill="none" stroke="#bfbfbf" points="581,-112.5 581,-131.5 688,-131.5 688,-112.5 581,-112.5"/>
<text text-anchor="middle" x="634.5" y="-119.5" font-family="Helvetica,sans-Serif" font-size="10.00">DallasTemperature.h</text>
</a>
</g>
</g>
<!-- Node1&#45;&gt;Node8 -->
<g id="edge7" class="edge">
<title>Node1&#45;&gt;Node8</title>
<path fill="none" stroke="midnightblue" d="M454.13,-168.47C495.91,-157.94 552.33,-143.72 590.88,-134"/>
<polygon fill="midnightblue" stroke="midnightblue" points="591.92,-137.34 600.76,-131.51 590.21,-130.56 591.92,-137.34"/>
</g>
<!-- Node9 -->
<g id="node9" class="node">
<title>Node9</title>
<g id="a_node9"><a xlink:href="config_8h.html" target="_top" xlink:title=" ">
<polygon fill="none" stroke="black" points="467,-56.5 467,-75.5 518,-75.5 518,-56.5 467,-56.5"/>
<text text-anchor="middle" x="492.5" y="-63.5" font-family="Helvetica,sans-Serif" font-size="10.00">config.h</text>
</a>
</g>
</g>
<!-- Node1&#45;&gt;Node9 -->
<g id="edge8" class="edge">
<title>Node1&#45;&gt;Node9</title>
<path fill="none" stroke="midnightblue" d="M410.03,-168.34C427.5,-146.86 460.62,-106.17 479.13,-83.43"/>
<polygon fill="midnightblue" stroke="midnightblue" points="481.85,-85.63 485.44,-75.67 476.42,-81.22 481.85,-85.63"/>
</g>
<!-- Node12 -->
<g id="node12" class="node">
<title>Node12</title>
<g id="a_node12"><a xlink:href="memory_8h.html" target="_top" xlink:title=" ">
<polygon fill="none" stroke="black" points="504,-112.5 504,-131.5 563,-131.5 563,-112.5 504,-112.5"/>
<text text-anchor="middle" x="533.5" y="-119.5" font-family="Helvetica,sans-Serif" font-size="10.00">memory.h</text>
</a>
</g>
</g>
<!-- Node1&#45;&gt;Node12 -->
<g id="edge11" class="edge">
<title>Node1&#45;&gt;Node12</title>
<path fill="none" stroke="midnightblue" d="M424.65,-168.4C446.02,-158.42 476.2,-145.15 499.44,-135.53"/>
<polygon fill="midnightblue" stroke="midnightblue" points="500.99,-138.68 508.93,-131.66 498.35,-132.2 500.99,-138.68"/>
</g>
<!-- Node10 -->
<g id="node10" class="node">
<title>Node10</title>
<g id="a_node10"><a xlink:title=" ">
<polygon fill="none" stroke="#bfbfbf" points="438,-0.5 438,-19.5 481,-19.5 481,-0.5 438,-0.5"/>
<text text-anchor="middle" x="459.5" y="-7.5" font-family="Helvetica,sans-Serif" font-size="10.00">lmic.h</text>
</a>
</g>
</g>
<!-- Node9&#45;&gt;Node10 -->
<g id="edge9" class="edge">
<title>Node9&#45;&gt;Node10</title>
<path fill="none" stroke="midnightblue" d="M487.05,-56.08C482.49,-48.61 475.83,-37.72 470.21,-28.52"/>
<polygon fill="midnightblue" stroke="midnightblue" points="473.05,-26.46 464.85,-19.75 467.08,-30.11 473.05,-26.46"/>
</g>
<!-- Node11 -->
<g id="node11" class="node">
<title>Node11</title>
<g id="a_node11"><a xlink:title=" ">
<polygon fill="none" stroke="#bfbfbf" points="499,-0.5 499,-19.5 552,-19.5 552,-0.5 499,-0.5"/>
<text text-anchor="middle" x="525.5" y="-7.5" font-family="Helvetica,sans-Serif" font-size="10.00">hal/hal.h</text>
</a>
</g>
</g>
<!-- Node9&#45;&gt;Node11 -->
<g id="edge10" class="edge">
<title>Node9&#45;&gt;Node11</title>
<path fill="none" stroke="midnightblue" d="M497.95,-56.08C502.51,-48.61 509.17,-37.72 514.79,-28.52"/>
<polygon fill="midnightblue" stroke="midnightblue" points="517.92,-30.11 520.15,-19.75 511.95,-26.46 517.92,-30.11"/>
</g>
<!-- Node12&#45;&gt;Node1 -->
<g id="edge16" class="edge">
<title>Node12&#45;&gt;Node1</title>
<path fill="none" stroke="midnightblue" d="M518.79,-131.66C501.17,-140.23 471.23,-153.63 445.56,-164.52"/>
<polygon fill="midnightblue" stroke="midnightblue" points="444.19,-161.29 436.33,-168.4 446.91,-167.75 444.19,-161.29"/>
</g>
<!-- Node12&#45;&gt;Node7 -->
<g id="edge12" class="edge">
<title>Node12&#45;&gt;Node7</title>
<path fill="none" stroke="midnightblue" d="M515.44,-112.44C496.93,-103.68 467.92,-89.94 446.64,-79.86"/>
<polygon fill="midnightblue" stroke="midnightblue" points="448.01,-76.63 437.48,-75.52 445.02,-82.96 448.01,-76.63"/>
</g>
<!-- Node12&#45;&gt;Node9 -->
<g id="edge15" class="edge">
<title>Node12&#45;&gt;Node9</title>
<path fill="none" stroke="midnightblue" d="M526.73,-112.08C520.94,-104.46 512.44,-93.26 505.36,-83.94"/>
<polygon fill="midnightblue" stroke="midnightblue" points="507.98,-81.6 499.14,-75.75 502.4,-85.83 507.98,-81.6"/>
</g>
<!-- Node13 -->
<g id="node13" class="node">
<title>Node13</title>
<g id="a_node13"><a xlink:title=" ">
<polygon fill="none" stroke="#bfbfbf" points="536,-56.5 536,-75.5 575,-75.5 575,-56.5 536,-56.5"/>
<text text-anchor="middle" x="555.5" y="-63.5" font-family="Helvetica,sans-Serif" font-size="10.00">SD.h</text>
</a>
</g>
</g>
<!-- Node12&#45;&gt;Node13 -->
<g id="edge13" class="edge">
<title>Node12&#45;&gt;Node13</title>
<path fill="none" stroke="midnightblue" d="M537.13,-112.08C540.11,-104.77 544.43,-94.18 548.12,-85.1"/>
<polygon fill="midnightblue" stroke="midnightblue" points="551.4,-86.33 551.93,-75.75 544.92,-83.69 551.4,-86.33"/>
</g>
<!-- Node14 -->
<g id="node14" class="node">
<title>Node14</title>
<g id="a_node14"><a xlink:title=" ">
<polygon fill="none" stroke="#bfbfbf" points="593,-56.5 593,-75.5 634,-75.5 634,-56.5 593,-56.5"/>
<text text-anchor="middle" x="613.5" y="-63.5" font-family="Helvetica,sans-Serif" font-size="10.00">SPI.h</text>
</a>
</g>
</g>
<!-- Node12&#45;&gt;Node14 -->
<g id="edge14" class="edge">
<title>Node12&#45;&gt;Node14</title>
<path fill="none" stroke="midnightblue" d="M546.35,-112.32C558.72,-103.98 577.63,-91.21 592.24,-81.35"/>
<polygon fill="midnightblue" stroke="midnightblue" points="594.35,-84.15 600.68,-75.65 590.43,-78.35 594.35,-84.15"/>
</g>
</g>
</svg>
