<?xml version="1.0" encoding="UTF-8" standalone="no"?>
<!DOCTYPE svg PUBLIC "-//W3C//DTD SVG 1.1//EN"
 "http://www.w3.org/Graphics/SVG/1.1/DTD/svg11.dtd">
<!-- Generated by graphviz version 2.43.0 (0)
 -->
<!-- Title: firmware/static&#45;weighstation/main/sensors.cpp Pages: 1 -->
<svg width="796pt" height="258pt"
 viewBox="0.00 0.00 796.00 258.00" xmlns="http://www.w3.org/2000/svg" xmlns:xlink="http://www.w3.org/1999/xlink">
<g id="graph0" class="graph" transform="scale(1 1) rotate(0) translate(4 254)">
<title>firmware/static&#45;weighstation/main/sensors.cpp</title>
<!-- Node1 -->
<g id="node1" class="node">
<title>Node1</title>
<g id="a_node1"><a xlink:title=" ">
<polygon fill="#999999" stroke="#666666" points="536.5,-250 379.5,-250 379.5,-220 536.5,-220 536.5,-250"/>
<text text-anchor="start" x="387.5" y="-238" font-family="Helvetica,sans-Serif" font-size="10.00">firmware/static&#45;weighstation</text>
<text text-anchor="middle" x="458" y="-227" font-family="Helvetica,sans-Serif" font-size="10.00">/main/sensors.cpp</text>
</a>
</g>
</g>
<!-- Node2 -->
<g id="node2" class="node">
<title>Node2</title>
<g id="a_node2"><a xlink:href="sensors_8h.html" target="_top" xlink:title=" ">
<polygon fill="white" stroke="#666666" points="489.5,-184 426.5,-184 426.5,-165 489.5,-165 489.5,-184"/>
<text text-anchor="middle" x="458" y="-172" font-family="Helvetica,sans-Serif" font-size="10.00">sensors.h</text>
</a>
</g>
</g>
<!-- Node1&#45;&gt;Node2 -->
<g id="edge1" class="edge">
<title>Node1&#45;&gt;Node2</title>
<path fill="none" stroke="#63b8ff" d="M458,-219.84C458,-212.21 458,-202.7 458,-194.45"/>
<polygon fill="#63b8ff" stroke="#63b8ff" points="461.5,-194.27 458,-184.27 454.5,-194.27 461.5,-194.27"/>
</g>
<!-- Node3 -->
<g id="node3" class="node">
<title>Node3</title>
<g id="a_node3"><a xlink:title=" ">
<polygon fill="#e0e0e0" stroke="#999999" points="48,-129 0,-129 0,-110 48,-110 48,-129"/>
<text text-anchor="middle" x="24" y="-117" font-family="Helvetica,sans-Serif" font-size="10.00">Wire.h</text>
</a>
</g>
</g>
<!-- Node2&#45;&gt;Node3 -->
<g id="edge2" class="edge">
<title>Node2&#45;&gt;Node3</title>
<path fill="none" stroke="#63b8ff" d="M426.33,-171.52C359.87,-167.03 200.93,-154.58 58.3,-128.98"/>
<polygon fill="#63b8ff" stroke="#63b8ff" points="58.53,-125.47 48.06,-127.12 57.27,-132.35 58.53,-125.47"/>
</g>
<!-- Node4 -->
<g id="node4" class="node">
<title>Node4</title>
<g id="a_node4"><a xlink:title=" ">
<polygon fill="#e0e0e0" stroke="#999999" points="124,-129 66,-129 66,-110 124,-110 124,-129"/>
<text text-anchor="middle" x="95" y="-117" font-family="Helvetica,sans-Serif" font-size="10.00">HX711.h</text>
</a>
</g>
</g>
<!-- Node2&#45;&gt;Node4 -->
<g id="edge3" class="edge">
<title>Node2&#45;&gt;Node4</title>
<path fill="none" stroke="#63b8ff" d="M426.49,-170.08C369.93,-163.74 247.26,-149.13 134.26,-129.1"/>
<polygon fill="#63b8ff" stroke="#63b8ff" points="134.87,-125.65 124.41,-127.33 133.64,-132.54 134.87,-125.65"/>
</g>
<!-- Node5 -->
<g id="node5" class="node">
<title>Node5</title>
<g id="a_node5"><a xlink:title=" ">
<polygon fill="#e0e0e0" stroke="#999999" points="223.5,-129 142.5,-129 142.5,-110 223.5,-110 223.5,-129"/>
<text text-anchor="middle" x="183" y="-117" font-family="Helvetica,sans-Serif" font-size="10.00">DS1307RTC.h</text>
</a>
</g>
</g>
<!-- Node2&#45;&gt;Node5 -->
<g id="edge4" class="edge">
<title>Node2&#45;&gt;Node5</title>
<path fill="none" stroke="#63b8ff" d="M426.45,-167.42C379.3,-158.33 289.98,-141.12 233.63,-130.26"/>
<polygon fill="#63b8ff" stroke="#63b8ff" points="233.99,-126.76 223.51,-128.31 232.66,-133.64 233.99,-126.76"/>
</g>
<!-- Node6 -->
<g id="node6" class="node">
<title>Node6</title>
<g id="a_node6"><a xlink:title=" ">
<polygon fill="#e0e0e0" stroke="#999999" points="306.5,-129 241.5,-129 241.5,-110 306.5,-110 306.5,-129"/>
<text text-anchor="middle" x="274" y="-117" font-family="Helvetica,sans-Serif" font-size="10.00">TimeLib.h</text>
</a>
</g>
</g>
<!-- Node2&#45;&gt;Node6 -->
<g id="edge5" class="edge">
<title>Node2&#45;&gt;Node6</title>
<path fill="none" stroke="#63b8ff" d="M428.44,-164.98C397.28,-156.01 348.03,-141.82 313.54,-131.89"/>
<polygon fill="#63b8ff" stroke="#63b8ff" points="314.37,-128.49 303.79,-129.08 312.43,-135.21 314.37,-128.49"/>
</g>
<!-- Node7 -->
<g id="node7" class="node">
<title>Node7</title>
<g id="a_node7"><a xlink:title=" ">
<polygon fill="#e0e0e0" stroke="#999999" points="429.5,-129 324.5,-129 324.5,-110 429.5,-110 429.5,-129"/>
<text text-anchor="middle" x="377" y="-117" font-family="Helvetica,sans-Serif" font-size="10.00">Adafruit_INA219.h</text>
</a>
</g>
</g>
<!-- Node2&#45;&gt;Node7 -->
<g id="edge6" class="edge">
<title>Node2&#45;&gt;Node7</title>
<path fill="none" stroke="#63b8ff" d="M444.99,-164.98C432.54,-156.84 413.54,-144.41 398.79,-134.76"/>
<polygon fill="#63b8ff" stroke="#63b8ff" points="400.54,-131.72 390.25,-129.17 396.7,-137.57 400.54,-131.72"/>
</g>
<!-- Node8 -->
<g id="node8" class="node">
<title>Node8</title>
<g id="a_node8"><a xlink:title=" ">
<polygon fill="#e0e0e0" stroke="#999999" points="444.5,-74 381.5,-74 381.5,-55 444.5,-55 444.5,-74"/>
<text text-anchor="middle" x="413" y="-62" font-family="Helvetica,sans-Serif" font-size="10.00">Arduino.h</text>
</a>
</g>
</g>
<!-- Node2&#45;&gt;Node8 -->
<g id="edge7" class="edge">
<title>Node2&#45;&gt;Node8</title>
<path fill="none" stroke="#63b8ff" d="M455.84,-164.67C452.65,-152.21 446.17,-128.88 438,-110 434,-100.75 428.61,-90.93 423.87,-82.88"/>
<polygon fill="#63b8ff" stroke="#63b8ff" points="426.71,-80.82 418.53,-74.09 420.73,-84.46 426.71,-80.82"/>
</g>
<!-- Node9 -->
<g id="node9" class="node">
<title>Node9</title>
<g id="a_node9"><a xlink:title=" ">
<polygon fill="#e0e0e0" stroke="#999999" points="788,-129 670,-129 670,-110 788,-110 788,-129"/>
<text text-anchor="middle" x="729" y="-117" font-family="Helvetica,sans-Serif" font-size="10.00">DallasTemperature.h</text>
</a>
</g>
</g>
<!-- Node2&#45;&gt;Node9 -->
<g id="edge8" class="edge">
<title>Node2&#45;&gt;Node9</title>
<path fill="none" stroke="#63b8ff" d="M489.62,-167.32C535.23,-158.4 620.08,-141.8 675.54,-130.96"/>
<polygon fill="#63b8ff" stroke="#63b8ff" points="676.39,-134.35 685.54,-129 675.05,-127.48 676.39,-134.35"/>
</g>
<!-- Node10 -->
<g id="node10" class="node">
<title>Node10</title>
<g id="a_node10"><a xlink:href="config_8h.html" target="_top" xlink:title=" ">
<polygon fill="white" stroke="#666666" points="672.5,-74 617.5,-74 617.5,-55 672.5,-55 672.5,-74"/>
<text text-anchor="middle" x="645" y="-62" font-family="Helvetica,sans-Serif" font-size="10.00">config.h</text>
</a>
</g>
</g>
<!-- Node2&#45;&gt;Node10 -->
<g id="edge9" class="edge">
<title>Node2&#45;&gt;Node10</title>
<path fill="none" stroke="#63b8ff" d="M489.51,-173.42C526.16,-171.63 586.32,-163.19 623,-129 635.39,-117.45 640.8,-98.58 643.17,-84.4"/>
<polygon fill="#63b8ff" stroke="#63b8ff" points="646.67,-84.64 644.48,-74.27 639.72,-83.73 646.67,-84.64"/>
</g>
<!-- Node13 -->
<g id="node13" class="node">
<title>Node13</title>
<g id="a_node13"><a xlink:href="memory_8h.html" target="_top" xlink:title=" ">
<polygon fill="white" stroke="#666666" points="551.5,-129 486.5,-129 486.5,-110 551.5,-110 551.5,-129"/>
<text text-anchor="middle" x="519" y="-117" font-family="Helvetica,sans-Serif" font-size="10.00">memory.h</text>
</a>
</g>
</g>
<!-- Node2&#45;&gt;Node13 -->
<g id="edge12" class="edge">
<title>Node2&#45;&gt;Node13</title>
<path fill="none" stroke="#63b8ff" d="M462.91,-164.75C470.42,-156.72 483.97,-144.67 495.99,-135.18"/>
<polygon fill="#63b8ff" stroke="#63b8ff" points="498.15,-137.93 503.98,-129.09 493.91,-132.37 498.15,-137.93"/>
</g>
<!-- Node16 -->
<g id="node16" class="node">
<title>Node16</title>
<g id="a_node16"><a xlink:href="lora_8h.html" target="_top" xlink:title=" ">
<polygon fill="white" stroke="#666666" points="614,-129 570,-129 570,-110 614,-110 614,-129"/>
<text text-anchor="middle" x="592" y="-117" font-family="Helvetica,sans-Serif" font-size="10.00">lora.h</text>
</a>
</g>
</g>
<!-- Node2&#45;&gt;Node16 -->
<g id="edge18" class="edge">
<title>Node2&#45;&gt;Node16</title>
<path fill="none" stroke="#63b8ff" d="M479.53,-164.98C501.47,-156.3 535.74,-142.75 560.69,-132.88"/>
<polygon fill="#63b8ff" stroke="#63b8ff" points="562.07,-136.1 570.08,-129.17 559.49,-129.59 562.07,-136.1"/>
</g>
<!-- Node11 -->
<g id="node11" class="node">
<title>Node11</title>
<g id="a_node11"><a xlink:title=" ">
<polygon fill="#e0e0e0" stroke="#999999" points="632.5,-19 585.5,-19 585.5,0 632.5,0 632.5,-19"/>
<text text-anchor="middle" x="609" y="-7" font-family="Helvetica,sans-Serif" font-size="10.00">lmic.h</text>
</a>
</g>
</g>
<!-- Node10&#45;&gt;Node11 -->
<g id="edge10" class="edge">
<title>Node10&#45;&gt;Node11</title>
<path fill="none" stroke="#63b8ff" d="M639.06,-54.75C634.02,-47.34 626.66,-36.5 620.49,-27.41"/>
<polygon fill="#63b8ff" stroke="#63b8ff" points="623.35,-25.39 614.83,-19.09 617.56,-29.33 623.35,-25.39"/>
</g>
<!-- Node12 -->
<g id="node12" class="node">
<title>Node12</title>
<g id="a_node12"><a xlink:title=" ">
<polygon fill="#e0e0e0" stroke="#999999" points="719.5,-19 660.5,-19 660.5,0 719.5,0 719.5,-19"/>
<text text-anchor="middle" x="690" y="-7" font-family="Helvetica,sans-Serif" font-size="10.00">hal/hal.h</text>
</a>
</g>
</g>
<!-- Node10&#45;&gt;Node12 -->
<g id="edge11" class="edge">
<title>Node10&#45;&gt;Node12</title>
<path fill="none" stroke="#63b8ff" d="M652.43,-54.75C658.85,-47.18 668.31,-36.05 676.12,-26.84"/>
<polygon fill="#63b8ff" stroke="#63b8ff" points="678.9,-28.98 682.71,-19.09 673.57,-24.45 678.9,-28.98"/>
</g>
<!-- Node13&#45;&gt;Node2 -->
<g id="edge17" class="edge">
<title>Node13&#45;&gt;Node2</title>
<path fill="none" stroke="#63b8ff" d="M514.17,-129.17C506.66,-137.21 493.02,-149.34 480.94,-158.88"/>
<polygon fill="#63b8ff" stroke="#63b8ff" points="478.75,-156.14 472.92,-164.98 482.99,-161.71 478.75,-156.14"/>
</g>
<!-- Node13&#45;&gt;Node8 -->
<g id="edge13" class="edge">
<title>Node13&#45;&gt;Node8</title>
<path fill="none" stroke="#63b8ff" d="M501.97,-109.98C485.07,-101.54 458.94,-88.47 439.36,-78.68"/>
<polygon fill="#63b8ff" stroke="#63b8ff" points="440.85,-75.51 430.34,-74.17 437.72,-81.77 440.85,-75.51"/>
</g>
<!-- Node13&#45;&gt;Node10 -->
<g id="edge16" class="edge">
<title>Node13&#45;&gt;Node10</title>
<path fill="none" stroke="#63b8ff" d="M539.24,-109.98C559.7,-101.38 591.53,-87.99 614.93,-78.15"/>
<polygon fill="#63b8ff" stroke="#63b8ff" points="616.53,-81.27 624.39,-74.17 613.81,-74.82 616.53,-81.27"/>
</g>
<!-- Node14 -->
<g id="node14" class="node">
<title>Node14</title>
<g id="a_node14"><a xlink:title=" ">
<polygon fill="#e0e0e0" stroke="#999999" points="501.5,-74 462.5,-74 462.5,-55 501.5,-55 501.5,-74"/>
<text text-anchor="middle" x="482" y="-62" font-family="Helvetica,sans-Serif" font-size="10.00">SD.h</text>
</a>
</g>
</g>
<!-- Node13&#45;&gt;Node14 -->
<g id="edge14" class="edge">
<title>Node13&#45;&gt;Node14</title>
<path fill="none" stroke="#63b8ff" d="M512.89,-109.75C507.72,-102.34 500.15,-91.5 493.81,-82.41"/>
<polygon fill="#63b8ff" stroke="#63b8ff" points="496.59,-80.29 488,-74.09 490.85,-84.29 496.59,-80.29"/>
</g>
<!-- Node15 -->
<g id="node15" class="node">
<title>Node15</title>
<g id="a_node15"><a xlink:title=" ">
<polygon fill="#e0e0e0" stroke="#999999" points="560.5,-74 519.5,-74 519.5,-55 560.5,-55 560.5,-74"/>
<text text-anchor="middle" x="540" y="-62" font-family="Helvetica,sans-Serif" font-size="10.00">SPI.h</text>
</a>
</g>
</g>
<!-- Node13&#45;&gt;Node15 -->
<g id="edge15" class="edge">
<title>Node13&#45;&gt;Node15</title>
<path fill="none" stroke="#63b8ff" d="M522.47,-109.75C525.28,-102.65 529.34,-92.4 532.85,-83.56"/>
<polygon fill="#63b8ff" stroke="#63b8ff" points="536.17,-84.68 536.6,-74.09 529.66,-82.1 536.17,-84.68"/>
</g>
<!-- Node16&#45;&gt;Node10 -->
<g id="edge22" class="edge">
<title>Node16&#45;&gt;Node10</title>
<path fill="none" stroke="#63b8ff" d="M600.75,-109.75C608.47,-102.03 619.9,-90.6 629.22,-81.28"/>
<polygon fill="#63b8ff" stroke="#63b8ff" points="631.81,-83.64 636.41,-74.09 626.86,-78.69 631.81,-83.64"/>
</g>
<!-- Node16&#45;&gt;Node11 -->
<g id="edge19" class="edge">
<title>Node16&#45;&gt;Node11</title>
<path fill="none" stroke="#63b8ff" d="M593.39,-109.66C596.14,-92.17 602.34,-52.8 606.04,-29.27"/>
<polygon fill="#63b8ff" stroke="#63b8ff" points="609.54,-29.58 607.64,-19.16 602.62,-28.49 609.54,-29.58"/>
</g>
<!-- Node16&#45;&gt;Node12 -->
<g id="edge20" class="edge">
<title>Node16&#45;&gt;Node12</title>
<path fill="none" stroke="#63b8ff" d="M614.05,-113.9C635.1,-108.28 665.93,-96.58 682,-74 691.16,-61.13 692.61,-42.96 692.09,-29.36"/>
<polygon fill="#63b8ff" stroke="#63b8ff" points="695.57,-28.92 691.32,-19.22 688.59,-29.46 695.57,-28.92"/>
</g>
<!-- Node16&#45;&gt;Node15 -->
<g id="edge21" class="edge">
<title>Node16&#45;&gt;Node15</title>
<path fill="none" stroke="#63b8ff" d="M583.41,-109.75C575.84,-102.03 564.62,-90.6 555.49,-81.28"/>
<polygon fill="#63b8ff" stroke="#63b8ff" points="557.93,-78.78 548.43,-74.09 552.93,-83.68 557.93,-78.78"/>
</g>
</g>
</svg>
