<?xml version="1.0" encoding="UTF-8" standalone="no"?>
<!DOCTYPE svg PUBLIC "-//W3C//DTD SVG 1.1//EN"
 "http://www.w3.org/Graphics/SVG/1.1/DTD/svg11.dtd">
<!-- Generated by graphviz version 2.43.0 (0)
 -->
<!-- Title: firmware/static&#45;weighstation/main/sensors.h Pages: 1 -->
<svg width="796pt" height="203pt"
 viewBox="0.00 0.00 796.00 203.00" xmlns="http://www.w3.org/2000/svg" xmlns:xlink="http://www.w3.org/1999/xlink">
<g id="graph0" class="graph" transform="scale(1 1) rotate(0) translate(4 199)">
<title>firmware/static&#45;weighstation/main/sensors.h</title>
<!-- Node1 -->
<g id="node1" class="node">
<title>Node1</title>
<g id="a_node1"><a xlink:title=" ">
<polygon fill="#999999" stroke="#666666" points="536.5,-195 379.5,-195 379.5,-165 536.5,-165 536.5,-195"/>
<text text-anchor="start" x="387.5" y="-183" font-family="Helvetica,sans-Serif" font-size="10.00">firmware/static&#45;weighstation</text>
<text text-anchor="middle" x="458" y="-172" font-family="Helvetica,sans-Serif" font-size="10.00">/main/sensors.h</text>
</a>
</g>
</g>
<!-- Node2 -->
<g id="node2" class="node">
<title>Node2</title>
<g id="a_node2"><a xlink:title=" ">
<polygon fill="#e0e0e0" stroke="#999999" points="48,-129 0,-129 0,-110 48,-110 48,-129"/>
<text text-anchor="middle" x="24" y="-117" font-family="Helvetica,sans-Serif" font-size="10.00">Wire.h</text>
</a>
</g>
</g>
<!-- Node1&#45;&gt;Node2 -->
<g id="edge1" class="edge">
<title>Node1&#45;&gt;Node2</title>
<path fill="none" stroke="#63b8ff" d="M379.16,-172.18C300.18,-164.66 175.03,-150.9 57.93,-128.95"/>
<polygon fill="#63b8ff" stroke="#63b8ff" points="58.55,-125.51 48.07,-127.08 57.24,-132.38 58.55,-125.51"/>
</g>
<!-- Node3 -->
<g id="node3" class="node">
<title>Node3</title>
<g id="a_node3"><a xlink:title=" ">
<polygon fill="#e0e0e0" stroke="#999999" points="124,-129 66,-129 66,-110 124,-110 124,-129"/>
<text text-anchor="middle" x="95" y="-117" font-family="Helvetica,sans-Serif" font-size="10.00">HX711.h</text>
</a>
</g>
</g>
<!-- Node1&#45;&gt;Node3 -->
<g id="edge2" class="edge">
<title>Node1&#45;&gt;Node3</title>
<path fill="none" stroke="#63b8ff" d="M379.27,-168.4C315.68,-159.49 223.67,-145.82 134.07,-129.09"/>
<polygon fill="#63b8ff" stroke="#63b8ff" points="134.48,-125.61 124,-127.2 133.18,-132.49 134.48,-125.61"/>
</g>
<!-- Node4 -->
<g id="node4" class="node">
<title>Node4</title>
<g id="a_node4"><a xlink:title=" ">
<polygon fill="#e0e0e0" stroke="#999999" points="223.5,-129 142.5,-129 142.5,-110 223.5,-110 223.5,-129"/>
<text text-anchor="middle" x="183" y="-117" font-family="Helvetica,sans-Serif" font-size="10.00">DS1307RTC.h</text>
</a>
</g>
</g>
<!-- Node1&#45;&gt;Node4 -->
<g id="edge3" class="edge">
<title>Node1&#45;&gt;Node4</title>
<path fill="none" stroke="#63b8ff" d="M392.13,-164.99C343.34,-154.61 277.84,-140.68 233.24,-131.19"/>
<polygon fill="#63b8ff" stroke="#63b8ff" points="233.72,-127.71 223.21,-129.05 232.26,-134.56 233.72,-127.71"/>
</g>
<!-- Node5 -->
<g id="node5" class="node">
<title>Node5</title>
<g id="a_node5"><a xlink:title=" ">
<polygon fill="#e0e0e0" stroke="#999999" points="306.5,-129 241.5,-129 241.5,-110 306.5,-110 306.5,-129"/>
<text text-anchor="middle" x="274" y="-117" font-family="Helvetica,sans-Serif" font-size="10.00">TimeLib.h</text>
</a>
</g>
</g>
<!-- Node1&#45;&gt;Node5 -->
<g id="edge4" class="edge">
<title>Node1&#45;&gt;Node5</title>
<path fill="none" stroke="#63b8ff" d="M413.93,-164.99C382.31,-154.94 340.22,-141.55 310.48,-132.1"/>
<polygon fill="#63b8ff" stroke="#63b8ff" points="311.49,-128.75 300.9,-129.05 309.37,-135.42 311.49,-128.75"/>
</g>
<!-- Node6 -->
<g id="node6" class="node">
<title>Node6</title>
<g id="a_node6"><a xlink:title=" ">
<polygon fill="#e0e0e0" stroke="#999999" points="429.5,-129 324.5,-129 324.5,-110 429.5,-110 429.5,-129"/>
<text text-anchor="middle" x="377" y="-117" font-family="Helvetica,sans-Serif" font-size="10.00">Adafruit_INA219.h</text>
</a>
</g>
</g>
<!-- Node1&#45;&gt;Node6 -->
<g id="edge5" class="edge">
<title>Node1&#45;&gt;Node6</title>
<path fill="none" stroke="#63b8ff" d="M438.39,-164.84C426.03,-155.91 410.1,-144.41 397.57,-135.35"/>
<polygon fill="#63b8ff" stroke="#63b8ff" points="399.29,-132.28 389.14,-129.27 395.2,-137.96 399.29,-132.28"/>
</g>
<!-- Node7 -->
<g id="node7" class="node">
<title>Node7</title>
<g id="a_node7"><a xlink:title=" ">
<polygon fill="#e0e0e0" stroke="#999999" points="444.5,-74 381.5,-74 381.5,-55 444.5,-55 444.5,-74"/>
<text text-anchor="middle" x="413" y="-62" font-family="Helvetica,sans-Serif" font-size="10.00">Arduino.h</text>
</a>
</g>
</g>
<!-- Node1&#45;&gt;Node7 -->
<g id="edge6" class="edge">
<title>Node1&#45;&gt;Node7</title>
<path fill="none" stroke="#63b8ff" d="M454.93,-164.93C451.6,-150.76 445.72,-128.4 438,-110 434.1,-100.7 428.73,-90.88 423.97,-82.84"/>
<polygon fill="#63b8ff" stroke="#63b8ff" points="426.8,-80.77 418.6,-74.06 420.83,-84.42 426.8,-80.77"/>
</g>
<!-- Node8 -->
<g id="node8" class="node">
<title>Node8</title>
<g id="a_node8"><a xlink:title=" ">
<polygon fill="#e0e0e0" stroke="#999999" points="788,-129 670,-129 670,-110 788,-110 788,-129"/>
<text text-anchor="middle" x="729" y="-117" font-family="Helvetica,sans-Serif" font-size="10.00">DallasTemperature.h</text>
</a>
</g>
</g>
<!-- Node1&#45;&gt;Node8 -->
<g id="edge7" class="edge">
<title>Node1&#45;&gt;Node8</title>
<path fill="none" stroke="#63b8ff" d="M522.91,-164.99C571,-154.61 635.54,-140.68 679.5,-131.19"/>
<polygon fill="#63b8ff" stroke="#63b8ff" points="680.34,-134.58 689.38,-129.05 678.86,-127.74 680.34,-134.58"/>
</g>
<!-- Node9 -->
<g id="node9" class="node">
<title>Node9</title>
<g id="a_node9"><a xlink:href="config_8h.html" target="_top" xlink:title=" ">
<polygon fill="white" stroke="#666666" points="672.5,-74 617.5,-74 617.5,-55 672.5,-55 672.5,-74"/>
<text text-anchor="middle" x="645" y="-62" font-family="Helvetica,sans-Serif" font-size="10.00">config.h</text>
</a>
</g>
</g>
<!-- Node1&#45;&gt;Node9 -->
<g id="edge8" class="edge">
<title>Node1&#45;&gt;Node9</title>
<path fill="none" stroke="#63b8ff" d="M536.74,-170.56C566.99,-163.69 599.8,-151.3 623,-129 635.21,-117.26 640.65,-98.41 643.07,-84.29"/>
<polygon fill="#63b8ff" stroke="#63b8ff" points="646.56,-84.59 644.43,-74.21 639.62,-83.65 646.56,-84.59"/>
</g>
<!-- Node12 -->
<g id="node12" class="node">
<title>Node12</title>
<g id="a_node12"><a xlink:href="memory_8h.html" target="_top" xlink:title=" ">
<polygon fill="white" stroke="#666666" points="551.5,-129 486.5,-129 486.5,-110 551.5,-110 551.5,-129"/>
<text text-anchor="middle" x="519" y="-117" font-family="Helvetica,sans-Serif" font-size="10.00">memory.h</text>
</a>
</g>
</g>
<!-- Node1&#45;&gt;Node12 -->
<g id="edge11" class="edge">
<title>Node1&#45;&gt;Node12</title>
<path fill="none" stroke="#63b8ff" d="M466.89,-164.84C474.9,-156.09 486.57,-144.85 496.93,-135.88"/>
<polygon fill="#63b8ff" stroke="#63b8ff" points="499.43,-138.36 504.88,-129.27 494.95,-132.98 499.43,-138.36"/>
</g>
<!-- Node15 -->
<g id="node15" class="node">
<title>Node15</title>
<g id="a_node15"><a xlink:href="lora_8h.html" target="_top" xlink:title=" ">
<polygon fill="white" stroke="#666666" points="614,-129 570,-129 570,-110 614,-110 614,-129"/>
<text text-anchor="middle" x="592" y="-117" font-family="Helvetica,sans-Serif" font-size="10.00">lora.h</text>
</a>
</g>
</g>
<!-- Node1&#45;&gt;Node15 -->
<g id="edge17" class="edge">
<title>Node1&#45;&gt;Node15</title>
<path fill="none" stroke="#63b8ff" d="M490.1,-164.99C512.25,-155.31 541.48,-142.56 562.95,-133.18"/>
<polygon fill="#63b8ff" stroke="#63b8ff" points="564.45,-136.35 572.21,-129.14 561.65,-129.93 564.45,-136.35"/>
</g>
<!-- Node10 -->
<g id="node10" class="node">
<title>Node10</title>
<g id="a_node10"><a xlink:title=" ">
<polygon fill="#e0e0e0" stroke="#999999" points="632.5,-19 585.5,-19 585.5,0 632.5,0 632.5,-19"/>
<text text-anchor="middle" x="609" y="-7" font-family="Helvetica,sans-Serif" font-size="10.00">lmic.h</text>
</a>
</g>
</g>
<!-- Node9&#45;&gt;Node10 -->
<g id="edge9" class="edge">
<title>Node9&#45;&gt;Node10</title>
<path fill="none" stroke="#63b8ff" d="M639.06,-54.75C634.02,-47.34 626.66,-36.5 620.49,-27.41"/>
<polygon fill="#63b8ff" stroke="#63b8ff" points="623.35,-25.39 614.83,-19.09 617.56,-29.33 623.35,-25.39"/>
</g>
<!-- Node11 -->
<g id="node11" class="node">
<title>Node11</title>
<g id="a_node11"><a xlink:title=" ">
<polygon fill="#e0e0e0" stroke="#999999" points="719.5,-19 660.5,-19 660.5,0 719.5,0 719.5,-19"/>
<text text-anchor="middle" x="690" y="-7" font-family="Helvetica,sans-Serif" font-size="10.00">hal/hal.h</text>
</a>
</g>
</g>
<!-- Node9&#45;&gt;Node11 -->
<g id="edge10" class="edge">
<title>Node9&#45;&gt;Node11</title>
<path fill="none" stroke="#63b8ff" d="M652.43,-54.75C658.85,-47.18 668.31,-36.05 676.12,-26.84"/>
<polygon fill="#63b8ff" stroke="#63b8ff" points="678.9,-28.98 682.71,-19.09 673.57,-24.45 678.9,-28.98"/>
</g>
<!-- Node12&#45;&gt;Node1 -->
<g id="edge16" class="edge">
<title>Node12&#45;&gt;Node1</title>
<path fill="none" stroke="#63b8ff" d="M514.84,-129.27C508.57,-136.83 497.35,-148.07 486.45,-157.96"/>
<polygon fill="#63b8ff" stroke="#63b8ff" points="483.83,-155.6 478.64,-164.84 488.46,-160.85 483.83,-155.6"/>
</g>
<!-- Node12&#45;&gt;Node7 -->
<g id="edge12" class="edge">
<title>Node12&#45;&gt;Node7</title>
<path fill="none" stroke="#63b8ff" d="M501.97,-109.98C485.07,-101.54 458.94,-88.47 439.36,-78.68"/>
<polygon fill="#63b8ff" stroke="#63b8ff" points="440.85,-75.51 430.34,-74.17 437.72,-81.77 440.85,-75.51"/>
</g>
<!-- Node12&#45;&gt;Node9 -->
<g id="edge15" class="edge">
<title>Node12&#45;&gt;Node9</title>
<path fill="none" stroke="#63b8ff" d="M539.24,-109.98C559.7,-101.38 591.53,-87.99 614.93,-78.15"/>
<polygon fill="#63b8ff" stroke="#63b8ff" points="616.53,-81.27 624.39,-74.17 613.81,-74.82 616.53,-81.27"/>
</g>
<!-- Node13 -->
<g id="node13" class="node">
<title>Node13</title>
<g id="a_node13"><a xlink:title=" ">
<polygon fill="#e0e0e0" stroke="#999999" points="501.5,-74 462.5,-74 462.5,-55 501.5,-55 501.5,-74"/>
<text text-anchor="middle" x="482" y="-62" font-family="Helvetica,sans-Serif" font-size="10.00">SD.h</text>
</a>
</g>
</g>
<!-- Node12&#45;&gt;Node13 -->
<g id="edge13" class="edge">
<title>Node12&#45;&gt;Node13</title>
<path fill="none" stroke="#63b8ff" d="M512.89,-109.75C507.72,-102.34 500.15,-91.5 493.81,-82.41"/>
<polygon fill="#63b8ff" stroke="#63b8ff" points="496.59,-80.29 488,-74.09 490.85,-84.29 496.59,-80.29"/>
</g>
<!-- Node14 -->
<g id="node14" class="node">
<title>Node14</title>
<g id="a_node14"><a xlink:title=" ">
<polygon fill="#e0e0e0" stroke="#999999" points="560.5,-74 519.5,-74 519.5,-55 560.5,-55 560.5,-74"/>
<text text-anchor="middle" x="540" y="-62" font-family="Helvetica,sans-Serif" font-size="10.00">SPI.h</text>
</a>
</g>
</g>
<!-- Node12&#45;&gt;Node14 -->
<g id="edge14" class="edge">
<title>Node12&#45;&gt;Node14</title>
<path fill="none" stroke="#63b8ff" d="M522.47,-109.75C525.28,-102.65 529.34,-92.4 532.85,-83.56"/>
<polygon fill="#63b8ff" stroke="#63b8ff" points="536.17,-84.68 536.6,-74.09 529.66,-82.1 536.17,-84.68"/>
</g>
<!-- Node15&#45;&gt;Node9 -->
<g id="edge21" class="edge">
<title>Node15&#45;&gt;Node9</title>
<path fill="none" stroke="#63b8ff" d="M600.75,-109.75C608.47,-102.03 619.9,-90.6 629.22,-81.28"/>
<polygon fill="#63b8ff" stroke="#63b8ff" points="631.81,-83.64 636.41,-74.09 626.86,-78.69 631.81,-83.64"/>
</g>
<!-- Node15&#45;&gt;Node10 -->
<g id="edge18" class="edge">
<title>Node15&#45;&gt;Node10</title>
<path fill="none" stroke="#63b8ff" d="M593.39,-109.66C596.14,-92.17 602.34,-52.8 606.04,-29.27"/>
<polygon fill="#63b8ff" stroke="#63b8ff" points="609.54,-29.58 607.64,-19.16 602.62,-28.49 609.54,-29.58"/>
</g>
<!-- Node15&#45;&gt;Node11 -->
<g id="edge19" class="edge">
<title>Node15&#45;&gt;Node11</title>
<path fill="none" stroke="#63b8ff" d="M614.05,-113.9C635.1,-108.28 665.93,-96.58 682,-74 691.16,-61.13 692.61,-42.96 692.09,-29.36"/>
<polygon fill="#63b8ff" stroke="#63b8ff" points="695.57,-28.92 691.32,-19.22 688.59,-29.46 695.57,-28.92"/>
</g>
<!-- Node15&#45;&gt;Node14 -->
<g id="edge20" class="edge">
<title>Node15&#45;&gt;Node14</title>
<path fill="none" stroke="#63b8ff" d="M583.41,-109.75C575.84,-102.03 564.62,-90.6 555.49,-81.28"/>
<polygon fill="#63b8ff" stroke="#63b8ff" points="557.93,-78.78 548.43,-74.09 552.93,-83.68 557.93,-78.78"/>
</g>
</g>
</svg>
