<?xml version="1.0" encoding="UTF-8" standalone="no"?>
<!DOCTYPE svg PUBLIC "-//W3C//DTD SVG 1.1//EN"
 "http://www.w3.org/Graphics/SVG/1.1/DTD/svg11.dtd">
<!-- Generated by graphviz version 2.50.0 (20211204.2007)
 -->
<!-- Title: firmware/static&#45;weighstation/main/sensors.h Pages: 1 -->
<svg width="304pt" height="173pt"
 viewBox="0.00 0.00 304.00 173.00" xmlns="http://www.w3.org/2000/svg" xmlns:xlink="http://www.w3.org/1999/xlink">
<g id="graph0" class="graph" transform="scale(1 1) rotate(0) translate(4 169)">
<title>firmware/static&#45;weighstation/main/sensors.h</title>
<!-- Node1 -->
<g id="node1" class="node">
<title>Node1</title>
<g id="a_node1"><a xlink:title=" ">
<polygon fill="#bfbfbf" stroke="black" points="0,-134.5 0,-164.5 139,-164.5 139,-134.5 0,-134.5"/>
<text text-anchor="start" x="8" y="-152.5" font-family="Helvetica,sans-Serif" font-size="10.00">firmware/static&#45;weighstation</text>
<text text-anchor="middle" x="69.5" y="-141.5" font-family="Helvetica,sans-Serif" font-size="10.00">/main/sensors.h</text>
</a>
</g>
</g>
<!-- Node2 -->
<g id="node2" class="node">
<title>Node2</title>
<g id="a_node2"><a xlink:href="memory_8h.html" target="_top" xlink:title=" ">
<polygon fill="none" stroke="black" points="0,-67.5 0,-97.5 139,-97.5 139,-67.5 0,-67.5"/>
<text text-anchor="start" x="8" y="-85.5" font-family="Helvetica,sans-Serif" font-size="10.00">firmware/static&#45;weighstation</text>
<text text-anchor="middle" x="69.5" y="-74.5" font-family="Helvetica,sans-Serif" font-size="10.00">/main/memory.h</text>
</a>
</g>
</g>
<!-- Node1&#45;&gt;Node2 -->
<g id="edge1" class="edge">
<title>Node1&#45;&gt;Node2</title>
<path fill="none" stroke="midnightblue" d="M62.95,-124.4C62.51,-115.37 62.8,-105.41 63.83,-97.58"/>
<polygon fill="midnightblue" stroke="midnightblue" points="59.47,-124.74 63.82,-134.4 66.44,-124.13 59.47,-124.74"/>
</g>
<!-- Node4 -->
<g id="node4" class="node">
<title>Node4</title>
<g id="a_node4"><a xlink:href="sensors_8cpp.html" target="_top" xlink:title=" ">
<polygon fill="none" stroke="black" points="157,-67.5 157,-97.5 296,-97.5 296,-67.5 157,-67.5"/>
<text text-anchor="start" x="165" y="-85.5" font-family="Helvetica,sans-Serif" font-size="10.00">firmware/static&#45;weighstation</text>
<text text-anchor="middle" x="226.5" y="-74.5" font-family="Helvetica,sans-Serif" font-size="10.00">/main/sensors.cpp</text>
</a>
</g>
</g>
<!-- Node1&#45;&gt;Node4 -->
<g id="edge4" class="edge">
<title>Node1&#45;&gt;Node4</title>
<path fill="none" stroke="midnightblue" d="M112.87,-130.54C137.99,-120.14 169.16,-107.24 192.5,-97.58"/>
<polygon fill="midnightblue" stroke="midnightblue" points="111.47,-127.34 103.57,-134.4 114.14,-133.8 111.47,-127.34"/>
</g>
<!-- Node2&#45;&gt;Node1 -->
<g id="edge3" class="edge">
<title>Node2&#45;&gt;Node1</title>
<path fill="none" stroke="midnightblue" d="M76.04,-107.57C76.49,-116.6 76.21,-126.56 75.18,-134.4"/>
<polygon fill="midnightblue" stroke="midnightblue" points="79.53,-107.24 75.17,-97.58 72.55,-107.84 79.53,-107.24"/>
</g>
<!-- Node3 -->
<g id="node3" class="node">
<title>Node3</title>
<g id="a_node3"><a xlink:href="memory_8cpp.html" target="_top" xlink:title=" ">
<polygon fill="none" stroke="black" points="0,-0.5 0,-30.5 139,-30.5 139,-0.5 0,-0.5"/>
<text text-anchor="start" x="8" y="-18.5" font-family="Helvetica,sans-Serif" font-size="10.00">firmware/static&#45;weighstation</text>
<text text-anchor="middle" x="69.5" y="-7.5" font-family="Helvetica,sans-Serif" font-size="10.00">/main/memory.cpp</text>
</a>
</g>
</g>
<!-- Node2&#45;&gt;Node3 -->
<g id="edge2" class="edge">
<title>Node2&#45;&gt;Node3</title>
<path fill="none" stroke="midnightblue" d="M69.5,-57.11C69.5,-48.15 69.5,-38.32 69.5,-30.58"/>
<polygon fill="midnightblue" stroke="midnightblue" points="66,-57.4 69.5,-67.4 73,-57.4 66,-57.4"/>
</g>
</g>
</svg>
