<?xml version="1.0" encoding="UTF-8" standalone="no"?>
<!DOCTYPE svg PUBLIC "-//W3C//DTD SVG 1.1//EN"
 "http://www.w3.org/Graphics/SVG/1.1/DTD/svg11.dtd">
<!-- Generated by graphviz version 2.50.0 (20211204.2007)
 -->
<!-- Title: firmware/static&#45;weighstation/main/config.h Pages: 1 -->
<svg width="461pt" height="240pt"
 viewBox="0.00 0.00 461.00 240.00" xmlns="http://www.w3.org/2000/svg" xmlns:xlink="http://www.w3.org/1999/xlink">
<g id="graph0" class="graph" transform="scale(1 1) rotate(0) translate(4 236)">
<title>firmware/static&#45;weighstation/main/config.h</title>
<!-- Node1 -->
<g id="node1" class="node">
<title>Node1</title>
<g id="a_node1"><a xlink:title=" ">
<polygon fill="#bfbfbf" stroke="black" points="216,-201.5 216,-231.5 355,-231.5 355,-201.5 216,-201.5"/>
<text text-anchor="start" x="224" y="-219.5" font-family="Helvetica,sans-Serif" font-size="10.00">firmware/static&#45;weighstation</text>
<text text-anchor="middle" x="285.5" y="-208.5" font-family="Helvetica,sans-Serif" font-size="10.00">/main/config.h</text>
</a>
</g>
</g>
<!-- Node2 -->
<g id="node2" class="node">
<title>Node2</title>
<g id="a_node2"><a xlink:href="lora_8h.html" target="_top" xlink:title=" ">
<polygon fill="none" stroke="black" points="30,-134.5 30,-164.5 169,-164.5 169,-134.5 30,-134.5"/>
<text text-anchor="start" x="38" y="-152.5" font-family="Helvetica,sans-Serif" font-size="10.00">firmware/static&#45;weighstation</text>
<text text-anchor="middle" x="99.5" y="-141.5" font-family="Helvetica,sans-Serif" font-size="10.00">/main/lora.h</text>
</a>
</g>
</g>
<!-- Node1&#45;&gt;Node2 -->
<g id="edge1" class="edge">
<title>Node1&#45;&gt;Node2</title>
<path fill="none" stroke="midnightblue" d="M235.69,-198.09C205.66,-187.6 167.91,-174.41 139.78,-164.58"/>
<polygon fill="midnightblue" stroke="midnightblue" points="234.55,-201.4 245.14,-201.4 236.86,-194.79 234.55,-201.4"/>
</g>
<!-- Node4 -->
<g id="node4" class="node">
<title>Node4</title>
<g id="a_node4"><a xlink:href="memory_8h.html" target="_top" xlink:title=" ">
<polygon fill="none" stroke="black" points="216,-134.5 216,-164.5 355,-164.5 355,-134.5 216,-134.5"/>
<text text-anchor="start" x="224" y="-152.5" font-family="Helvetica,sans-Serif" font-size="10.00">firmware/static&#45;weighstation</text>
<text text-anchor="middle" x="285.5" y="-141.5" font-family="Helvetica,sans-Serif" font-size="10.00">/main/memory.h</text>
</a>
</g>
</g>
<!-- Node1&#45;&gt;Node4 -->
<g id="edge3" class="edge">
<title>Node1&#45;&gt;Node4</title>
<path fill="none" stroke="midnightblue" d="M285.5,-191.11C285.5,-182.15 285.5,-172.32 285.5,-164.58"/>
<polygon fill="midnightblue" stroke="midnightblue" points="282,-191.4 285.5,-201.4 289,-191.4 282,-191.4"/>
</g>
<!-- Node6 -->
<g id="node6" class="node">
<title>Node6</title>
<g id="a_node6"><a xlink:href="sensors_8h.html" target="_top" xlink:title=" ">
<polygon fill="none" stroke="black" points="314,-67.5 314,-97.5 453,-97.5 453,-67.5 314,-67.5"/>
<text text-anchor="start" x="322" y="-85.5" font-family="Helvetica,sans-Serif" font-size="10.00">firmware/static&#45;weighstation</text>
<text text-anchor="middle" x="383.5" y="-74.5" font-family="Helvetica,sans-Serif" font-size="10.00">/main/sensors.h</text>
</a>
</g>
</g>
<!-- Node1&#45;&gt;Node6 -->
<g id="edge8" class="edge">
<title>Node1&#45;&gt;Node6</title>
<path fill="none" stroke="midnightblue" d="M327.36,-196.33C340.67,-188.37 354.31,-177.92 363.5,-165 377.94,-144.7 382.02,-115.16 383.13,-97.77"/>
<polygon fill="midnightblue" stroke="midnightblue" points="325.26,-193.5 318.25,-201.45 328.69,-199.6 325.26,-193.5"/>
</g>
<!-- Node3 -->
<g id="node3" class="node">
<title>Node3</title>
<g id="a_node3"><a xlink:href="lora_8cpp.html" target="_top" xlink:title=" ">
<polygon fill="none" stroke="black" points="0,-67.5 0,-97.5 139,-97.5 139,-67.5 0,-67.5"/>
<text text-anchor="start" x="8" y="-85.5" font-family="Helvetica,sans-Serif" font-size="10.00">firmware/static&#45;weighstation</text>
<text text-anchor="middle" x="69.5" y="-74.5" font-family="Helvetica,sans-Serif" font-size="10.00">/main/lora.cpp</text>
</a>
</g>
</g>
<!-- Node2&#45;&gt;Node3 -->
<g id="edge2" class="edge">
<title>Node2&#45;&gt;Node3</title>
<path fill="none" stroke="midnightblue" d="M88.78,-125.28C84.51,-116.02 79.73,-105.66 76,-97.58"/>
<polygon fill="midnightblue" stroke="midnightblue" points="85.62,-126.78 92.99,-134.4 91.98,-123.85 85.62,-126.78"/>
</g>
<!-- Node5 -->
<g id="node5" class="node">
<title>Node5</title>
<g id="a_node5"><a xlink:href="memory_8cpp.html" target="_top" xlink:title=" ">
<polygon fill="none" stroke="black" points="157,-67.5 157,-97.5 296,-97.5 296,-67.5 157,-67.5"/>
<text text-anchor="start" x="165" y="-85.5" font-family="Helvetica,sans-Serif" font-size="10.00">firmware/static&#45;weighstation</text>
<text text-anchor="middle" x="226.5" y="-74.5" font-family="Helvetica,sans-Serif" font-size="10.00">/main/memory.cpp</text>
</a>
</g>
</g>
<!-- Node4&#45;&gt;Node5 -->
<g id="edge4" class="edge">
<title>Node4&#45;&gt;Node5</title>
<path fill="none" stroke="midnightblue" d="M265.75,-126.74C257.02,-117.12 247,-106.09 239.28,-97.58"/>
<polygon fill="midnightblue" stroke="midnightblue" points="263.39,-129.34 272.7,-134.4 268.57,-124.64 263.39,-129.34"/>
</g>
<!-- Node4&#45;&gt;Node6 -->
<g id="edge5" class="edge">
<title>Node4&#45;&gt;Node6</title>
<path fill="none" stroke="midnightblue" d="M309.44,-128.45C323.74,-118.45 341.81,-106.6 356.6,-97.58"/>
<polygon fill="midnightblue" stroke="midnightblue" points="307.2,-125.75 301.09,-134.4 311.26,-131.45 307.2,-125.75"/>
</g>
<!-- Node6&#45;&gt;Node4 -->
<g id="edge6" class="edge">
<title>Node6&#45;&gt;Node4</title>
<path fill="none" stroke="midnightblue" d="M359.61,-103.52C345.31,-113.51 327.24,-125.37 312.44,-134.4"/>
<polygon fill="midnightblue" stroke="midnightblue" points="361.83,-106.23 367.95,-97.58 357.78,-100.52 361.83,-106.23"/>
</g>
<!-- Node7 -->
<g id="node7" class="node">
<title>Node7</title>
<g id="a_node7"><a xlink:href="sensors_8cpp.html" target="_top" xlink:title=" ">
<polygon fill="none" stroke="black" points="314,-0.5 314,-30.5 453,-30.5 453,-0.5 314,-0.5"/>
<text text-anchor="start" x="322" y="-18.5" font-family="Helvetica,sans-Serif" font-size="10.00">firmware/static&#45;weighstation</text>
<text text-anchor="middle" x="383.5" y="-7.5" font-family="Helvetica,sans-Serif" font-size="10.00">/main/sensors.cpp</text>
</a>
</g>
</g>
<!-- Node6&#45;&gt;Node7 -->
<g id="edge7" class="edge">
<title>Node6&#45;&gt;Node7</title>
<path fill="none" stroke="midnightblue" d="M383.5,-57.11C383.5,-48.15 383.5,-38.32 383.5,-30.58"/>
<polygon fill="midnightblue" stroke="midnightblue" points="380,-57.4 383.5,-67.4 387,-57.4 380,-57.4"/>
</g>
</g>
</svg>
