<?xml version="1.0" encoding="UTF-8" standalone="no"?>
<!DOCTYPE svg PUBLIC "-//W3C//DTD SVG 1.1//EN"
 "http://www.w3.org/Graphics/SVG/1.1/DTD/svg11.dtd">
<!-- Generated by graphviz version 2.50.0 (20211204.2007)
 -->
<!-- Title: firmware/static&#45;weighstation/main/sensors.cpp Pages: 1 -->
<svg width="696pt" height="263pt"
 viewBox="0.00 0.00 696.00 263.00" xmlns="http://www.w3.org/2000/svg" xmlns:xlink="http://www.w3.org/1999/xlink">
<g id="graph0" class="graph" transform="scale(1 1) rotate(0) translate(4 259)">
<title>firmware/static&#45;weighstation/main/sensors.cpp</title>
<!-- Node1 -->
<g id="node1" class="node">
<title>Node1</title>
<g id="a_node1"><a xlink:title=" ">
<polygon fill="#bfbfbf" stroke="black" points="329,-224.5 329,-254.5 468,-254.5 468,-224.5 329,-224.5"/>
<text text-anchor="start" x="337" y="-242.5" font-family="Helvetica,sans-Serif" font-size="10.00">firmware/static&#45;weighstation</text>
<text text-anchor="middle" x="398.5" y="-231.5" font-family="Helvetica,sans-Serif" font-size="10.00">/main/sensors.cpp</text>
</a>
</g>
</g>
<!-- Node2 -->
<g id="node2" class="node">
<title>Node2</title>
<g id="a_node2"><a xlink:href="sensors_8h.html" target="_top" xlink:title=" ">
<polygon fill="none" stroke="black" points="369,-168.5 369,-187.5 428,-187.5 428,-168.5 369,-168.5"/>
<text text-anchor="middle" x="398.5" y="-175.5" font-family="Helvetica,sans-Serif" font-size="10.00">sensors.h</text>
</a>
</g>
</g>
<!-- Node1&#45;&gt;Node2 -->
<g id="edge1" class="edge">
<title>Node1&#45;&gt;Node2</title>
<path fill="none" stroke="midnightblue" d="M398.5,-224.4C398.5,-216.47 398.5,-206.46 398.5,-197.86"/>
<polygon fill="midnightblue" stroke="midnightblue" points="402,-197.66 398.5,-187.66 395,-197.66 402,-197.66"/>
</g>
<!-- Node3 -->
<g id="node3" class="node">
<title>Node3</title>
<g id="a_node3"><a xlink:title=" ">
<polygon fill="none" stroke="#bfbfbf" points="0,-112.5 0,-131.5 45,-131.5 45,-112.5 0,-112.5"/>
<text text-anchor="middle" x="22.5" y="-119.5" font-family="Helvetica,sans-Serif" font-size="10.00">Wire.h</text>
</a>
</g>
</g>
<!-- Node2&#45;&gt;Node3 -->
<g id="edge2" class="edge">
<title>Node2&#45;&gt;Node3</title>
<path fill="none" stroke="midnightblue" d="M368.71,-174.66C310.2,-169.73 176.11,-156.81 54.9,-132.03"/>
<polygon fill="midnightblue" stroke="midnightblue" points="55.59,-128.6 45.09,-129.99 54.17,-135.45 55.59,-128.6"/>
</g>
<!-- Node4 -->
<g id="node4" class="node">
<title>Node4</title>
<g id="a_node4"><a xlink:title=" ">
<polygon fill="none" stroke="#bfbfbf" points="63,-112.5 63,-131.5 118,-131.5 118,-112.5 63,-112.5"/>
<text text-anchor="middle" x="90.5" y="-119.5" font-family="Helvetica,sans-Serif" font-size="10.00">HX711.h</text>
</a>
</g>
</g>
<!-- Node2&#45;&gt;Node4 -->
<g id="edge3" class="edge">
<title>Node2&#45;&gt;Node4</title>
<path fill="none" stroke="midnightblue" d="M368.97,-172.92C320.59,-166.05 221.24,-151.23 128.21,-132.23"/>
<polygon fill="midnightblue" stroke="midnightblue" points="128.86,-128.79 118.36,-130.2 127.44,-135.65 128.86,-128.79"/>
</g>
<!-- Node5 -->
<g id="node5" class="node">
<title>Node5</title>
<g id="a_node5"><a xlink:title=" ">
<polygon fill="none" stroke="#bfbfbf" points="136,-112.5 136,-131.5 217,-131.5 217,-112.5 136,-112.5"/>
<text text-anchor="middle" x="176.5" y="-119.5" font-family="Helvetica,sans-Serif" font-size="10.00">DS1307RTC.h</text>
</a>
</g>
</g>
<!-- Node2&#45;&gt;Node5 -->
<g id="edge4" class="edge">
<title>Node2&#45;&gt;Node5</title>
<path fill="none" stroke="midnightblue" d="M368.56,-169.72C330.79,-160.53 265.48,-144.64 221.65,-133.98"/>
<polygon fill="midnightblue" stroke="midnightblue" points="222.36,-130.55 211.81,-131.59 220.7,-137.35 222.36,-130.55"/>
</g>
<!-- Node6 -->
<g id="node6" class="node">
<title>Node6</title>
<g id="a_node6"><a xlink:title=" ">
<polygon fill="none" stroke="#bfbfbf" points="235,-112.5 235,-131.5 294,-131.5 294,-112.5 235,-112.5"/>
<text text-anchor="middle" x="264.5" y="-119.5" font-family="Helvetica,sans-Serif" font-size="10.00">TimeLib.h</text>
</a>
</g>
</g>
<!-- Node2&#45;&gt;Node6 -->
<g id="edge5" class="edge">
<title>Node2&#45;&gt;Node6</title>
<path fill="none" stroke="midnightblue" d="M377.27,-168.44C355.12,-159.52 320.18,-145.44 295.06,-135.32"/>
<polygon fill="midnightblue" stroke="midnightblue" points="296.22,-132.01 285.63,-131.52 293.6,-138.5 296.22,-132.01"/>
</g>
<!-- Node7 -->
<g id="node7" class="node">
<title>Node7</title>
<g id="a_node7"><a xlink:title=" ">
<polygon fill="none" stroke="#bfbfbf" points="312,-112.5 312,-131.5 409,-131.5 409,-112.5 312,-112.5"/>
<text text-anchor="middle" x="360.5" y="-119.5" font-family="Helvetica,sans-Serif" font-size="10.00">Adafruit_INA219.h</text>
</a>
</g>
</g>
<!-- Node2&#45;&gt;Node7 -->
<g id="edge6" class="edge">
<title>Node2&#45;&gt;Node7</title>
<path fill="none" stroke="midnightblue" d="M392.23,-168.08C386.86,-160.46 378.98,-149.26 372.42,-139.94"/>
<polygon fill="midnightblue" stroke="midnightblue" points="375.28,-137.91 366.66,-131.75 369.55,-141.94 375.28,-137.91"/>
</g>
<!-- Node8 -->
<g id="node8" class="node">
<title>Node8</title>
<g id="a_node8"><a xlink:title=" ">
<polygon fill="none" stroke="#bfbfbf" points="390.5,-56.5 390.5,-75.5 448.5,-75.5 448.5,-56.5 390.5,-56.5"/>
<text text-anchor="middle" x="419.5" y="-63.5" font-family="Helvetica,sans-Serif" font-size="10.00">Arduino.h</text>
</a>
</g>
</g>
<!-- Node2&#45;&gt;Node8 -->
<g id="edge7" class="edge">
<title>Node2&#45;&gt;Node8</title>
<path fill="none" stroke="midnightblue" d="M403.29,-168.35C407.91,-159.52 414.6,-145.26 417.5,-132 420.86,-116.64 421.15,-98.77 420.73,-85.65"/>
<polygon fill="midnightblue" stroke="midnightblue" points="424.22,-85.35 420.22,-75.54 417.22,-85.7 424.22,-85.35"/>
</g>
<!-- Node9 -->
<g id="node9" class="node">
<title>Node9</title>
<g id="a_node9"><a xlink:title=" ">
<polygon fill="none" stroke="#bfbfbf" points="581,-112.5 581,-131.5 688,-131.5 688,-112.5 581,-112.5"/>
<text text-anchor="middle" x="634.5" y="-119.5" font-family="Helvetica,sans-Serif" font-size="10.00">DallasTemperature.h</text>
</a>
</g>
</g>
<!-- Node2&#45;&gt;Node9 -->
<g id="edge8" class="edge">
<title>Node2&#45;&gt;Node9</title>
<path fill="none" stroke="midnightblue" d="M428.39,-170.16C468.37,-161.01 539.71,-144.69 587.07,-133.85"/>
<polygon fill="midnightblue" stroke="midnightblue" points="588.12,-137.2 597.08,-131.56 586.56,-130.38 588.12,-137.2"/>
</g>
<!-- Node10 -->
<g id="node10" class="node">
<title>Node10</title>
<g id="a_node10"><a xlink:href="config_8h.html" target="_top" xlink:title=" ">
<polygon fill="none" stroke="black" points="467,-56.5 467,-75.5 518,-75.5 518,-56.5 467,-56.5"/>
<text text-anchor="middle" x="492.5" y="-63.5" font-family="Helvetica,sans-Serif" font-size="10.00">config.h</text>
</a>
</g>
</g>
<!-- Node2&#45;&gt;Node10 -->
<g id="edge9" class="edge">
<title>Node2&#45;&gt;Node10</title>
<path fill="none" stroke="midnightblue" d="M405.88,-168.37C421.53,-150.05 458.28,-107.05 478.52,-83.36"/>
<polygon fill="midnightblue" stroke="midnightblue" points="481.32,-85.47 485.16,-75.59 476,-80.92 481.32,-85.47"/>
</g>
<!-- Node13 -->
<g id="node13" class="node">
<title>Node13</title>
<g id="a_node13"><a xlink:href="memory_8h.html" target="_top" xlink:title=" ">
<polygon fill="none" stroke="black" points="504,-112.5 504,-131.5 563,-131.5 563,-112.5 504,-112.5"/>
<text text-anchor="middle" x="533.5" y="-119.5" font-family="Helvetica,sans-Serif" font-size="10.00">memory.h</text>
</a>
</g>
</g>
<!-- Node2&#45;&gt;Node13 -->
<g id="edge12" class="edge">
<title>Node2&#45;&gt;Node13</title>
<path fill="none" stroke="midnightblue" d="M414.8,-168.44C435.34,-159.44 470.75,-145.19 497.65,-135.05"/>
<polygon fill="midnightblue" stroke="midnightblue" points="498.98,-138.29 507.13,-131.52 496.54,-131.73 498.98,-138.29"/>
</g>
<!-- Node11 -->
<g id="node11" class="node">
<title>Node11</title>
<g id="a_node11"><a xlink:title=" ">
<polygon fill="none" stroke="#bfbfbf" points="438,-0.5 438,-19.5 481,-19.5 481,-0.5 438,-0.5"/>
<text text-anchor="middle" x="459.5" y="-7.5" font-family="Helvetica,sans-Serif" font-size="10.00">lmic.h</text>
</a>
</g>
</g>
<!-- Node10&#45;&gt;Node11 -->
<g id="edge10" class="edge">
<title>Node10&#45;&gt;Node11</title>
<path fill="none" stroke="midnightblue" d="M487.05,-56.08C482.49,-48.61 475.83,-37.72 470.21,-28.52"/>
<polygon fill="midnightblue" stroke="midnightblue" points="473.05,-26.46 464.85,-19.75 467.08,-30.11 473.05,-26.46"/>
</g>
<!-- Node12 -->
<g id="node12" class="node">
<title>Node12</title>
<g id="a_node12"><a xlink:title=" ">
<polygon fill="none" stroke="#bfbfbf" points="499,-0.5 499,-19.5 552,-19.5 552,-0.5 499,-0.5"/>
<text text-anchor="middle" x="525.5" y="-7.5" font-family="Helvetica,sans-Serif" font-size="10.00">hal/hal.h</text>
</a>
</g>
</g>
<!-- Node10&#45;&gt;Node12 -->
<g id="edge11" class="edge">
<title>Node10&#45;&gt;Node12</title>
<path fill="none" stroke="midnightblue" d="M497.95,-56.08C502.51,-48.61 509.17,-37.72 514.79,-28.52"/>
<polygon fill="midnightblue" stroke="midnightblue" points="517.92,-30.11 520.15,-19.75 511.95,-26.46 517.92,-30.11"/>
</g>
<!-- Node13&#45;&gt;Node2 -->
<g id="edge17" class="edge">
<title>Node13&#45;&gt;Node2</title>
<path fill="none" stroke="midnightblue" d="M517.29,-131.52C496.79,-140.51 461.4,-154.75 434.47,-164.91"/>
<polygon fill="midnightblue" stroke="midnightblue" points="433.13,-161.67 424.98,-168.44 435.57,-168.23 433.13,-161.67"/>
</g>
<!-- Node13&#45;&gt;Node8 -->
<g id="edge13" class="edge">
<title>Node13&#45;&gt;Node8</title>
<path fill="none" stroke="midnightblue" d="M515.44,-112.44C496.93,-103.68 467.92,-89.94 446.64,-79.86"/>
<polygon fill="midnightblue" stroke="midnightblue" points="448.01,-76.63 437.48,-75.52 445.02,-82.96 448.01,-76.63"/>
</g>
<!-- Node13&#45;&gt;Node10 -->
<g id="edge16" class="edge">
<title>Node13&#45;&gt;Node10</title>
<path fill="none" stroke="midnightblue" d="M526.73,-112.08C520.94,-104.46 512.44,-93.26 505.36,-83.94"/>
<polygon fill="midnightblue" stroke="midnightblue" points="507.98,-81.6 499.14,-75.75 502.4,-85.83 507.98,-81.6"/>
</g>
<!-- Node14 -->
<g id="node14" class="node">
<title>Node14</title>
<g id="a_node14"><a xlink:title=" ">
<polygon fill="none" stroke="#bfbfbf" points="536,-56.5 536,-75.5 575,-75.5 575,-56.5 536,-56.5"/>
<text text-anchor="middle" x="555.5" y="-63.5" font-family="Helvetica,sans-Serif" font-size="10.00">SD.h</text>
</a>
</g>
</g>
<!-- Node13&#45;&gt;Node14 -->
<g id="edge14" class="edge">
<title>Node13&#45;&gt;Node14</title>
<path fill="none" stroke="midnightblue" d="M537.13,-112.08C540.11,-104.77 544.43,-94.18 548.12,-85.1"/>
<polygon fill="midnightblue" stroke="midnightblue" points="551.4,-86.33 551.93,-75.75 544.92,-83.69 551.4,-86.33"/>
</g>
<!-- Node15 -->
<g id="node15" class="node">
<title>Node15</title>
<g id="a_node15"><a xlink:title=" ">
<polygon fill="none" stroke="#bfbfbf" points="593,-56.5 593,-75.5 634,-75.5 634,-56.5 593,-56.5"/>
<text text-anchor="middle" x="613.5" y="-63.5" font-family="Helvetica,sans-Serif" font-size="10.00">SPI.h</text>
</a>
</g>
</g>
<!-- Node13&#45;&gt;Node15 -->
<g id="edge15" class="edge">
<title>Node13&#45;&gt;Node15</title>
<path fill="none" stroke="midnightblue" d="M546.35,-112.32C558.72,-103.98 577.63,-91.21 592.24,-81.35"/>
<polygon fill="midnightblue" stroke="midnightblue" points="594.35,-84.15 600.68,-75.65 590.43,-78.35 594.35,-84.15"/>
</g>
</g>
</svg>
